<svg xmlns="http://www.w3.org/2000/svg" viewBox="0 0 51 100"><path class="fill" d="M11.8 21.2v13H2.3V50h9.5v47.1h19.5V50h13.1s1.2-7.6 1.8-15.9H31.4V23.3c0-1.6 2.1-3.8 4.2-3.8h10.6V3H31.8c-20.5-.1-20 15.8-20 18.2z"/><path d="M32.6 98.3H10.5V51.2H1V32.9h9.5V21.1c0-5.8 1.7-10.4 5-13.8 3.7-3.7 9.1-5.5 16.2-5.5h15.7v19H35.6c-1.4 0-3 1.6-3 2.5v9.6h14.9l-.1 1.4c-.6 8.3-1.8 15.9-1.8 16l-.2 1.1H32.6v46.9zm-19.5-2.5h17V48.7h13.3c.3-2.2 1.1-7.5 1.5-13.4H30.1V23.2c0-2.5 2.8-5.1 5.5-5.1H45V4.2H31.8c-6.4 0-11.3 1.6-14.4 4.8-2.9 2.9-4.3 6.9-4.3 12V35.4H3.6v13.3h9.5v47.1z"/></svg>
