<svg version="1" xmlns="http://www.w3.org/2000/svg" width="111" height="64" viewBox="0 0 1000.000000 575.000000"><path d="M111 3.6L107.5 7l-.3 76.7c-.3 69.1-.1 77.1 1.3 79.9 2.1 4 6.4 6.4 11.5 6.4 3.6 0 4.8-.6 8.1-3.9l3.9-3.9v-32.5c0-28.8.2-32.7 1.6-34.2 1.4-1.4 3.9-1.6 17-1.3 8.4.2 15.6.7 16.1 1.1.4.5.9 15.7 1.1 33.9.2 28.3.5 33.3 1.9 35.4 2.2 3.4 6.4 5.4 11.4 5.4 3.3 0 4.7-.6 7.5-3.4l3.4-3.4V7.3l-3.4-3.7c-3-3.1-4.1-3.6-8.2-3.6-4.2 0-5.2.5-8.6 3.9L168 7.8v29.1c0 16.4-.4 30.1-1 31.5l-1 2.6h-15.9c-11.8 0-16.1-.3-16.9-1.3-.7-.9-1.2-11.9-1.4-32L131.5 7l-3.8-3.5c-3.3-3-4.5-3.5-8.5-3.4-3.9.1-5.3.7-8.2 3.5zM6.9 3.5C5.5 4.3 3.7 6.3 3 8c-.7 1.6-1.6 3-2.1 3S0 12.1 0 13.5.5 16 1 16c.6 0 1 .7 1 1.6 0 .9 1.4 2.9 3.1 4.5C8.2 25 8.4 25 19.9 25c7.8 0 12.1.4 12.9 1.2.9.9 1.2 17.3 1.2 67.5 0 72.7-.1 71.7 5.9 74.7 4.3 2.3 10.3 2 13.5-.5 5.8-4.6 5.6-1.9 5.6-74.7 0-60.2.2-67 1.6-67.6.9-.3 6.6-.6 12.7-.6 10.1-.1 11.5-.3 13.9-2.3 5.8-4.8 5.9-12.6.2-17.7l-3.5-3H46.7C16.5 2.1 9 2.3 6.9 3.5zM223.8 3.6c-6 3.2-5.8.4-5.8 81.9 0 81.9-.2 79.2 5.9 82.8 2.6 1.5 6.3 1.7 31.6 1.7 31.4 0 33-.3 36-6 3.1-5.9 1.4-12.8-3.7-16-3-1.8-5.1-2-22.9-2-13.8 0-19.8-.3-20.7-1.2-1.5-1.5-1.7-46.5-.2-48.8.8-1.2 4.1-1.5 18.1-1.7 9.8-.1 18.3-.6 19.9-1.3 3.6-1.5 6-5.9 6-11 0-3.4-.6-4.8-3.4-7.6l-3.4-3.4h-17.9c-12.6 0-18.3-.4-19.1-1.2-.9-.9-1.2-7.1-1.2-22 0-19.5.1-20.8 1.9-21.8 1.2-.6 10-1 21.6-1h19.7l3.5-3.5c3.3-3.3 3.5-3.8 3.1-8.7-.4-4.2-1.1-5.7-3.7-8L286 2h-29.8c-24.3.1-30.2.3-32.4 1.6zM42 203.6c-2.5.7-5.3 1.4-6.2 1.4-2.7 0-13.3 7.6-16.5 11.7-9.9 12.9-9.6 10.9-10 63.8-.3 27.6 0 48.7.6 52.5 1.2 8.3 2.7 14.1 3.8 14.9.5.3 1.7 1.9 2.7 3.4 3.1 5 9 11 12.1 12.4 1.7.7 3.7 1.7 4.5 2.2 6.9 4 21.1 5.3 28.5 2.6 2.2-.8 4.5-1.5 5.2-1.5 2.2 0 9.8-5.7 14.8-11.2 9.4-10 10.5-14.7 10.5-45.2 0-25.9-.5-28.4-5.9-31.7-2.7-1.6-5.1-1.9-17.6-1.9-13.2 0-14.6.2-17.9 2.2-3.4 2.2-3.5 2.5-3.6 8.9 0 8.8 1.2 9.9 10.9 9.9 6.9 0 7.5.2 10.2 3.1 1.6 1.7 2.9 3.9 3 4.8.4 9.7-.1 23.4-.9 24.4-.5.7-1.2 2.8-1.6 4.8-.7 3.7-4.7 8.1-10.3 11.2-3.9 2.2-12.6 2.3-14.3.2-.7-.8-1.8-1.5-2.4-1.5-1.8 0-6.3-5.1-8.6-9.5-1.9-3.7-2-6-2-49 0-43.1.1-45.2 2.1-49.5 1.1-2.5 3-5.5 4.2-6.8 2.7-2.9 10-6.2 13.7-6.2 5.1 0 11.7 3.8 16.6 9.5 4.3 5.1 4.9 5.5 9.1 5.5 2.9 0 5.5-.7 7.4-2.1 2.7-1.9 2.9-2.5 2.9-8.3 0-6-.1-6.3-5-11.9-5.5-6-13-11.7-15.8-11.7-.9 0-3.9-.7-6.6-1.5-6-1.8-11.7-1.8-17.6.1zM412 204.1c-1.9 1.2-3.8 2.7-4.2 3.3-.4.6-.8 36.1-.8 78.8v77.7l3.7 3c4.3 3.6 8.9 4 13 1.4 5.2-3.5 5.4-4.6 5.3-53.4-.1-24.8.1-45.4.4-45.6 1.4-1.4 3.8 1.2 6.6 6.9 1.7 3.5 3.5 7 4 7.8.4.8 2.2 4.4 3.8 8 4.3 9.6 7.9 17.1 10.1 21 1.1 1.9 3.6 7.1 5.6 11.5 2 4.4 4 8.7 4.4 9.5 2.9 5.5 8.5 16.8 12 24 4.4 9.3 7.4 12 13.2 12 2.5 0 4.1-.9 7.1-4l3.8-4.1v-75.2c0-83 .4-77.5-6.2-82.6-3.9-3.1-7.1-2.6-13.8 1.8-1.3.9-1.6 7.9-2 49.3-.5 44.3-.6 48.3-2.2 48.6-1.3.2-2.7-1.9-5.8-8.5-4.2-8.9-9-18.7-11.6-23.3-.7-1.4-2.3-4.8-3.4-7.5-2.9-6.7-5.9-12.9-9-18.3-.6-.9-1.5-2.7-2-4-3-7-6.4-14.2-8.5-18.2-1.3-2.5-3.7-7.2-5.4-10.6-3.4-7-8-11.4-11.9-11.4-1.5 0-4.3 1-6.2 2.1zM572.4 205.6c-3.4 3.4-3.5 3.9-3.1 8.8.6 6 3 16.9 4.6 20.9.6 1.6 1.1 4.5 1.1 6.5s.7 4.6 1.5 5.6c.8 1.1 1.5 3.6 1.5 5.5.1 2 .7 4.7 1.5 6.1.8 1.4 1.5 4.1 1.5 6 0 1.9.7 4.6 1.5 6 .8 1.4 1.4 4 1.5 5.8 0 1.8.7 4.9 1.5 6.9.8 1.9 1.5 5.4 1.5 7.7 0 2.2.7 5 1.5 6 .8 1.1 1.5 3.8 1.5 6.1s.7 5 1.5 6.1c.8 1 1.5 3.4 1.5 5.2 0 1.9.6 4.8 1.4 6.5 1.3 3.1 2.1 6.3 5 20.7.7 3.6 1.8 7.8 2.5 9.3.6 1.6 1.1 4.2 1.1 5.8 0 9.9 11.5 16.6 18.2 10.6 3.1-2.7 7.4-15.7 8.5-25.7.3-2.5 1.2-5.2 2-6.2.8-.9 1.6-3.6 1.7-6 .2-2.5.8-5.4 1.4-6.5.6-1.1 1.6-4.5 2.1-7.4 1.9-10.4 3.4-16.4 4.7-20.2.8-2 1.4-5 1.4-6.5s.7-3.6 1.5-4.6c.8-1.1 1.5-3.6 1.5-5.5 0-4.8 3.1-12.2 5-11.9.8.2 1.8 1.9 2.3 3.8 1.7 7.5 3.8 17.7 4.5 22.6.4 2.9 1.4 6 2.2 6.9.8.9 1.7 4 2.1 6.9.4 2.8 1.3 7.1 1.9 9.6.7 2.5 1.8 6.7 2.5 9.5 2.5 9.5 3.8 15 4.4 19.5.4 2.5 1.3 5.5 1.9 6.7.7 1.2 1.2 3.8 1.2 5.9 0 2.9.8 4.4 3.9 7.5 3.3 3.3 4.5 3.9 8.1 3.9 3.3 0 4.8-.6 7.1-2.9 1.6-1.7 2.9-4 2.9-5.4 0-1.4.7-4.1 1.5-6 .8-2 1.5-4.7 1.5-6.1 0-1.3.7-3.7 1.5-5.2.8-1.6 1.5-4.8 1.5-7 0-2.5.6-4.7 1.5-5.4.8-.7 1.5-2.9 1.5-5s.7-5.4 1.5-7.3c.8-2 1.5-5.3 1.5-7.4.1-2.1.7-4.9 1.5-6.3.8-1.4 1.5-4.1 1.5-6 0-1.9.7-4.6 1.5-6 .8-1.4 1.5-4.3 1.5-6.5s.7-4.9 1.5-5.9c.8-1.1 1.5-3.8 1.5-6.1s.7-5 1.5-6.1c.8-1 1.5-3.3 1.5-4.9 0-1.7.5-4.6 1.1-6.5 1.1-3.6 3-11.4 5-21 .6-3 1.7-6.7 2.5-8.2.8-1.4 1.4-4.3 1.4-6.5 0-2.1.7-4.7 1.5-5.7 2.1-2.7 1.9-5.3-.6-8.4-5-6.4-11.7-8-16.5-3.9-2.7 2.3-6.3 11.8-6.4 16.7 0 1.4-.7 3.6-1.5 5s-1.5 4.1-1.5 6c0 1.9-.7 4.4-1.5 5.4-.8 1.1-1.5 3.8-1.5 6-.1 2.3-.7 5.2-1.5 6.6-.8 1.4-1.4 4-1.5 5.9 0 1.8-.6 5.4-1.4 8-1.7 5.4-3.5 12.6-4.8 19.6-.5 2.7-1.3 5.4-1.8 6-.4.5-1 3-1.4 5.4-.8 5.2-3.3 10.4-4.8 9.9-1.3-.5-3.6-8-4.7-15.3-.4-2.8-1.3-6.3-1.9-7.8-.7-1.6-1.2-4.3-1.2-6 0-1.8-.7-4.5-1.5-6.1-.8-1.5-1.5-4.3-1.5-6.1 0-1.8-.7-3.8-1.5-4.5-.9-.7-1.5-2.9-1.5-5.1 0-2.1-.5-5-1.1-6.6-1.2-2.9-3.2-11.5-5-21.2-.5-2.9-1.7-6.7-2.5-8.3-.9-1.8-1.3-4-.9-5.5.5-2-.2-3.2-3.3-6.4-3.3-3.2-4.6-3.9-8-3.9-5 0-10.2 3.9-10.2 7.6 0 1.4-.7 4.1-1.5 6.1-.8 1.9-1.5 5-1.5 6.7-.1 1.7-.7 4.2-1.5 5.6-.8 1.4-1.4 4.1-1.5 6 0 2-.7 4.5-1.5 5.7-.9 1.2-1.7 4.4-1.9 7-.2 2.6-.9 5.9-1.5 7.3-.6 1.4-1.5 5-2.1 8-1.7 9-3.7 17.3-4.9 20.3-.6 1.6-1.1 4.1-1.1 5.6s-.7 3.6-1.5 4.7c-.8 1-1.5 3.8-1.5 6 0 4.4-1.9 7-4.5 6-.9-.3-1.5-1.8-1.5-3.5s-.6-5-1.4-7.3c-.8-2.4-1.7-6.6-2.1-9.3-.4-2.8-1.1-5.6-1.7-6.2-.6-.7-1.2-3.5-1.4-6.3-.2-2.8-1-6.1-1.9-7.3-.8-1.2-1.5-3.7-1.5-5.7-.1-1.9-.7-4.6-1.5-6-.8-1.4-1.4-3.9-1.5-5.6 0-1.7-.7-4.8-1.5-6.7-.8-2-1.5-4.9-1.5-6.5 0-1.6-.7-4.6-1.5-6.5-.8-2-1.5-5.4-1.5-7.5 0-2.3-.6-4.5-1.5-5.2-.8-.7-1.5-2.4-1.5-3.9 0-3.1-.6-4-4.4-6.9-4.4-3.4-8.8-2.9-13.2 1.4zM122 205.7l-3.5 1.8-.3 78.7-.2 78.6 3.1 2.6c4 3.4 8.8 3.4 12.8 0l3.1-2.6v-29.3c0-27.9.1-29.6 2.1-32.9 1.1-1.9 3-3.8 4.1-4.2 2.7-.8 8.3.3 9.8 2.1 1.6 1.9 5 8.7 5 10 .1.5.9 2.8 2 5s1.9 4.6 2 5.3c0 .7.4 2 1 3 1.2 2.1 4 9.8 4.7 13.2.3 1.4 1.2 3.4 1.9 4.5.8 1.1 1.4 2.9 1.4 4.1 0 1.2.7 2.7 1.5 3.4.8.7 1.5 2.2 1.5 3.4 0 1.1.7 3 1.5 4 .8 1.1 1.5 3 1.5 4.2 0 1.3 1.6 3.8 3.7 5.9 2.7 2.7 4.4 3.5 7.1 3.5 4.1 0 9.8-3.5 10.6-6.5 1-3.7.6-9.1-.9-11.1-.8-1-1.5-2.6-1.5-3.4 0-.8-.9-3.3-2-5.5s-1.9-4.6-2-5.3c0-.7-.4-2-1-3-1.2-2.1-4-9.8-4.7-13.2-.3-1.4-1.2-3.4-1.9-4.5-.8-1.1-1.4-2.7-1.4-3.6 0-1-.7-3.1-1.5-4.8-.8-1.7-2.2-4.5-3-6.2-.8-1.7-1.5-3.8-1.5-4.8 0-.9 3.3-4.6 7.3-8.2 5.2-4.8 8.2-8.6 11-13.8l3.7-7.1v-34.9l-3.2-6.3c-3.5-6.6-15.8-19.8-18.6-19.8-.8 0-2.4-.8-3.4-1.7-1.6-1.5-5-1.7-25.1-2.1-20.9-.3-23.5-.2-26.7 1.5zm48.1 24.8c6.4 6.2 6.9 7.9 6.9 21.5 0 11.1-.2 12.3-2.5 16-1.3 2.1-4.2 5.1-6.2 6.5-3.5 2.3-4.6 2.5-15.3 2.5-17.1 0-16 1.7-16-24.7 0-28-.8-26.7 16.7-26.1l12.3.4 4.1 3.9zM227.7 204.9c-1.6.3-3.5 1.9-4.7 3.9-1.9 3.2-2 5.2-2 78.2v74.9l3.8 4.1 3.9 4h28.2c31.7 0 32.6-.2 36.1-7 1.6-3.2 1.7-3.9.4-7-.9-1.9-2.7-4.5-4.2-5.7-2.6-2.1-3.5-2.2-23.5-2.3H245l-1.1-2.7c-.6-1.6-.9-11.6-.7-25.5.2-19 .6-23 1.8-23.8.8-.5 9.4-1 19.1-1h17.7l3.6-4c4.7-5.2 4.9-9.5.7-14.2l-2.9-3.3-18.4-.3c-17.1-.2-18.4-.4-20-2.3-1.6-1.9-1.8-4.5-1.8-21.9 0-17.8.2-19.8 1.8-21.3s4.6-1.7 20.6-1.7c16.8 0 19.1-.2 22.6-2l4-2v-6.8c0-7.6-.5-8.7-4.3-10.1-3-1.2-55.1-1.4-60-.2zM320 205.1c-1.4.5-3.3 2.3-4.2 4-1.7 2.8-1.8 8.5-1.8 78.1v75l3.9 3.9 3.9 3.9h28.3c27.7 0 28.3 0 31.6-2.3 5.5-3.7 5.8-13 .6-17.4-2.5-2.2-3.2-2.3-23.4-2.3-20.3 0-20.8 0-22.3-2.2-1.3-1.9-1.6-6-1.6-24.3s.3-22.4 1.6-24.3c1.5-2.1 2.1-2.2 19.3-2.2h17.7l4.2-3.6c3.7-3.1 4.2-4.1 4.2-7.8 0-3.4-.6-4.8-3.1-7.2l-3-2.9-18.7-.3c-17.5-.2-18.8-.4-20.4-2.3-1.6-1.9-1.8-4.5-1.8-21.3 0-15.7.3-19.6 1.6-21.4 1.5-2.1 2-2.2 20.6-2.2 22.6 0 26.1-.9 27.9-7.1 1.5-4.7.5-10.1-2.2-12.5-2-1.8-4.2-1.9-31.3-2.1-16.5-.1-30.2.2-31.6.8zM759.5 204.7c-3 .8-4.4 2.2-6.1 6.1-1.2 2.9-1.4 15.1-1.4 76.4 0 79.3-.2 76.1 5.6 80.7 2.6 2 3.8 2.1 31.1 2.1 27.6 0 28.5-.1 31.3-2.2 2.8-2 3-2.6 3-8.9 0-10.1-.4-10.3-26-10.9l-20.5-.5-1.7-3.5c-2.5-5.2-2.5-39.8 0-45l1.7-3.5 18-.3 18-.2 3.7-3.7c3.2-3.1 3.8-4.4 3.8-7.8 0-3-.7-5-2.5-7.1l-2.5-2.9-18.9-.3-19-.4-2-3.4c-1.9-3.1-2.1-5.2-2.1-18.7 0-14.1.8-19.5 3.3-23.5.6-.9 5.8-1.2 20-1.2 24.6-.1 26.1-.6 26.5-9.5.4-8.2-.2-10.1-3.9-11.4-3.2-1.1-55.1-1.4-59.4-.4zM851 205c-1.4.6-3.3 2.4-4.2 4.1-1.7 2.8-1.8 8.5-1.8 78.4v75.3l4 3.6 4 3.6h19.9c21.5 0 27.5-1 35.8-6.3 6.7-4.2 15.4-15.2 16.9-21.3.4-1.5 1.3-3.9 2-5.3 1-1.8 1.4-6.6 1.4-15.3 0-14.7-1.5-19.9-8.7-30.9-2.4-3.7-4.3-7.1-4.3-7.6 0-.4 1.2-2.4 2.8-4.3 1.5-1.9 3.5-5.2 4.5-7.3.9-2 2.5-5.4 3.5-7.4 1.3-2.8 1.7-6.3 1.7-15.7 0-9.9-.3-12.5-1.7-14.6-1-1.3-1.8-3.4-1.8-4.6 0-1.2-.7-2.7-1.5-3.4-.8-.7-1.5-1.8-1.5-2.5 0-2.2-11.8-13.3-17.2-16.1-5.3-2.7-5.5-2.7-28.3-3-13.6-.2-24 0-25.5.6zm41.2 21.6c4.4.8 10.1 5.8 12.5 11.2 2.1 4.9 2.2 17.5 0 22.2-1.9 4.2-8.1 10.3-12.2 11.9-1.9.7-7.1 1.1-13.5.9-13.5-.4-13 .6-13-23.8 0-23.8-.4-23 12.8-23 5.3 0 11.4.3 13.4.6zm5 71.7c2.5 1.9 5.3 5.3 6.8 8.2 2.2 4.4 2.5 6.3 2.5 15-.1 13.3-2.1 18-9.9 23-5.4 3.5-5.6 3.5-16.5 3.5-14.9 0-14.1 1.6-14.1-26.5 0-28.2-1-26.5 15-26.5 11.8 0 11.9 0 16.2 3.3zM131 403.5c-14.7 4.2-24.1 12.7-29.7 26.8-1.5 3.7-1.7 10.3-2 54.6-.4 48.1-.3 50.8 1.6 57 3.7 12.2 11.2 20.8 23.1 26.5 6 2.9 7.3 3.1 17.5 3.1 10.7 0 11.2-.1 18.5-3.7 9.4-4.5 15.7-10.7 20.1-19.5l3.4-6.8v-109l-2.9-5.8c-9.2-18.5-30.9-28.6-49.6-23.2zm19.1 25c1.5.8 4.1 3.2 5.6 5.2l2.8 3.6.3 48.1c.1 26.5 0 49.1-.3 50.3-1.4 5.8-10.4 12.2-17.3 12.3-4.6 0-10.6-3.3-13.9-7.7l-2.8-3.6-.3-47.6c-.1-26.2 0-48.6.3-49.8.8-3.5 6.5-9.4 11-11.5 4.4-2 9.7-1.8 14.6.7zM211.3 403.7c-6.7 3.3-6.5.7-6.1 72.8l.3 65 2.9 5.9c4.5 9.1 13.5 17.6 22.8 21.4 6.7 2.8 8.8 3.2 16.5 3.2 7.4 0 9.8-.5 15.5-2.9 8.3-3.5 13.2-7.4 18.7-14.5 8.2-10.6 8.1-9.5 8.1-81.2 0-62.5 0-63.2-2.1-65.8-2.5-3.1-6.9-5.6-10.1-5.6-3.7 0-9 3.4-11 7.1-1.7 3.2-1.8 7.2-1.8 63.9 0 56.6-.2 60.8-1.9 64.5-2.2 4.8-4.4 6.9-9.4 9-7.5 3.1-14.5 1.1-20.2-5.9l-3-3.8-.5-63.1c-.6-70-.2-66.1-7.2-69.8-4.4-2.3-7.2-2.3-11.5-.2zM320.3 403.5c-6.6 2.8-6.3-.6-6.3 83.5 0 54.6.3 76.8 1.1 78.3 4.8 9.3 18.5 8.8 22.5-.9 1.1-2.7 1.4-12.2 1.4-47.9 0-24.5.3-44.5.8-44.5.4 0 5.4 9.8 11.2 21.8 27.2 56.6 36.1 74.1 38.6 76.1 1.8 1.4 4.1 2.1 7.3 2.1 5.7 0 10.3-3.7 12.1-9.6.8-2.8 1-24.8.8-77.4-.3-69-.4-73.8-2.1-76.3-3.9-6-11-8.2-16.7-5.2-5.5 2.8-5.5 2.4-6 51.4-.4 33.3-.8 45.5-1.7 45.8-.6.2-3.1-3.7-5.6-8.9-2.5-5.1-5.8-12-7.4-15.3-1.6-3.3-9.5-19.7-17.6-36.4-8.1-16.6-15.7-31.5-16.8-33-4-5.1-9.3-6.4-15.6-3.6zM579.3 403.5c-4.7 2-6.3 5.2-10.9 22.4-2.3 8.6-5.5 20.3-7.2 26.1-1.7 5.8-5.1 18.4-7.7 28-2.5 9.6-5 18.6-5.6 19.9-.5 1.3-2.6 8.5-4.5 16-4.2 16.1-6.8 25.6-9 33.1-.9 3-1.9 7.6-2.1 10.1-.4 4.3-.2 4.9 3.5 8.8 3.4 3.6 4.4 4.1 8.3 4.1 3.4 0 5.2-.7 7.7-2.8 2.9-2.3 3.8-4.5 7.2-16.6 2.2-7.7 4.6-14.3 5.2-14.8.7-.4 10.3-.7 21.3-.5l20 .2 1.7 5.5c1 3 2.7 9.3 3.9 14 2.8 10.9 6.5 15 13.6 15 5.8 0 10.8-3.5 12.2-8.6 1.1-3.9 1.4-2.3-6.8-31.4-7.3-26-17-60.8-18.1-65-.5-1.9-2.5-9.4-4.6-16.5-2-7.2-5.2-18.9-7.1-26-4.2-15.8-4.9-17.3-9.2-20.2-3.9-2.6-7.2-2.8-11.8-.8zm8.2 68.2c.9 3.2 2.5 9.2 3.7 13.3 1.1 4.1 3.1 11.1 4.4 15.6 3 9.9 3 11 .2 11.8-3 .8-19.6.8-22.5 0-2.9-.8-2.9-2.4.3-13.1 3.5-11.7 8-27.1 8.8-30.6 1.1-4.5 3.3-3.2 5.1 3zM754 404.2c-1.9 1.3-4 3.5-4.7 4.8-1 1.9-1.3 19.7-1.3 78.5 0 83-.3 77.8 5.5 82.7 2.8 2.4 10 2.3 13.5-.2 6.2-4.4 6-1.5 6-82.4 0-60.2-.3-74.3-1.4-76.9-3.3-7.8-11.3-10.8-17.6-6.5zM826.8 403.5c-11 3.1-22.5 12.5-27.6 22.7-4 8.2-4.3 13.4-4 65.2l.3 49.2 3.5 6.9c4.7 9.3 12.2 16.8 20.7 20.7 5.7 2.7 8.3 3.2 16.4 3.6 8.1.4 10.6.1 15.3-1.7 16-6 26.3-18.4 28.6-34.6 1.3-9.4 1.3-89.2-.1-97.5-1.4-8.9-4.9-16-10.8-22.3-10.9-11.5-27.4-16.3-42.3-12.2zm19.7 25.4c3.6 2.1 7.1 7 8.5 12 .6 2.1 1 20.7 1 46.2 0 48.5-.2 50.1-6.9 56.2-4.4 3.9-8.6 5.2-13.9 4.2-5.6-1-9-3.2-12-7.7l-2.7-4.2-.3-44.5c-.2-24.5 0-46.5.3-48.7 1.1-7.8 5.6-12.7 14.5-15.8 2.3-.8 8.2.4 11.5 2.3zM909.2 403.5c-6.4 2.8-6.2.3-6.2 84.5v76l3.6 4c3.3 3.6 4.1 4 8.4 4 5 0 8.9-2.2 11.3-6.3.9-1.6 1.3-13.9 1.7-47.1.3-31.4.8-45 1.6-45.3.6-.2 1.9 1.8 2.9 4.4 1 2.6 3.9 9.1 6.6 14.3 2.7 5.2 9.4 18.9 14.9 30.5 17 35.2 22.4 45.6 24.9 47.6 3.3 2.6 10.4 2.5 14.1-.1 1.6-1.1 3.5-3.6 4.1-5.5.7-1.9 1.7-3.5 2.1-3.5 1 0 1.1-147.7.1-148.2-.5-.2-1.5-1.6-2.3-3.3-1.9-3.6-7.4-7.5-10.6-7.5-3.7 0-8.9 3-10.8 6-1.4 2.5-1.6 7.8-1.6 47.9 0 24.8-.4 45.1-.8 45.1-1 0-4.2-3.3-4.2-4.3 0-.4-4.2-9.4-9.4-20-11.3-23.2-26-53.5-28.9-59.7-6.6-13.9-12.3-17.5-21.5-13.5zM16.4 406c-1.8 1.2-3.7 3.3-4.3 4.8-.8 1.9-1.1 24-.9 78.5l.3 75.9 3.7 3.4c3.2 2.9 4.5 3.4 8.6 3.4 4.2 0 5.2-.5 8.3-3.6l3.4-3.5.5-33.7.5-33.7L55 497c20.4-.6 21.8-.9 24.6-6.9 2.9-6 .6-13.3-4.9-16.3-1-.5-9-.9-17.6-.9-8.7.1-17-.3-18.5-.8L36 471v-20.2c0-11.2.5-21 1-21.8.8-1.2 4.4-1.5 21.1-1.7 22.4-.1 23.3-.4 27.3-7.2 1.6-2.8 1.7-3.8.7-7.1-.6-2.1-2.5-5-4.2-6.4l-3.1-2.6H49.2c-28 0-29.9.1-32.8 2zM438.5 407.4c-1.9 2.1-3.5 4.9-3.8 7.3-1.1 6.1-.8 142.3.3 146.8.6 2.5 2.2 5.2 4.4 7.2l3.6 3.3h43.1l7.5-3.1c13.3-5.5 22.6-16.4 25.4-29.6.7-3.2 1-22.7.8-54.9l-.3-49.9-2.8-5.9c-3.6-7.8-8.5-13.6-14.9-17.8-9.5-6.2-12.5-6.8-37.6-6.8h-22.5l-3.2 3.4zm43.1 21.1c5.6 1.6 10.5 6.1 12.8 11.7 2.3 5.5 2.4 88.4.1 94.9-3.3 9.4-9.6 12.8-23.2 12.9-8.4 0-9.3-.2-10.7-2.2-1.4-2-1.6-9.2-1.6-58.8 0-31.1.4-57 .8-57.6.4-.6 1.4-1.4 2.2-1.7 3-1.1 14.8-.7 19.6.8zM646.8 406.3c-6 5.1-6.6 12.1-1.4 17.3 3.6 3.6 3.4 3.6 18.1 3.5 4.4-.1 8.6.3 9.3.7 1.1.7 1.3 13 1.2 65.6 0 44.3.3 65.9 1 68.7 1.6 6 6.3 9.9 11.8 9.9 2.3 0 5.4-.8 6.9-1.7 5.3-3.5 5.3-2.9 5.3-74.7 0-64.8.1-66.6 1.9-67.6 1.1-.5 6.9-1 12.9-1 12.2 0 15.1-1.2 17.7-7.4 1.8-4.2.8-8.1-3-12.2l-3.2-3.4h-37.9c-37.8 0-37.9 0-40.6 2.3z"/></svg>
