<svg class="greenweb" xmlns="http://www.w3.org/2000/svg" width="400" height="400" viewBox="0 0 400 400"><path fill-rule="evenodd" clip-rule="evenodd" fill="#6ABE4C" d="M241.824 139.202c11.021 0 19.949 8.937 19.949 19.957 0 11.02-8.929 19.954-19.949 19.954s-19.957-8.934-19.957-19.954c0-11.02 8.937-19.957 19.957-19.957zm-83.37 0c11.021 0 19.95 8.937 19.95 19.957 0 11.02-8.93 19.954-19.95 19.954-11.027 0-19.957-8.934-19.957-19.954.001-11.02 8.93-19.957 19.957-19.957zm-34.251 70.554c0-4.553 2.024-6.207 3.92-6.207 1.902 0 5.439 1.512 5.439 7.204 0 10.955 24.622 51.761 66.574 51.761s66.573-40.806 66.573-51.761c0-5.692 3.538-7.204 5.44-7.204 1.895 0 3.921 1.654 3.921 6.207 0 29.446-31.404 70.509-75.935 70.509-44.531 0-75.932-41.063-75.932-70.509zm75.933 103.358c-62.397 0-112.979-50.583-112.979-112.979S137.739 87.156 200.136 87.156c62.395 0 112.979 50.582 112.979 112.979S262.53 313.114 200.136 313.114zm0-243.246c-71.945 0-130.268 58.322-130.268 130.267s58.323 130.268 130.268 130.268c71.943 0 130.268-58.322 130.268-130.268S272.079 69.868 200.136 69.868zm0 293.646c-90.232 0-163.379-73.147-163.379-163.379S109.903 36.756 200.136 36.756c90.229 0 163.379 73.147 163.379 163.379s-73.15 163.379-163.379 163.379zm0-363.514C89.604 0 0 89.603 0 200.135c0 110.531 89.604 200.136 200.136 200.136 110.53 0 200.136-89.604 200.136-200.136C400.271 89.603 310.666 0 200.136 0z"/></svg>
