<svg version="1" xmlns="http://www.w3.org/2000/svg" width="70" height="70" viewBox="0 0 1000.000000 1000.000000"><g fill="#969A9E"><path d="M0 500v500h1000V0H0v500zM756.4 84.5c12.9 2.7 23 10.9 29 23.5 2.9 6 3.1 7.3 3.1 17 0 9.4-.3 11.1-2.8 16.4-1.5 3.3-4.4 8-6.4 10.4-4.1 5-13.8 11.7-18.3 12.7-2 .4-3.2 1.4-3.5 2.8-.2 1.2-1.4 7.1-2.6 13.2-5.9 30.3-18.9 61.8-36.7 89-11 16.8-21.9 30-36.8 44.5-41.5 40.3-92.7 64.8-150.9 72.1-14.6 1.8-47.4 1.6-62.5-.5-37.1-5-74.8-18.4-104.5-37.1C301 309.2 257.6 245.3 245.1 174l-1.7-9.4-6.7-3.4c-8.4-4.3-16.7-12.9-19.8-20.9-1.9-4.6-2.3-7.7-2.3-15.3 0-12.3 2.4-18.7 10.1-27 20.1-21.8 55.5-16.6 68.6 10 3 6 3.2 7.2 3.2 17s-.2 11-3.2 17c-3.6 7.4-10.5 14.7-16.9 18.2-5.3 2.8-5.3 3.1-1.9 18.3 9.6 42.1 29.6 79 60 110.4 37.1 38.3 82.8 61.3 137.5 69.2 11.1 1.6 46.1 1.6 57 0 61.6-9 111.8-36.7 150.4-83.1 21.9-26.3 39.1-61 46.9-94.5 4.1-18 4.1-17.2.6-19.1-8.1-4.2-16.5-14.7-19.3-24.3-5.8-19.7 3.9-41.5 21.9-49.7 9.5-4.4 16.4-5.1 26.9-2.9zm40.4 646.7c9.1 5.5 8.7 20.7-.8 26.2-10 5.8-23-1.6-23-13.1 0-12.8 12.6-19.8 23.8-13.1zm-586.3 1.3c25.4 5.4 40.3 25.8 38.2 52.4-1.1 14.4-7.2 26.4-17 33.9-11.6 8.8-17.2 10.3-42.2 11.1l-20 .6-.3 29.7-.2 29.8h-45v-22.9l9.8-.3 9.7-.3v-112l-9.7-.3-9.8-.3V731h39.8c31.1 0 41.2.4 46.7 1.5zm647.7 66.2l.3 67.8 8.8.3 8.7.3V890h-43V754h-18v-23h43l.2 67.7zM536 763.5V775h21v22.9l-10.2.3-10.3.3-.3 33c-.1 18.1 0 34 .3 35.1.5 2.1.6 2.1 8.7.8 13-2.1 11.8-3.1 11.8 10.1 0 13 1.2 11.5-10.4 13.5-17.8 3-28-.8-33.3-12.5-1.6-3.6-1.8-8-2.1-42.3l-.3-38.2H493v-23h18v-10.8c0-6 .3-11.2.7-11.5.3-.4 6-.7 12.5-.7H536v11.5zM308.2 773c14.2 2.1 24.3 8.3 29.6 18.4l2.7 5.1.5 35 .5 35 8.3.3 8.2.3V890h-42v-6.8l-7.8 3.4c-13.6 5.9-28.3 6.4-38.9 1.3-6.7-3.2-13.9-10.3-17.2-17-10.3-20.6.7-44.8 23.7-51.9 8.6-2.7 24.1-2.7 33.5-.1l6.7 1.8v-9.4c0-9-.1-9.6-2.8-12.3-6.1-6.1-17.3-6.6-32.9-1.5-5.9 1.9-10.8 3.3-10.8 3.2-.5-.8-6.5-16.5-6.7-17.6-.4-1.8 8.6-5.5 20.7-8.7 10-2.6 14.8-2.8 24.7-1.4zm409.9.4c4.2.8 9.7 2.3 12.2 3.4 6.4 2.8 13.1 9.3 15.8 15.5 2.3 5.1 2.4 6.1 2.9 39.7l.5 34.5 8.3.3 8.2.3V890h-42v-6.8l-7.8 3.4c-23.8 10.3-46.5 3.7-56.4-16.4-3-6.1-3.3-7.4-3.2-15.7 0-7 .5-10.1 2.2-13.9 4.7-10.5 13.6-18.1 25.3-21.7 8.3-2.6 24-2.6 33.2 0l6.7 1.8v-9.4c0-9-.1-9.6-2.8-12.3-6.1-6.1-17.3-6.6-32.9-1.5-5.9 1.9-10.8 3.3-10.8 3.2-2.6-5.3-7.3-18.3-6.7-18.8 1.4-1.4 11.8-5.1 20.7-7.5 10.4-2.7 16-2.9 26.6-1zm-325.8 6.3c5.6 15.4 27.3 67.1 27.8 66.5.9-.9 17.9-45.8 17.9-47.2 0-.6-2.6-1-6-1h-6v-23h56v23h-17.7l-9 23.7c-5 13.1-16.6 43.9-25.9 68.5L412.5 935h-24.4l5-14.3c2.8-7.8 7.1-20.1 9.6-27.2l4.6-13-16.3-40c-9-22-16.8-40.6-17.3-41.3-.6-.8-3.9-1.2-9.8-1.2H355v-23h35.6l1.7 4.7zm219.7.8c0 3 .2 5.5.5 5.5s2.7-1.4 5.4-3c9-5.6 15.3-7.2 28.6-7.4l12-.1.3 11.1.3 11.2-12.3.4c-10.8.4-13 .8-18.5 3.2-7.4 3.4-13.7 9.7-15.2 15.2-.6 2.3-1.1 13.7-1.1 27.1V867h20v23h-45l-.2-45.8-.3-45.7-9.2-.3-9.3-.3V775h44v5.5zM804 821v46h17v23h-42l-.2-45.8-.3-45.7-8.7-.3-8.8-.3V775h43v46z"/><path d="M169.5 755.2c-.3.7-.4 12.6-.3 26.3l.3 25 12 .3c14.9.3 23.4-.9 30.5-4.5 4.5-2.3 5.9-3.8 8.3-8.3 2.7-5.1 2.9-6.1 2.5-14.5-.4-10.4-3-16.4-8.7-20.2-5.5-3.7-9.7-4.5-27.3-5-13.7-.4-16.9-.3-17.3.9zm113.5 86c-11.3 5.8-12.9 19-3 25.6 6.9 4.7 22.2 1.5 32.3-6.8 3.6-3 3.7-3.4 3.7-9.4v-6.3l-5.2-2.3c-3.8-1.6-7.9-2.4-14.3-2.7-8-.4-9.5-.2-13.5 1.9zm408 0c-11.3 5.8-12.9 19-3 25.6 7 4.7 22.7 1.2 32.9-7.3 2.9-2.5 3.1-3.1 3.1-9v-6.2l-5.2-2.3c-3.8-1.6-7.9-2.4-14.3-2.7-8-.4-9.5-.2-13.5 1.9z"/></g></svg>