<svg xmlns="http://www.w3.org/2000/svg" width="180" height="100" viewBox="0 0 3000.000000 2697.000000"><g fill="#969A9E"><path d="M2607.4 21.7c-23.9 28.8-42.9 54.9-87.9 120.3-57.5 83.7-81.1 114.2-116 149.9-59.4 60.8-115.2 94-202.5 120.6-95.1 28.9-205.3 43.7-371 49.7-43.1 1.5-220.1 1.5-296-.1-30-.6-90.7-1.4-135-1.7-77.5-.6-86.4-.5-236 3.5l-155.5 4.2-21.9 5c-49.1 11.4-104.5 27.1-156.1 44.4-70.4 23.5-119.8 43.7-179.5 73.6-82.6 41.4-149.7 86-215.5 143.3-20.7 18-67 64.4-86 86.1-77 88.3-140.6 192.2-197.1 322.2-30.3 69.7-61.7 157.2-88.9 247.8C16 1544.8-5.7 1742.1 6.5 1899c5.5 69.5 14.7 117.6 44.1 228 45.5 171.1 96.6 300.3 162.1 410.3l12.4 20.9 4.2-.7c20.8-3.5 46.3-17.7 64-35.8 15.5-15.8 26.2-31.4 51.2-74.2 17.5-29.9 21.8-36.7 34.5-53.5 73.1-97 174.7-178.9 276.5-222.8 84-36.3 188.3-55.3 341.5-62.2 49.9-2.2 140.2-2.7 382.5-2 251.8.7 254.1.7 265 2.8 24.6 4.6 41.7 5.7 93 5.7 29.4 0 54-.5 63.5-1.3 58-4.7 109.4-12.2 148-21.7 54.9-13.5 120.2-34.3 174.7-55.8 178.2-70.2 319.5-170.6 433.8-308.2 85.7-103.2 158.7-232.6 218.6-387.7 26.6-68.7 50.8-142.9 63.4-194.3 22.9-93.4 35.9-183.5 43.6-302.5 1.7-26.3 2.3-127.7 1-158.5-5-115.5-19.6-208.9-47.2-302.2-30.5-103-73-203.8-125.2-296.8-11.7-20.9-39.4-67-40.9-68.3-1.1-.8-48.2-9.2-51.7-9.2-.6 0-5.9 5.7-11.7 12.7zM1227 644.4c30 4.2 53.1 12.1 74.8 25.7 5.7 3.5 19.6 13.5 31 22.2 11.4 8.7 24.3 18.4 28.7 21.5 4.4 3 8.2 5.7 8.3 5.8.9.6 7.3 34.8 8.9 47.2 2.1 17 2.4 56.1.5 70.2-11.2 80.3-54.5 138.8-144.2 194.6-8 5-18 11-22.3 13.4-5.2 3-7.6 4.9-7.2 5.8.3.8 1.7 6 3.1 11.6 7.5 29.9 18 59.6 29 82.6 16.2 33.5 34.6 55.1 56.2 65.9 4.4 2.3 6.2 3.7 6.2 5.1 0 4.1-6.1 20.7-9.5 25.7-4.3 6.4-9 10.4-22.4 18.8-5.8 3.7-12.6 8.4-15.3 10.7l-4.8 4-11.5-1.2c-46.8-4.8-74.2-27.8-96-80.4-1.9-4.7-8.1-21.1-13.6-36.3-10.9-30.1-18.6-48-26.4-61.3-6.6-11.1-11.9-16.3-19.4-18.8l-6-2-5.2 12.6c-26.7 64.5-34.9 117.4-24.4 157.6 1.3 5 2.6 9.8 2.9 10.6.4 1.1-2.5 3.5-9.7 8.2-5.6 3.7-13.3 9.4-17.2 12.7l-7 6h-7c-3.8.1-11.5-.6-17-1.4-21.8-3.1-31.4-7.9-52-26-3.8-3.4-9.8-8.3-13.2-10.9-4-3-6.3-5.4-6.3-6.7 0-11.6 6.4-54 13-86.2 28-136.6 90.2-318.4 122.6-358.3l3.3-4.1-2.3-8.9c-3.9-15-4.5-15.6-17.3-22.4-6-3.1-6.3-3.5-6.3-7 0-6.2 3.1-22.1 5.7-29.5 3.6-10 7.7-16.8 14.7-24.2 12.9-13.9 27.3-20.9 64-31.4 23.8-6.7 41.2-13 51.9-18.5l10.2-5.3 19 .4c10.5.2 23.7 1.1 29.5 1.9zM2160.2 791c3.2.6 11.7 4.1 19 7.7 12.6 6.2 13.8 7 22.6 16.2l9.4 9.6-2.6 14.1c-7.7 42.7-25.1 87.4-78.1 200.9-23.2 49.7-31.6 68.7-41.6 93.5l-7.9 19.5 4.3.5c4.1.5 4.2.6 4.7 4.8l.5 4.2 6.4-3.7c25.1-14.9 48.7-44.8 59.6-75.6l2.8-7.7h16.3l4.9 5 4.8 4.9-1.2 13.8c-3.3 37.9-14.1 65.8-35.7 92.4-7.7 9.5-20.3 22.2-41.9 42.1-10.4 9.7-20.3 19-21.9 20.7-2.3 2.4-3.8 3.1-6.7 3.1-5.9 0-20.5-2.8-29.1-5.7-9.4-3.1-15.3-6.6-32.9-19.3l-13.2-9.5.7-17c2.1-54.9 10.1-105.1 25.2-158.3 20.7-72.6 51.9-140.9 106.4-232.5 13.3-22.5 15.5-25.6 17.4-25.2 1.1.2 4.7.9 7.8 1.5zm-609.6 144.8c5.4 5.3 10.5 9.2 16.2 12.2 4.5 2.5 9 5 9.8 5.6 1.1.7 2.7 5.8 4.5 14 5.7 26.1 6.3 31.7 6.2 61.6l-.1 27.8-3.9 4.4c-2.1 2.4-10.5 12.1-18.6 21.5-29.3 33.8-42.6 44.7-63.2 51.7-9.5 3.2-26.6 4.3-38 2.6l-7-1.1-4.3 4.2-4.4 4.2.6 9.5c.9 12.4 3.3 26.8 6 35.5 2.6 8.2 1.8 8 17.4 3.9 30.1-7.8 56.1-25.2 75-50.2l5.4-7.2h17.1l-.7 8c-1.7 20.1-6.3 38.3-13.7 53.9-9.3 19.6-18.6 30.2-51.8 58.9l-21.3 18.4-11.7-.7c-57.8-3.5-94.2-29.2-107.5-76-4.4-15.6-5.1-21.8-5.1-44.5.1-23.5 1.5-34.7 7.5-58 10.5-41.2 32.5-85.1 52.6-105.4 9.8-9.9 20.1-17.8 45.4-35.2 11-7.5 23.7-16.7 28.2-20.4l8.3-6.8 21.6-.1 21.7-.1 7.8 7.8zm245.9 2.7c30.3 4.6 52.3 15.4 67.4 33 5.4 6.4 12.5 20.7 15.3 31 2 7.1 2.2 10.5 2.2 30 .1 19-.2 23.6-2.2 33.5-5.7 28.7-14.1 54.1-30.6 92.2l-1.6 3.8h8v4c0 5.1 1 5.1 11 0 15.2-7.9 24.6-17.7 43.3-44.7 5.4-7.8 12.6-17.4 16.1-21.5 6.3-7.4 14.6-14.8 16.5-14.8 2.9 0 6.6 22.8 5.6 34.5-4.9 55.9-41.2 117.5-82.5 139.8-19.4 10.5-41.3 10.6-57.9.3-2-1.2-8-3.9-13.4-6-11.6-4.5-12-5-14.4-20.1-.9-5.8-2.2-10.5-2.8-10.5-.6 0-6 2.4-12.1 5.4-13.6 6.7-24.7 14.9-38.1 27.9l-10.3 10-14.8-.6c-26.1-1.2-41.9-6.1-53.4-16.6-3.2-2.9-9.9-11-15-17.9-5.1-7-11.6-15.6-14.5-19.2-5.9-7.2-5.8-6.7-4.3-22.1 6-60.4 25.2-109.8 59.1-151.9 12.9-16 32.3-35.5 67.4-67.5 17.6-16.1 32.9-30.2 33.9-31.3 2.4-2.7 7.7-2.9 22.1-.7zM721.1 1154c3.5 1.2 8.6 3.4 11.2 5.1 2.7 1.6 8 4.3 11.8 5.9 20.9 8.9 40.2 27.9 49.8 49.1 18.8 41.6 16.9 103.6-5.1 164.4-6.3 17.2-22.5 50-25.8 52-1.7 1.1-22.7-2.7-31.3-5.6-10.7-3.5-14.8-5.8-29.6-16.7-6.3-4.6-12.8-9.1-14.4-10l-2.9-1.7.6-10c1.7-25.5 5.9-43.1 17.4-72.5 4.4-11.3 9.4-25 11-30.5 3.3-11.3 5.8-24.2 4.9-25.2-1.3-1.2-17.1 2.7-20.9 5.2-2.1 1.4-6.2 3.4-9.1 4.5-7.8 2.9-20.8 10.7-28.7 17.3-9.8 8.2-21.5 23.3-36.3 47.1-7 11.3-15.7 24.6-19.3 29.5l-6.4 9v42.6l28.2 25.5c33.9 30.6 70.4 66.2 84 82 11.4 13.3 20.8 26.5 24.5 34.8 1.5 3.1 4.1 7.9 5.9 10.7 7.5 11.4 11.1 27.2 10 44-.4 5.5-1.7 18.2-3 28.1l-2.2 18.2-14.9 16.3c-51.1 56-88.2 87.1-126.5 106.2-24.5 12.1-46 17.7-68.6 17.7-24.8 0-44.6-6.4-67-21.6-5.3-3.5-12.3-7.6-15.6-8.9-14.9-6.1-33.1-21.6-43.6-37.3-10.3-15.5-14.6-31.4-12.4-46.5 1-7 2.2-10.4 8.9-23.7 4.3-8.5 9.6-18 11.9-21 7.6-10.3 19.2-16.9 38.9-22.1l11.2-2.9 17.9 17.8c24.9 24.8 39.7 35.2 61.2 43.1 19.7 7.3 34.9 2.5 67.5-21.3 6.8-5 14-10.3 15.8-11.7l3.3-2.6-1.7-13.4c-.9-7.4-2.8-17.5-4.2-22.4-3.5-12.1-12.1-29.5-19.3-39.1-8-10.6-23.6-25.6-40.6-38.9-43.5-34.2-55.8-47.3-67.2-71.4-3.1-6.4-6.2-13-7.1-14.6-10.3-19.4-12.7-28.3-12.7-47.5 0-16.4 2-27.5 7.9-45.6 28.6-86.3 127.9-181.8 201.1-193.4 9-1.4 24.1-.4 31.5 2zm1290.7 138.3l17.3 17.3-2.5 11.5c-10.8 51.3-41.7 119.9-69.3 154.2l-6.3 7.8v8.4c0 4.7.2 8.5.5 8.5 3.5 0 77.4-52.6 113.8-81 7.7-6 8.1-6 22.5-1.5 10.1 3.2 15.2 7 25.3 18.5 4.5 5.2 8.8 10 9.7 10.6 1.2.9 1.3 2.1.2 8.5-1.2 7.6-2.7 11.4-8 20.9-10.2 18-21.4 26.2-55.5 40.6-9.9 4.2-19 8.2-20.2 9-1.2.7-2.9 3.7-3.9 6.6-.9 2.9-2.9 6.8-4.3 8.7l-2.6 3.4v37.6c0 31.1.3 38.9 1.7 45.1 2.7 12.4 5.7 19 10.9 24.5l4.8 5 1.8-2.5c2.3-3.3 17.9-24 28-37 14.6-19 22.9-33 28.3-48l2.8-7.5 8.9-.3 8.8-.3 4.5 4.6 4.4 4.5-1.2 16.7c-2.5 34.8-10.3 60.2-25.9 84.2-11.1 17-19.5 26-62.9 66.8l-15 14.1-8.5-1c-19.7-2.4-32.1-7.1-52-20l-8.5-5.5-2.7-12.4c-6.9-31.9-8.1-45.9-7.4-82.4.4-16 1-30.2 1.3-31.8l.6-2.7h-18l-4 9.2c-6.2 14.2-12.4 30.5-23.7 62.8-15.6 44.6-20.5 57.4-28.7 75.2l-4 8.7-10.2-.6c-13.4-.7-22.4-2.6-29.4-6.1-3.1-1.6-11-4.6-17.4-6.8l-11.8-3.8v-6.6c0-9.6 2.7-36.9 5.6-56.5 9.5-63.9 29.5-130.5 62.6-208.5 12.4-29 26.1-58.9 54.5-118.5 12.1-25.3 24.4-51.3 27.3-57.8l5.4-11.7h35.1l17.3 17.3zm298.1 104.8c7.4.6 17.5 2.1 22.6 3.4 13.5 3.4 18.9 6.5 43.8 24.5l7.5 5.5.8 6.5c.9 7.9-.2 42.4-1.6 54-2.6 20.4-8.5 35.2-19.3 48-6 7.1-6.7 7.6-14.4 10.3l-8.2 2.9-3.3-2.5c-1.8-1.3-5.6-3.2-8.5-4.1-2.8-.9-5.4-2.3-5.7-3.1-.2-.7-1.3-7.5-2.2-15.1-1.6-13-1.6-14.7 0-32.3 1-10.2 1.9-19.1 2-19.6 0-.6-4.8-1-12.7-1h-12.9l-7.4 14c-7.7 14.7-14.2 29.9-16.9 40l-1.6 6 43.2 43.5 43.1 43.5-.7 5.2c-.9 7.6-5 22.3-8.5 30.7-3.9 9.2-10.5 19.3-21.5 32.6-6.6 8-19.5 24.4-21 26.7-.1.2-4.6 1.4-10 2.8-11.7 3.1-22.6 7.4-29 11.7l-4.7 3.1-13.1-.6c-21.9-1-39.5-5.1-54.2-12.5-7.9-3.9-10.1-5.4-30.6-19.9l-14.7-10.4.5-4.2c1.9-16.9 2.5-19.5 6.2-27.2 2.2-4.4 5.4-12.5 7.1-18 1.8-5.5 3.5-10.3 3.9-10.7.3-.3 6.9-.2 14.6.3 23.1 1.4 29.7 4.4 40.5 18.1 4.8 6.1 5.7 6.8 8.9 6.8 6.6 0 22.5-2.8 30.9-5.5 9.6-3 9.5-2.8 5.3-14.5-5.9-16-13.1-25.1-33.4-41.9-25.4-21-33.9-32.3-39.2-52.1-1.9-6.8-5.3-14-6.7-14-1.7 0-.7-3.7 2.1-7 2.1-2.7 3-5 3.5-9.9 2-17.4 10.4-39 20.4-52.1 7.6-10.1 20.7-21.8 40-35.9 9.7-7.1 21.5-16.1 26.2-20 9.7-8.1 7.9-7.7 28.9-6zm-587.2 17.9c6.3.8 10.1 2.2 20.1 7.1 10.1 4.9 13.7 7.4 19.9 13.2 24 22.8 31 53.3 17.8 77.5-2 3.5-3.5 7.7-3.5 9.5 0 6.5-3 23-5 27.5-2.7 6.1-4.6 8-16.5 17-6.2 4.6-12.2 8.2-15.7 9.4l-5.7 2-3.3-2.5c-1.8-1.3-5.6-3.2-8.5-4.1-4.6-1.5-5.3-2.1-5.7-4.9-.3-1.8-1-6.2-1.6-9.8-2-12.9-1.5-14.9 5.9-24.8l4.1-5.5V1500h-16.9l-4.1 8.7c-2.3 4.9-8.8 19.1-14.5 31.8-18.6 41.5-29.3 62.6-38.8 76.5-2.9 4.1-3.1 5-2.9 12 .5 13.4 5.2 39.1 8 43.7.6.9 3.4.9 11.2.2 33.6-3.1 52.1-14.3 70.1-42.5l5.4-8.3 8.8-.1h8.7v6.9c0 3.8-.9 12-1.9 18.3-8.2 47.7-35.3 89.9-67.2 104.7-18.6 8.7-39.1 8.1-57.2-1.7-11-5.9-14.4-7.6-24.9-12.6-16.1-7.7-22.2-15.8-28.4-37.6-1.8-6.2-4.2-11.7-7.1-16.2-28-43.3-20.9-96.7 20.5-154.3 21.8-30.3 48.6-58.2 97.7-101.4 17.9-15.7 16.2-15 31.2-13.1zm-309.7 28.6c14.3 12 26.2 22.4 26.4 23.3 1.2 3.7 3.6 19.9 4.6 29.9 4.4 46.6-5.5 91.6-26.2 119l-4.8 6.3v17c0 10.9.4 16.9 1 16.9s4.1-1.5 7.8-3.4c21.9-11 43.3-35.8 65.5-75.9l3.8-6.7h17.7l1.8 5.2c.9 2.9 2.8 6.8 4.2 8.6 2.3 3 2.4 3.8 1.8 10-2 20-8.4 41.1-18.2 60.2-12 23.3-22.6 36.2-59.8 72.6l-26 25.6-9.6-.7c-23.7-1.6-34.2-4.1-43.9-10.6-6.8-4.5-13.8-13.2-19.7-24.5-2.2-4.1-4.5-7.4-5.2-7.4-3.3 0-27.1 11.9-44.5 22.3-10.5 6.3-22.1 12.5-25.7 13.7-14.8 5-31.7 0-61.3-18.3-15.2-9.4-15.1-9.3-17-21.8-3.3-21-3.9-31.1-3.4-53.4.6-29.3 4-47 13.4-71.5 16-41.7 38.6-69.9 111.8-139.8l19-18.1 30.3-.1h30.2l26 21.6zm-372.1-9.6c12.3 4.8 19 9.5 34.6 24.7 8 7.9 15 14.3 15.6 14.3 2.5 0-.9 28.7-6.1 49.7-5.9 24.3-13.5 44.5-32.8 86.8-5.2 11.5-11.9 26.6-14.8 33.5l-5.3 12.5 4.2.5c2.3.3 5.8 1.7 7.7 3.1 2.7 2 11.7 5.9 13.7 5.9.1 0 2.3-4 4.7-8.9 13.9-27.5 30.8-52.4 45.7-67.1 5.5-5.5 7.6-6.9 12.8-8.5l6.2-1.9 4.7 4.7 4.6 4.6-1.2 12.3c-4 39.6-22.3 86.7-46.3 119.1-21.1 28.5-43.4 43-66.4 43-10.7 0-18.1-1.9-28-7.2-3.9-2.1-12.8-5.7-19.7-8l-12.5-4.2-3.2-15.2c-13.8-67-8.9-105.6 17.1-136.8l3.8-4.5V1561h-17.7l-3.8 5.7c-2.1 3.2-11.1 15.5-19.9 27.3-44.3 59-48.7 68.5-59.1 126.8-3.9 22.3-7.3 36.2-10.4 43.6l-2.1 4.8-6.3-.7c-17.7-1.8-26.9-4.4-44-12l-10.5-4.7-1.1-9.2c-3.8-32.3-1.5-66.9 7.5-109.6 11.2-53.8 36.3-123.1 65.8-181.9l5.8-11.4 12.6.6c13.6.7 20.4 2.2 29.2 6.7 3 1.6 8.1 4 11.3 5.5 13.4 6.2 15.5 10.2 16.4 31.8l.6 15.5 38.6-34.4c21.2-18.9 39-34.4 39.4-34.4.4 0 4.3 1.4 8.6 3z"/><path d="M1197.6 763.6c-19 23.8-34.5 50.7-51.9 89.9-8.1 18.4-43.7 106.7-43.7 108.4 0 .6 1.8 1.1 4 1.1h4v4c0 2.2.2 4 .5 4 2 0 22.4-8.2 32-12.9 36.1-17.7 63.3-42.5 102-93.1 14.1-18.4 31.6-41 35.8-46.2l3-3.7-1.7-8.8c-2-9.6-5.8-21-8.8-26.3-1.2-1.9-5.2-8.6-9.1-14.8l-6.9-11.2h-51.5l-7.7 9.6zm316 247.5c-2 2.7-8.1 9.7-13.4 15.5-13.2 14.4-17.4 20.3-22.4 31.1l-4.3 9.3h-8.5v8.5c0 4.7.1 8.5.3 8.5 2.3 0 16.5-3.4 18.9-4.5 8.5-3.9 21.2-11.4 25.2-14.7 2.5-2.1 7.1-7.7 10.2-12.5 3.2-4.9 7.9-11.5 10.4-14.8 4.3-5.6 4.6-6.3 3.8-9.5-.6-1.9-1.3-6-1.6-9.2l-.7-5.8-7.1-3.4-7.1-3.4-3.7 4.9zm251.3 33.1c-29.7 29.4-37.3 38.1-45.6 52.7-5.3 9.3-7.6 16.1-10.8 32.1-1.6 8.1-3.6 14.7-5.6 18.7-3.2 6.2-3.2 6.4-2 13.5.6 4.1 2.4 9.9 4.1 13.2 1.8 3.5 3 7.4 3 9.7 0 2.2.3 3.9.6 3.9s3.5-1.4 7-3c19.1-9.2 46.3-37.3 63.3-65.3 25.1-41.7 32.6-80.1 19.4-100.5-1.5-2.3-3-4.2-3.3-4.2-.3 0-13.9 13.2-30.1 29.2zm-397.4 456.6c-10.8 1.8-27.3 9.1-38.3 17-9.1 6.5-21.6 19.2-29.1 29.8-7.9 11.2-19 33.5-23.6 47.8-6.1 18.6-10.5 44.8-10.5 62.1 0 4.1.4 7.5.9 7.5 2.3 0 15.2-4.5 20.6-7.3 41.4-20.8 74.7-80 81.5-144.9.7-5.9 1-11.1.8-11.6-.1-.4-1.2-.6-2.3-.4zm1580.9-869.3c.8 28.3 1.6 43.7 5.6 100 1.6 23.1 3.5 50.3 4.2 60.5 1.7 25.3 1.7 110.1 0 128.5-3.2 33.6-6.4 51.9-18.9 106-69.3 301.6-148.8 510.1-254.8 668.5-40.6 60.6-78.6 107.2-127 155.5-47.6 47.5-94.5 85.8-150.5 123-42.9 28.5-76.2 47.6-123.5 71-96.5 47.7-200.2 84.5-326 115.6l-32 7.9-148.4 4.5c-146.8 4.5-148.9 4.5-206 3.5-31.7-.5-65.2-1.2-74.6-1.5-36.3-1.2-162.3-4.5-207.5-5.5-275.1-5.8-433.5 11.3-562.5 60.7-113.4 43.5-208.8 111.5-267.8 191.1-4.2 5.7-12.9 18.3-19.3 28-45.9 70.2-52 78.9-68.6 98.7-10.8 12.8-30.8 31.8-41.9 39.7-12.2 8.8-28.9 17.1-41.2 20.5-5.3 1.5-9.7 3.2-9.7 3.8 0 1.9 6.8 15.4 10.8 21.2 5.7 8.3 18.9 20.6 32.2 29.7 15.8 10.9 24.6 17.4 29.8 21.8l4.3 3.8h61.5l11.6-12.8c14.7-16.3 32.8-37 70.8-81.2 74.4-86.5 113.5-125.7 163-163.7 113.7-87.1 252.9-126.3 480.5-135.3 34.5-1.4 145.1-1.4 192.5-.1 45.2 1.3 73 2.4 164.5 6.1 131.6 5.4 164.4 6.4 237.5 7.5 43.2.7 115.9-.7 156-3 109.8-6.4 189.7-19.9 266.2-45.1 140.2-46.1 259.2-108.2 358.8-187.2 84.1-66.8 157-146.2 221.4-241.4 55.7-82.3 109.2-183.7 155.6-294.8 54.8-131.2 91.7-285.1 103.5-431.3 2.2-27.1 2.2-160.9 0-184.7-3.3-35.4-7.2-62.4-14-96.9-6.7-33.4-8.5-49.2-10.5-94.6-2.3-52.5-5.2-73.7-13-96-3-8.6-10-22.9-12.2-25-.7-.7-.9 6.2-.4 23z"/></g></svg>