<svg width="100" height="100" version="1" xmlns="http://www.w3.org/2000/svg" viewBox="0 0 1184.000000 983.000000"><g fill="#969A9E"><path d="M938.8 2.9l-3.3 2.9-.3 162.4c-.2 113 0 163.4.8 166 .6 2 2.2 4.6 3.7 5.7 2.5 2 3.8 2.1 39.4 2.1h36.9l3.2-2.9 3.3-2.9.5-52.8.5-52.8 26.9 48.4c14.8 26.7 28.5 50.9 30.3 53.8 6.1 9.7 3.2 9.2 55 9.2h45.3l1.6-2.5c.9-1.4 1.4-3.5 1.2-4.8-.2-1.2-18.2-30.4-39.9-64.7-21.8-34.4-39.8-63-40.2-63.7-.5-.7 15.3-25.4 39.3-61.3 22-33 40-60.7 40-61.5 0-.8-.9-2.4-2-3.5-1.9-1.9-3.3-2-44.2-2-38.3 0-42.6.2-45.8 1.8-3 1.5-7.7 8.8-35.5 55.1l-32 53.5-.5-91c-.3-50-.9-91.7-1.4-92.7-2.1-4.4-4.4-4.7-43-4.7H942l-3.2 2.9zM69 2.1C49.3 3.4 29 5.7 21.1 7.6c-7.4 1.6-13.8 5.5-16.7 9.9C0 24.2 0 24.1 0 172.6c0 91.5.4 143 1 146.5 2.9 15.2 11.5 20.1 40.9 23.3 34.7 3.8 93.9 4.6 115.6 1.6 61.7-8.5 94.3-33 103.8-78 2.9-13.9 2.8-38.4-.2-49.5-4.4-16.6-15.1-32.9-27.4-42.1l-6.5-4.8 4.1-2.6c7.6-4.8 17.5-16.6 22.2-26.5 5.5-11.6 7.4-19.3 8.2-33.5 1-20.1-1.9-38.1-8.7-52.5-13.1-28.2-38.7-43.3-85.8-50.6-11.6-1.8-19-2.2-49.2-2.4-19.5-.2-41.6.1-49 .6zm78.2 75.4c18.2 3.8 24.7 10.9 25.6 28 .6 12.6-1.4 19.4-7.6 25.6-7.7 7.7-10.6 8.2-44.9 8.7l-29.3.3V76h24.8c17.5 0 26.7.4 31.4 1.5zm-.7 125.5c3.3.5 8.8 2.4 12.2 4 11.3 5.6 15.7 13.9 15.7 29.5 0 15.3-4.3 23.4-15.6 29.1-8.8 4.5-16 5.4-43 5.4H91v-69h24.8c13.6 0 27.4.5 30.7 1zM305.4 2.4c-7 3.1-6.4-11.6-6.4 169.4v163.4l3.4 3.4 3.4 3.4h74.9l2.6-2.6c1.5-1.4 2.9-4 3.2-5.8.3-1.7.4-75.9.3-164.8L386.5 7l-2.8-2.7-2.7-2.8-36.3-.2c-29-.2-36.8 0-39.3 1.1zm155.2 67.5c-2.2.5-4.5 1.7-5.3 2.7-1.7 2.4-1.9 62-.2 65.8.7 1.4 2.5 3 4.2 3.6 1.9.6 19 1 47.6 1 26.8 0 46 .4 48.2 1 5.8 1.6 10.1 5.1 12.8 10.5 2.2 4.3 2.6 6.5 3 16.2l.3 11.3h-13.3c-65 0-101.8 14-115.8 44-5.2 11.2-6.5 17.8-6.4 34.5 0 22.3 3.8 36.1 13.8 50.1 10.8 15.1 31.2 26.3 57.5 31.5 18.6 3.6 36.9 4.3 91.5 3.3 56-1 54.1-.8 58.2-7.1 1.7-2.5 1.8-8.6 2.1-91.3.2-59-.1-91.2-.8-96.7-3.3-25.2-13-44.7-29-57.9-7-5.8-23.1-13.7-34.2-16.8-18.8-5.4-25.4-5.9-79.8-6.2-27.8-.1-52.3.1-54.4.5zM573 256.4v26.5l-5.6.7c-3.1.3-11.4.4-18.4.2-11.4-.4-13.4-.8-18.3-3.2-8.7-4.2-10.2-7.4-10.2-21.6 0-10.1.3-12 2.3-15.8 2.9-5.4 9-9.8 15.5-11.1 2.9-.6 6.1-1.3 7.2-1.5 1.1-.2 7.7-.4 14.8-.5l12.7-.1v26.4zM797.1 75.1c-9.8 1.2-24 5-32.5 8.8-10.8 4.9-19.7 11.3-28.7 20.9-16.3 17.2-25.5 39.4-28.8 69.4-1.4 12.6-1.4 60 0 72.6 5.8 52.8 32.1 85.4 77.8 96.4 7.8 1.9 12.5 2.1 51 2.5 31.4.3 43.1.1 45.2-.7 4.7-2 5.1-5.3 4.7-37.7l-.3-29.3-2.8-2.7-2.7-2.8-28.8.3c-17.4.2-30.9-.1-34.2-.8-10.8-2-18.3-10.1-21.6-23.2-1.7-6.4-1.9-11.3-1.9-38.8 0-27 .3-32.4 1.8-37.9 3.5-12.9 9.9-20.8 18.6-23 2-.6 17.7-1.3 35-1.7 30.6-.7 31.4-.7 34-3l2.6-2.2.3-29.8c.2-20.6-.1-30.6-.8-32.5-2.4-5.7-4.2-5.9-44.2-5.8-19.9.1-39.6.5-43.7 1z"/><path d="M789.8 387.7c-1.4.9-3.1 2.7-3.7 4-1.4 3-1.5 73.1-.1 76.7.5 1.4 2.1 3.3 3.7 4.3 2.4 1.6 6 1.8 37.8 2.1 37.6.4 40.9 0 44.4-4.5 2-2.5 2.1-3.8 2.1-40.5v-38l-2.9-2.9-2.9-2.9h-37.9c-33.4.1-38.1.2-40.5 1.7z" fill="#969a9e"/><path d="M75.5 391.1c-21 1.2-45.8 3.7-53.3 5.4-11.7 2.8-17.3 7.1-20.3 16-2.1 6.1-2.1 292.7 0 299.9 4.6 15.8 21.1 20 89.7 22.6 58.9 2.2 99.1-4.2 126.8-20 24.2-13.8 37.7-33.2 43.3-61.9 2.5-13 2.2-37.2-.5-47.3-2.4-8.7-7.7-20-12.7-26.8-3.4-4.7-12.8-13.9-18-17.8-2.6-1.9-2.8-2.3-1.3-3.2 13.1-7.9 25.2-25.1 30-42.9 1.7-6.2 2.1-10.6 2.2-24.6.1-18.3-1.1-27.3-5-38.8-7.8-22.8-25.2-39.5-51.3-49.4-27.8-10.5-72.6-14.3-129.6-11.2zm68.3 74.9c8.6 1.4 16.7 4.6 20.8 8.3 5.5 4.7 7.6 9.9 8.2 19.7.9 16.9-3 25.5-14 30.9-8.4 4.1-17.7 5.1-45.5 5.1H91v-65h23.3c12.7 0 26 .5 29.5 1zm9 127.8c5.9 1.9 12 5.6 15 9.2.7.8 2.5 4 4 7 2.3 4.9 2.6 6.7 2.6 16 0 9.5-.2 11.1-2.7 16.2-4.2 8.7-10.8 13.3-22.9 16.4-4.6 1.1-13.4 1.7-32 2.1l-25.8.6v-70.5l27.8.4c24.4.4 28.4.7 34 2.6zm156.3-129c-1.9 1-4.3 3.4-5.3 5.3-1.7 3.2-1.8 9.2-1.8 128.7v125.4l3.4 3.4 3.4 3.4h74.4l2.9-2.9 2.9-2.9v-188l2.3-.6c1.2-.3 10.3-.8 20.2-1.1 9.9-.4 19.3-1.1 20.8-1.7 5.4-2.1 5.7-4.1 5.7-34.8 0-30.5-.3-32.5-5.5-34.8-1.9-.9-17.9-1.2-61.3-1.2-55 0-58.9.1-62.1 1.8zm701.3-.8c-23.1 1.9-38.6 7.9-49.9 19.4-8.2 8.3-12.6 16.4-16 30.1-4.2 16.5-4.5 24.1-4.5 120v91.7l2.9 2.9 2.9 2.9h74.2l3.2-2.9 3.3-2.9.5-88.9c.5-93 .5-91.8 4.8-96.7 4.1-4.6 8.7-5.6 26.2-5.6s22.1 1 26.2 5.6c4.3 4.9 4.3 3.7 4.8 96.7l.5 88.9 3.3 2.9 3.2 2.9h74.2l2.8-2.8c1.9-2 3.1-4.4 3.5-7.5.4-2.6.5-44.9.2-94-.6-98.9-.8-103.6-7-121.7-8-23.4-21.6-34.2-49.7-39.6-6.8-1.3-17.3-1.6-54-1.9-25-.2-50 0-55.6.5zm-520.5 5.9l-2.9 2.9v82.4c0 69.2.3 83.8 1.5 91.8 5.8 35.2 25.2 61.7 55.9 76 34.2 16 87.1 16 121.2.1 30.6-14.4 48.8-38.9 56-75.4 1.4-7 1.7-20 2.1-87.1.3-43.4.2-81-.2-83.4-.4-3-1.6-5.5-3.5-7.4l-2.8-2.8H643l-3.2 2.9-3.3 2.9-.5 82.9c-.5 81.4-.5 82.9-2.6 87.9-5 12.2-12.2 17.5-24.5 18.2-4.2.2-9.8.1-12.2-.2-6.1-.9-13.2-5.8-16.4-11.3-6.1-10.4-5.8-5.4-6.3-95.1l-.5-82.4-3.3-2.9-3.2-2.9h-74.2l-2.9 2.9zM790.2 515c-1.8 1.1-3.7 3.2-4.2 4.6-.6 1.6-1 40-1 102.7 0 98.4 0 100.3 2 103.5 1.1 1.8 3.2 3.7 4.7 4.3 1.6.6 16.2.9 38.9.7l36.4-.3 2.7-2.8 2.8-2.7.3-101.4c.1-65.1-.1-102.3-.8-104-.5-1.4-2.4-3.5-4.2-4.6-3.1-1.9-5.1-2-38.8-2-33.7 0-35.7.1-38.8 2z"/><path d="M755 843.1c-6.6 2.6-9.5 9.1-6.6 14.7 2.2 4.2 5.3 6.2 9.9 6.2 5.2 0 10.7-5.2 10.7-10 0-7.5-7.6-13.4-14-10.9zm218.9.7c-4.8 2.4-7.5 8-5.9 12.7 1.6 4.7 5.3 7.5 10.2 7.5 5.2 0 10.8-5.1 10.8-9.9 0-8.7-7.7-14-15.1-10.3zm-869.3 1.8c-.3.9-.6 23.5-.6 50.3 0 36.5.3 49 1.2 49.9 1.4 1.4 14.6 1.6 16.6.3 1.1-.7 1.3-6.7 1-31-.2-16.5-.2-30.1-.1-30.1s1.1 1.9 2.1 4.2c3.1 7.1 30.3 56.2 31.6 57 1.3.9 11.8 1 14 .2 1.4-.5 1.6-6 1.6-51.5v-51l-9.2.3-9.3.3.2 31c.3 30.2.2 30.9-1.5 26.9-.9-2.2-8.4-16.3-16.5-31.2L120.8 844H113c-6.2 0-7.9.3-8.4 1.6zM710 894.9c0 45.5.2 51 1.6 51.5 3.1 1.2 15.1.6 16.3-.8.8-.9 1-15.2.9-51.2l-.3-49.9-9.2-.3-9.3-.3v51zm78 0c0 57.6-.9 52.1 9 52.1 9.4 0 9 .7 9-14.9 0-13.4.1-13.8 2.5-16.1 1.4-1.3 2.7-2.2 2.9-1.9.2.2 4.3 6.9 9.1 14.9s9.6 15.3 10.7 16.2c1.6 1.4 3.8 1.8 10.7 1.8 9.1 0 11.9-.9 10.6-3.1-.5-.8-6.9-11.2-14.2-23.1L824.8 899l12.1-12.7c6.6-7 11.8-13 11.5-13.5-.3-.4-5.3-.8-11.2-.8h-10.7l-8.9 10c-4.9 5.5-9.4 9.9-10 9.7-.7-.2-1.2-8.3-1.4-24L806 844h-18v50.9zm220.2-26.5C998 878.9 998 878.9 998 883.9v5l5.8.3 5.7.3.5 19.5c.6 22.2 1.3 24.7 9.2 31.4 4.3 3.7 14.5 7.6 19.9 7.6h2.9v-16.6l-4.3-1.1c-2.3-.7-5.3-2.4-6.7-3.8-2.5-2.6-2.5-2.9-2.5-19.8v-17.2l6.8-.3 6.7-.3v-16.8l-6.7-.3-6.8-.3-.3-6.8-.3-6.7h-4.8c-4.8 0-4.8 0-14.9 10.4zM213.8 871c-6.6 1.1-14.6 5.8-18 10.4-5 6.9-6.1 12.8-5.6 30.5.5 17.4 1.2 20.2 7.2 26.9 5.6 6.2 12.3 8.7 23.1 8.7 10.2 0 16.5-2.2 22.2-7.7 6-5.8 7.7-11.5 8.1-27.5.5-16.8-.7-23.5-5.2-30-5.9-8.6-19.4-13.4-31.8-11.3zm14.4 19.9l3.3 2.9.3 14c.3 11.3 0 14.6-1.2 17.1-4.1 7.8-16 7.9-20.1.1-1.1-2.2-1.5-6.3-1.5-16.6v-13.6l3.4-3.4c2.9-2.9 4.1-3.4 8-3.4 3.6 0 5.2.6 7.8 2.9zM398.8 871c-10.8 1.9-19.3 9.2-22.3 19.3-2 6.9-2.1 31.5 0 38.3 1.9 6.4 7.3 12.8 13.9 16.2 4.5 2.3 6.3 2.6 14.6 2.7 7.9 0 10.4-.4 14.5-2.3 6.5-3 10.8-7.3 13.7-13.6 2.1-4.7 2.3-6.4 2.3-22.6 0-15.6-.2-18-2.1-22-5.5-12-19.8-18.6-34.6-16zm14.4 19.9l3.3 2.9.3 14c.3 11.3 0 14.6-1.2 17.1-4.1 7.8-16 7.9-20.1.1-1.1-2.2-1.5-6.3-1.5-16.6v-13.6l3.4-3.4c2.9-2.9 4.1-3.4 8-3.4 3.6 0 5.2.6 7.8 2.9zM574.3 871c-6.4 1.3-11.6 4.5-16.7 10-6.3 7.1-7.6 12-7.6 29 0 16.4 1.3 21.8 7 28.2 6 6.8 12.3 9.3 24 9.3 8.8 0 9.9-.2 15-3.1 5.3-3 13-11.9 13-15.1 0-.7-3.6-3.1-8-5.3l-8-4-2.3 3.8c-3.2 4.9-4.8 6.2-9 6.9-7 1.1-12.7-4.5-12.7-12.6V914l20.8-.2 20.7-.3-.1-10.5c0-9.3-.3-11.1-2.6-15.6-6.3-12.2-20.4-19.1-33.5-16.4zm14.3 20.4c5.9 5.9 5.1 6.6-8.1 6.6s-14-.7-8.1-6.6c2.9-2.9 4.1-3.4 8.1-3.4s5.2.5 8.1 3.4zM884.3 871c-9.9 2-18.9 9.6-22.3 18.7-1.7 4.5-2 7.8-2 19.7 0 18.6 1.3 23.3 8.3 30.1 6.1 5.9 12.8 8.5 22.1 8.5 7.7 0 12.2-1.3 17.5-4.8 4.2-2.9 11.1-11.4 11.1-13.9 0-.7-3.6-3.1-8-5.3l-8-4-2.3 3.8c-3.2 4.9-4.8 6.2-9 6.9-7 1.1-12.7-4.5-12.7-12.6V914l20.8-.2 20.7-.3-.1-10c0-7.9-.5-11-2.1-14.6-5.8-13.1-20.3-20.7-34-17.9zm12.5 18.6c1.9 1.3 5.2 6.3 5.2 7.9 0 .3-5.2.5-11.5.5-13.2 0-14-.7-8.1-6.6 2.8-2.8 4.1-3.4 7.8-3.4 2.4 0 5.4.7 6.6 1.6zM299 927.5v55.6l9.3-.3 9.2-.3.3-19.7c.1-10.9.4-19.8.6-19.8.2 0 2.1.7 4.2 1.6 2.8 1.2 5.9 1.5 11 1.2 11.2-.7 19-6.2 23.8-16.8 1.7-3.9 2-6.6 2-19 0-8.6-.4-16.2-1.2-18.6-2.9-9.9-11.3-16.7-22.7-18.7-6.4-1.1-7.3-1-17.7 2-1.2.4-1.8 0-1.8-1.1 0-1.3-1.3-1.6-8.5-1.6H299v55.5zm38.4-34.6c3 3.1 3.1 3.4 3.4 13.8.6 16.8-2.3 22.3-11.5 22.3-3.8 0-5-.5-7.9-3.4l-3.4-3.4v-12.7c0-7 .5-13.5 1.1-14.6 3.4-6.4 12.8-7.4 18.3-2zM445 873.6c0 2.8 21.4 71.9 22.4 72.6 1.5 1 10.8 1 12.4-.1.7-.4 3.9-10.1 7.1-21.4 5.4-19.7 7.1-24.4 7.1-20.1 0 3.4 11.1 40.8 12.3 41.6 1.5 1 10.9 1 12.3 0 1.1-.8 22.4-69.6 22.4-72.5 0-1.6-1-1.7-9.2-1.5l-9.3.3-2.7 10.5c-1.5 5.8-3.8 15.1-5.1 20.8l-2.3 10.3-5.5-20.8-5.4-20.8-8.2-.3-8.2-.3-1 3.8c-.6 2.1-2.8 10.5-5.1 18.8-2.2 8.2-4 15.8-4 16.7 0 1-.4 1.8-1 1.8-.5 0-1-1.2-1-2.6 0-1.4-2.1-10.6-4.7-20.5l-4.6-17.9h-9.4c-7.8 0-9.3.3-9.3 1.6zm184 35.3c0 41.8-.9 38.1 9 38.1 9.7 0 9 1.8 9-23.7 0-18.8.3-23.1 1.6-25.9 2.3-4.8 6.5-6.8 12.4-6 3.8.5 4.9.3 5.4-1 1.1-2.9.7-15.9-.6-17.2-2-2-8.1-1.4-13.4 1.3-6.1 3.1-6.4 3.1-6.4 0 0-2.5-.1-2.5-8.5-2.5H629v36.9zm120 0c0 41.8-.9 38.1 9 38.1s9 3.7 9-38.1V872h-18v36.9zm220 0c0 32.7.2 37 1.6 37.5 3.1 1.2 15.1.6 16.3-.8.8-.9 1.1-11.6.9-37.2l-.3-35.9-9.2-.3-9.3-.3v37zm96.4 18.5c-4.2 1.9-6.4 5.3-6.4 9.9 0 5.1 5.2 10.7 9.9 10.7 5.9 0 9.4-2.9 11.5-9.3.7-2.3-1.5-7.6-4.1-9.9-2.7-2.5-7.3-3-10.9-1.4z" fill="#969a9e"/></g></svg>