<svg xmlns="http://www.w3.org/2000/svg" width="130" height="100" viewBox="0 0 2075.000000 592.000000"><path d="M175.8 2c-22.9 3.7-41.4 13.3-58.4 30.4C96.1 54 79.1 87.8 68.5 130c-3.3 13.1-8 38.4-8.7 46.5l-.3 4 9.9 1.2c5.5.6 13.2 1.4 17.2 1.8l7.2.7.7-5.4c3.1-24.5 9.8-55 16.5-74.1 11.5-33.5 26-50.4 41.3-48.4 16 2.2 16.2 19.6.7 108.2-18.2 103.8-61.9 311.2-70 332.4-3.4 8.9-9.8 18.2-15.1 22.2-10 7.6-19 9.9-39.6 9.9H13.1l-.7 3.7c-.4 2.1-3 15.4-5.9 29.7l-5.1 25.8 28.5-.6c74.2-1.6 105.1-1.7 162.5-.7 34 .7 62 1 62.2.8.4-.4 12.4-55.6 12.4-57.2 0-1-5-1.4-21.7-1.7-19.8-.4-22.3-.6-27.7-2.7-7.7-3.1-13-8.5-15-15.2-3.1-10.2-2.2-17.1 8.1-68.6 5.3-26.6 9.9-48.3 10.2-48.3.3 0 2.3 3.3 4.3 7.3 13.6 26.4 39.3 41.5 76.1 44.7 27.9 2.4 56.3-3.4 81.6-16.6 60.8-31.6 103.4-103.7 124-209.4 12.2-63.1 12.1-113.1-.4-150.7-11.7-35.2-33.3-56.3-66.3-65-8.3-2.2-12-2.6-25.7-2.7-17.8-.1-25.9 1-40.5 5.6-20.6 6.5-38.1 17.1-54.8 33.2-16.7 16.1-27.3 30.3-39.9 53.6l-6.3 11.5v-13c0-32.3-7.4-55-22.9-70.5C236.4 8.3 220 2.2 195 1.5c-7.4-.2-16.1 0-19.2.5zm196.7 55.2c12 2.4 19.8 11 23.2 25.7 2.2 9.2 2.4 38.4.4 55.6-6.4 55.5-19.2 116.7-33.3 159.5-15.9 48.4-34.1 76.1-57.6 87.8l-9.5 4.7h-14.1c-12.4 0-14.7-.3-18.8-2.2-23.3-10.8-28.6-41.9-18.8-110.4 12.3-86.2 37.6-157.7 68.9-194.6 17.8-21 38.9-30.3 59.6-26.1zM771 1.6c-26.4 3.4-52.1 13.3-72.9 28.2-11.7 8.3-29.6 25.4-39.5 37.5-38.4 47.6-63.6 116.8-74.1 203.7-2.3 18.9-3.1 54.6-1.6 69.5 6.7 65.3 36 100.1 88.8 105.4 24.8 2.5 51.9-3.1 75.1-15.4 13-7 23.5-14.8 35.7-27 15.5-15.4 27.1-31.1 37.6-50.9l4.8-9.1-.6 14.6c-1.3 30.9 4.4 52.1 17.9 66.5 12.5 13.3 27.1 19 55 21.5 69.1 6 121.2-45.6 139.2-138 2.9-14.6 5.2-34 4.4-36.2-.4-1.2-4.4-1.9-16.4-3.1-8.7-.9-15.9-1.6-16-1.5-.1.1-1.4 7.4-2.8 16.1-8.6 52.4-21.9 89.1-37 102.4-6.4 5.6-11.2 7.5-17.9 7-5.2-.4-6.4-.9-8.8-3.6-4.5-5-5.4-9.9-5.3-28.7.1-25 4-51.7 19.5-131.4 12-61.9 29.1-143.8 40-191.1 2.7-11.8 4.9-21.7 4.9-22 0-.3-13.1-.4-29.1-.3l-29.1.2-6.8 10.3c-3.7 5.7-10.2 14.5-14.4 19.7-9.3 11.7-35.8 41.3-36.3 40.7-.2-.2-1.3-4.5-2.3-9.5-8.5-41.4-31-65.1-69.5-73.2C804.7 2 778.7.6 771 1.6zM833.4 59c24.6 9.3 30.8 41 21 109-8.5 58.8-23.7 114.5-41.8 152.5-18.1 38-39 61.2-61.4 68.4-6 2-8.7 2.3-17.9 2-9.9-.4-11.3-.7-16.3-3.5-19.4-11-21.7-42.6-8.9-121.4 11.9-72.9 29-132.5 47.2-164.6C770 75.5 786.4 61.1 806 57c6.8-1.4 21-.4 27.4 2zm342.2-56.9c-22.9 3.3-42.2 13.5-59.1 31.1-10.1 10.4-15.8 18.1-23.3 31.1-15.7 27.5-28.4 69.2-33.7 111.3l-.6 5.1 16.7 1.7c9.1 1 17 1.4 17.4.9.4-.4 1.3-5.1 1.9-10.3 5.7-44.3 19.4-86.6 33.9-104.6 10.9-13.5 25.2-16.2 32.6-6.1 1.9 2.6 2.1 4.2 2 19 0 17.5-.5 21.1-8.5 69.2-13.2 78.7-52.5 271.4-67.9 332.1-6.3 25-16.1 37.8-33.5 44-3.7 1.3-9.5 1.9-22.9 2.3l-18 .6-5.7 29c-3.1 16-5.6 29.1-5.4 29.3.1.1 28.6-.2 63.4-.8 45.8-.8 80.4-.8 126.2 0 34.8.6 63.3.9 63.3.8.1-.2 2.8-12.5 6-27.3 3.2-14.9 6-28 6.3-29.3l.5-2.2h-19c-10.5 0-21.5-.5-24.4-1.1-11.3-2.4-19.6-9-22-17.4-2.7-9.4-1.4-19.8 8.6-69.4 5.3-26 9.6-47.6 9.6-48 0-.3 1.7 2.6 3.8 6.5 15.3 28.9 39.5 43.4 77.3 46.4 34.3 2.8 67.1-5.9 96.4-25.5 55.8-37.2 94-110.9 111.5-214.9 11.2-66.6 8-117.9-9.8-153.2-17.7-35.1-51.2-53.5-93.2-51.1-53.6 3.1-96.8 35.2-128.6 95.5l-4.4 8.3v-9c0-49.1-16.1-79-48.2-89.7-14.6-4.8-33.9-6.5-49.2-4.3zm203 57.3c6.6 3.1 9.8 6.4 13.5 13.9 4.4 9.3 5.2 17.3 4.6 42.2-1.6 59.5-24 164.2-45.6 212.6-15.8 35.3-33.7 55.1-55.5 61.4-9.1 2.6-26.3 1.8-33.6-1.6-10.1-4.8-17.2-14.4-20.6-28.1-2.1-8.8-2.9-35.7-1.5-51.4 5.3-57.5 21.7-127.1 40-169.9 20.4-47.3 45.6-75.7 72.6-81.5 7.1-1.6 20-.4 26.1 2.4zM1681 2.5c-44.5 7-78.7 42.8-98.5 102.9-2.9 8.8-6.7 22.5-8.4 30.3-3.4 15.5-7.3 43.4-6.3 44.5.6.5 28 3.8 31.9 3.8.6 0 1.4-2.3 1.8-5.3 1.5-12.4 5.8-36 8.5-47.2 7-29.3 16.4-51.2 27.1-62.9 12.9-14.1 29-16.6 35.4-5.6 1.6 2.8 2.1 5.7 2.4 14.4.7 20.7-1.6 31.8-24.4 122.1-21 83-21.8 86.4-25 105.2-11.9 71.6-.4 113.7 36.1 131.8 15.4 7.6 40.6 11.5 62.9 9.5 35.8-3.1 63.9-16 89.8-40.9 16-15.5 25.7-28.4 38.4-51.2l5.8-10.5-.4 14.4c-1.5 58.3 20 84.1 73.6 88.2 23.1 1.8 39.4-1.1 57.4-10.1 41-20.5 71.7-74.9 82-145.8 1.1-7.4 1.9-14.8 1.7-16.5l-.3-3.1-16-1.7c-8.8-.9-16.1-1.5-16.4-1.3-.2.2-1.4 7.1-2.7 15.2-9.3 59.6-25 98.5-43.6 107.7-6.7 3.3-14.3 3.5-18.2.5-10.5-8.3-8.8-27.5 10.8-126 12.9-64.2 35.3-169 48.2-224.9 3-12.9 5.4-23.7 5.4-24 0-.5-114.1-.3-114.6.3-.2.1-8.6 39.2-18.8 86.7-20.3 95.1-21.7 101-28.2 125-28.8 105.1-67.9 162.9-110.5 163-11.3 0-17.5-2.9-22.4-10.4-5.9-9-7-14.6-6.9-35.6.1-29.7 2.7-42.4 26.9-130.5 20.6-75.2 21.9-80.7 23.4-105 2.7-41.2-7.9-72.2-30.7-90.4C1740 4.5 1709.7-2 1681 2.5z" fill="#969A9E"/></svg>