<?xml version="1.0" encoding="utf-8"?>
<!-- Generator: Adobe Illustrator 20.1.0, SVG Export Plug-In . SVG Version: 6.00 Build 0)  -->
<svg version="1.1" id="Layer_1" xmlns="http://www.w3.org/2000/svg" xmlns:xlink="http://www.w3.org/1999/xlink" x="0px" y="0px"
	 viewBox="0 0 292 114" enable-background="new 0 0 292 114" xml:space="preserve">
<g>
	<defs>
		<rect id="SVGID_1_" x="-70" y="-68.4" width="429.4" height="252.4"/>
	</defs>
	<clipPath id="SVGID_2_">
		<use xlink:href="#SVGID_1_"  overflow="visible"/>
	</clipPath>
	<path clip-path="url(#SVGID_2_)" fill="#1B324B" d="M98.3,25.8c5.4-3.2,5.6-8.1,4.2-10.9c-2.5-5.2-9.2-5.5-13-3.5
		c-3.6,1.8-6.4,6.6-3.9,11.5C87.8,27.2,93.4,28.7,98.3,25.8"/>
	<path clip-path="url(#SVGID_2_)" fill="#1B324B" d="M288.9,33.9c0-2.5-1.8-3.1-4.9-2.5c-6.4,1.1-7.8,3.5-8.1,6.6
		c-0.1,1.8-1,4.6-2.4,6.4c-1-0.5-2.1-1.1-3.2-1.8c-4.1-7.7-10.7-12.6-18.6-12.6c-8.5,0-15,4.4-19.7,10.7c-1.2,0.9-2.8,1.2-4.6,1.2
		c-3,0-8.6-1.5-11.7-4.4c0.1-2.8,0.1-5.9-0.3-7.7c-0.3-2.5-2-3.5-4.1-3.2c-1.8,0.1-5.3,0.8-7.4,2c-3.4,1.7-2.8,5-2.7,9.4
		c0.7,15.5-4.6,47.9-15.9,56.2c-5.4-8.7-6.4-24.7-6.1-37.7c0.1-3.9,1-11.6,1.7-16.3c1.1-3.9-0.6-5.6-3.4-5.5
		c-5.3,0.8-10.2,1.8-10.9,6.1c-0.4,2.8-0.8,6-1.3,9.2c-2.4,13.4-18,43.3-32.6,43.7c-4.5,0.1-9.2-3.6-10.8-9.9
		c7.3-2.9,14.9-7.5,19.8-13.6c5.2-6.4,8.7-14,8.5-22.6c0-6.8-2.9-17.3-15.2-17.3c-22.5,0-28.4,24.3-28.1,42.8
		c0.1,4.6,0.7,8.8,1.7,12.6c-5.1,6.2-11.8,8.1-13.8,8.1c-5.6,0-5.7-8.4-5.7-14.4c0-8.5,2.4-22.6,5.2-34.2c1.3-5,0.7-6.4-3.8-6
		c-5.6,0.6-9.4,2.2-10.3,6.3c-3.2,13.8-4.6,27.1-4.6,37.4c0,9.8,2.9,19.7,13.8,19.7c8.6,0,16.6-4.7,22.3-9.7
		c3.7,6.1,9.6,9.7,17.4,9.7c15.8,0,30.9-16.2,37.3-30.9c0,5.6,0.7,12.2,2,16.8c2,7.5,6.6,14.3,12.6,14.5c3.6,0,7.4-1.3,11.3-3.8
		c15.1-9.9,20.7-32.3,22.6-53c3.1,1.6,7.1,2.8,10.3,2.8c0.7,0,1.4,0,2-0.1c-2.5,5.7-4,11.9-4.5,17.4c-1.4,14.8,4.1,36.3,21.1,36.3
		c18.6,0,29.2-18.6,30.5-38.6c0.3-4.8-0.2-9.3-1.2-13.5C281.4,49.8,288.9,41.2,288.9,33.9 M131.3,38.1c3.2,1,5.9,7.1,5.9,12.7
		c0,12.7-9.2,21.2-16.5,25.6C118.1,65.7,123,43.1,131.3,38.1 M261,65c-0.3,9.2-3.9,24.9-14.8,28.6c-8.2-4.2-10.8-17.6-10.1-28.6
		c0.5-7.8,3.3-19.9,9.1-25.5c3.5,2.7,7.2,4.6,10.9,6.1C259.5,51.6,261.2,59.7,261,65"/>
	<path clip-path="url(#SVGID_2_)" fill="#1B324B" d="M44.5,4.7c-19,0-30.5,14.4-30.9,33.4c-0.3,12.4,6,22.8,21.4,28.1
		c10.8,3.8,17.9,7,17.9,16.6c0,12.4-12,18.4-22.8,18.4c-9.9,0-15.2-5.3-15.2-12.3c0-3.9,2.2-7.7,5.2-9.8c0.8-0.7-0.7-2.2-1.8-2.8
		c-3.1-1.5-7.4-0.6-10.5,2.7c-2.8,2.8-4.6,6.7-4.6,11.7c0,11.5,9.8,20.1,24.9,20.1c18.4,0,39-10.8,39-31.4c0-13-9.5-19.3-21.7-23.8
		C33,51.2,27.2,47.6,27.6,35.3c0.4-11.5,6.6-21,15-21c9.9,0,11.3,10.3,11.3,21v3.6c0,2.9,2.4,4.6,6.8,3.9c2.9-0.4,7.4-1.1,7.8-5.4
		c0.1-1.3,0.3-3.1,0.3-4.5C68.8,18.5,62.4,4.7,44.5,4.7"/>
</g>
</svg>
