<svg xmlns="http://www.w3.org/2000/svg" width="80" height="80" viewBox="0 0 1000.000000 777.000000"><path d="M257 75v75H110v334h180V337.3l9.8-.7c18.1-1.1 102.2-3 102.9-2.3.4.4 1.5 34.2 2.4 75 1 40.8 1.8 74.3 1.8 74.5.1.1 40.5.1 89.9 0l89.7-.3.3-73.3c.2-57.5.5-73.2 1.5-73.3.6 0 26.1-.8 56.5-1.7l55.2-1.7V484h183V150H737V0H553v150H440V0H257v75zm146.4-33.8c.3 4.6 1 35.1 1.6 67.8.6 32.7 1.3 62.8 1.6 66.7l.6 7.3H587V37.2l6.3-.6c3.4-.3 26-1 50.2-1.6 24.2-.6 46.8-1.3 50.3-1.5l6.2-.6V183h150v267H737V300H553v150H440V300H257v150H143l.2-133.3.3-133.2 73.3-.3 73.2-.2v-73c0-40.2.1-73 .3-73.1.1-.1 24.5-.9 54.2-1.9 29.7-.9 55-1.8 56.2-1.9 2-.1 2.2.5 2.7 8.1zM3.6 631.2c-.3.7-.9 24.5-1.5 52.8-.6 28.3-1.4 60.2-1.7 70.7L-.3 774H33v-5.8c0-3.1-.7-22.5-1.5-43.1-.9-20.6-1.4-37.6-1.1-37.8.9-.9 8.9 10.4 12.6 17.7 5.7 11.4 10.2 24.9 16 47.8l1.1 4.3 11.6-.3 11.6-.3 11.6-34.7c11.3-33.8 11.6-34.7 14.8-36.2l3.3-1.6.2 44.8.3 44.7 14.8.3 14.7.3V630h-39.6l-5.6 14.7c-20.5 54.4-20.9 55.3-24.1 56.9-1.6.9-3.3 1.2-3.7.7-.4-.4-5.8-16-12-34.6-9.7-29.2-11.5-33.8-13.3-34.2-1.2-.2-9.8-.9-19.2-1.5-9.3-.6-18-1.3-19.3-1.6-1.3-.3-2.4.1-2.6.8zm176.4 2.5c0 2.1-.7 29.7-1.5 61.3-.8 31.6-1.5 62.3-1.5 68.1v10.6l13.8 1.2c7.5.6 15.6 1.4 18 1.7l4.2.6V630h-33v3.7zm174.5-1.8l-14 1.6-.5 39.7-.5 39.8-27-37.2c-26.2-36-27.2-37.2-32.3-39.6-4-1.8-7.7-2.5-15.1-2.9-5.4-.3-11-.3-12.5.1l-2.6.6v140h33v-5.8c0-3.1-.7-20.3-1.5-38.2-.8-17.9-1.5-33.3-1.5-34.3 0-1.7.1-1.7 3 0 4.9 2.9 14.7 12.9 21.2 21.7 6.8 9.2 16.4 25.3 26.2 43.8l6.7 12.8H370v-72c0-39.6-.3-71.9-.7-71.9-.5.1-7.1.9-14.8 1.8zm149.5 2.7c-9.4 6.9-18.5 15.8-25 24.6l-5.7 7.6 1.8 10.7c2.1 12.4 4.4 17 12.5 24.9 9.5 9.4 26.1 16.4 47.2 20 4.6.8 8.5 1.6 8.6 1.7 1.4 1.5 6.6 13.2 6.6 14.7 0 1.4-2 2.8-7.2 5.2-7.9 3.6-15.5 4.9-23.6 3.8-6-.7-18-6.1-24.8-11l-4.5-3.2-10.1 10.1-10.1 10.1 5.4 5.1c16.7 15.9 44.9 20.8 74 12.7 11-3 23.8-8.4 26.5-11.1 1.4-1.5 2.9-5.5 4.4-11.8 3.1-13.2 2.6-24.6-1.5-33.5-6.9-15.3-25.7-26.1-56.3-32.4-5.9-1.1-11-2.4-11.4-2.7-.4-.4 0-5 .9-10.3l1.6-9.6 3.6-.6c2-.3 7.3-.6 11.9-.6 9.6 0 16.5 2.1 25.6 7.6l5.8 3.7 9.9-9.9 9.9-9.8-4.7-4.8c-5.4-5.5-15.9-11-25.3-13.3-3.9-1-13.1-1.9-23-2.2l-16.5-.5-6.5 4.8zm96 10.3V660h40v114h33l.2-56.8.3-56.7 20-.5 20-.5 1.5-12.7 1.6-12.7-4.1-.5c-2.2-.3-24.7-1-50-1.6-25.3-.5-49.7-1.3-54.2-1.6l-8.3-.6v15.1zm274.5-12c1.3 5.1 8.5 20.4 18.6 39.3 20.3 37.8 25.2 53.9 26.6 87l.6 14.8h32.5l.7-12.8c2.2-40.3 8.6-60.4 32.5-102.2 7-12.2 12.6-22.7 13.3-24.7.3-1-31.5-4.3-32.5-3.4-.4.3-6.5 13-13.6 28.1-9.6 20.5-13.4 27.6-14.8 27.8-1.6.2-4.4-4.6-15.4-26.5l-13.5-26.8-13.5-1.2c-7.4-.6-15.4-1.4-17.8-1.6-4.3-.5-4.3-.4-3.7 2.2zm-129.3.8l-2.2.4.2 69.7.3 69.7h33l.3-23.2.2-23.3 3.1-1.6c3.6-1.8 6.4-1.3 12.6 2.3 8.2 4.8 14.8 13.5 23.1 30.5l7.7 15.7 18.3.1h18.3l-1.2-2.3c-.7-1.2-6.9-12.3-13.9-24.7-7-12.4-13.2-23.5-13.8-24.6-1-2 .2-3.9 12.1-18.8l13.3-16.7-3.3-18.2c-2.4-13.3-3.8-18.6-5.1-19.6-.9-.7-5.7-3.3-10.7-5.7-9.9-4.8-20.4-7.8-32.8-9.4-7.8-1-54.7-1.2-59.5-.3zm73.1 38.2l4.9 11.4-1.7 3.7c-1.5 3.3-2.5 4-8.2 5.9-8.1 2.7-17.5 4.1-28 4.1H777v-37l18.2.2 18.2.3 4.9 11.4zM407 705.5V777h36V634h-36v71.5z" fill="#969A9E"/></svg>