<svg version="1" xmlns="http://www.w3.org/2000/svg" width="120" height="100" viewBox="0 0 1479.000000 450.000000"><path d="M585 2.7c0 .6 1 3.2 2.2 5.9 4.5 10.1 3.9 21.3-6.8 126.4-7.9 78.8-8.7 84.8-11.7 91.3-1.5 3.2-4 7.9-5.7 10.3-1.6 2.5-3 4.7-3 5 0 .2 11.2.4 24.9.4h24.9l-2.6-6.3c-4.4-10.9-4.2-16.3 4.7-109.7 4.5-46.5 8.2-85.4 8.3-86.4.2-1.5 5.8 2.9 24.5 19.3l24.2 21.2 25.7-20.6c14.1-11.3 25.9-20.3 26.1-20.1.3.3 2.9 40.7 5.8 89.8 4.9 81.2 5.2 90 4 96.9-.7 4.2-2.2 9.8-3.4 12.4-1.2 2.7-1.9 5.1-1.5 5.4.3.3 11.3.7 24.5.9l23.9.4-4.4-8.7c-5.7-11-6.3-14-8.1-42-5.6-85.5-8.9-152.1-8.2-166.4.5-9.9.9-12.1 3.5-17.2l2.9-5.9h-16.2c-8.9 0-20.9-.3-26.7-.6l-10.4-.7-2.8 5.7c-2.4 4.8-5 7.5-18.2 18.6l-15.5 13.1-12.6-12c-12.8-12.2-17.8-18.3-18.8-23.3l-.7-2.8h-11.2c-6.2 0-18.1-.3-26.4-.7C590 1.9 585 2 585 2.7zm-158.5 12c-28 3-51.1 5.6-51.2 5.7-.2.2 1 2.7 2.7 5.7 1.6 3 3.4 7.6 4 10.4 1.9 9.4 21 194.9 21 204-.1 5.2-.7 10.7-1.5 13-.8 2.2-1.5 4.3-1.5 4.6 0 .5 28-2.1 38.7-3.6l4.1-.6-2.5-4.5c-4.2-7.4-5.2-12.4-8.3-42.4l-3.1-28.7 11.8-19.6c6.5-10.9 12.1-19.7 12.4-19.7.3 0 6.7 12.5 14.2 27.7 7.5 15.3 17 34.4 21.2 42.5 8.7 16.8 10.6 23.7 8.9 33.2-1 5.3-1 5.6 1 5.6 4.7 0 45.2-4.4 45.9-5 .4-.4-1.6-3.6-4.4-7.1-9.4-11.7-13.1-18.1-25.5-43.3-14.5-29.7-40.7-85.7-40.7-87.1 0-.6 4.6-8.9 10.2-18.4C503.4 54 509 41.8 509 32.8c0-15.2-9.7-24-25.9-23.7-3.1.1-28.5 2.6-56.6 5.6zm41 24.8c2.8 2.7 3.3 8.9 1.5 15.5-1.3 4.7-9.7 19.4-30.5 53.2-12.2 19.8-17.2 27.1-17.7 26-1-2.6-10-91.3-9.3-92 .9-1 37.4-4.9 46.3-5.1 6.5-.1 7.6.2 9.7 2.4zm402-22.4c-18.1 3.4-33.4 11.7-46.1 25.1-19.4 20.4-30.1 50.1-33.5 92.7-2.6 33.1 4.7 63.5 20.4 84.7 17.5 23.7 42.3 35.4 75.4 35.4 20.6 0 35.4-4.2 50.9-14.5 27-18 43.4-49.4 48.5-92.9 1.7-14.4.6-45.7-1.9-56.6-9.8-41.8-34.8-66.7-74.1-73.5-9.2-1.7-31.6-1.8-39.6-.4zm32.1 24.4c13.8 2.4 23.8 7.6 33.9 17.8 17.2 17.3 24.4 39.5 23.2 71.1-.8 23.3-4.4 39-12.7 56.1-10.6 21.5-26.5 36.1-45 41-7.1 1.9-24.7 1.9-32.8 0-26.3-6.2-45.5-31.5-50.2-66.3-1.5-11-.8-32.7 1.4-45 6.8-37 24.3-63.2 48.4-72.2 10.8-4.1 20.5-4.8 33.8-2.5zm-585.1-8c-19.2 5.2-35.8 16.7-51.5 36-25.3 30.9-40 75.7-40 121.5 0 16.4 1.4 27.5 6.7 54.5 4.9 24.9 5.4 35.1 2.1 44.2-1.4 3.9-1.4 4.3 0 4.3 1.6 0 37.5-6.8 40.4-7.6 1.5-.4 1.3-1.3-1.7-6.7-1.9-3.4-4.6-10.3-6-15.2-3.6-12.6-10.1-47.4-8.9-48.4 1-.9 66.3-13.6 66.7-13 .6.8 9.6 49.4 10.2 54.9.3 3.3 0 7.8-.8 11.2-.8 3.2-1.2 5.8-.8 5.8.3 0 9.8-1.8 20.9-4 11.2-2.2 20.6-4 20.8-4 .3 0-.9-2-2.5-4.4-1.7-2.4-3.9-6.6-5-9.3-1-2.7-10.3-48.1-20.6-100.8-19.2-98.4-20.6-107-18.3-117.3.7-3.2.7-3.2-3-3.1-2 0-5.9.6-8.7 1.4zm-14 36.7c2.2 9.1 20.4 105.3 20 105.6-.3.3-15 3.4-32.7 6.8-17.8 3.4-33.5 6.5-35 6.8l-2.8.5v-7.2c.1-28.4 12-67.6 28-92.2 5-7.6 18.8-22.5 21-22.5.5 0 1.2 1 1.5 2.2zM1091.2 37c-30.2 4.3-55.5 24.4-69.6 55.1-7.5 16.6-14.2 42.4-16.5 64.1-4.9 44.9 9.7 83.5 39.2 103.7 25.9 17.7 66.4 20.9 94.6 7.6 19.8-9.4 37.6-28.2 47.9-50.3 14.9-32.4 20.4-79.4 12.7-110.1-10.8-43.5-43.5-68.7-91.5-70.6-5.8-.2-13.3 0-16.8.5zm34.2 26.6c35.8 9.6 55.5 47.6 49.2 95-8.5 64.7-46.8 101-93.7 88.9-22.7-5.9-38.4-23.5-46.1-51.6-2-7.4-2.3-10.6-2.2-26.9 0-19.9 1.5-29.5 7-47.3 2.9-9 9.7-23.3 14.6-30.6 9.2-13.5 25.6-25.6 39.1-28.7 7.6-1.7 23.6-1.1 32.1 1.2zm126.3-5.8c2.2 10.5 1.3 15.6-21.6 114.6-12.3 52.8-23.1 98.3-24.2 101.2-1.1 2.9-3.5 7.2-5.4 9.6l-3.3 4.5 20.1 4.6c11.1 2.6 20.4 4.7 20.7 4.7.3 0 .5-5.3.5-11.7 0-11.7.1-12.3 17.9-88.8 9.8-42.4 18.2-77.3 18.5-77.8.7-.7 46.1 106.7 46.1 109.2 0 1.4-13.4 59.6-14.8 64.6-1.3 4.4-5.1 11.6-8 15-1.3 1.6-2 3-1.6 3.2 1 .3 40.5 9.3 40.7 9.3.1 0 .2-5.5.2-12.2v-12.3l21.9-94c12-51.7 22.7-96.4 23.8-99.3 1.1-2.9 3.5-7.5 5.3-10.3 2.3-3.3 3-5.1 2.2-5.4-2.4-.9-40.2-9.3-40.4-9.1-.2.1.2 2.9.8 6.1.6 3.2.8 7.9.5 10.4-.9 6.7-18 81.1-18.6 81.1-.5 0-9-19.8-27.9-65.5-8.7-21-9.5-23.6-9.4-29.5 0-3.8.7-8.1 1.6-10.4 1-2.2 1.6-4 1.5-4.2-.2-.1-8.4-2.1-18.3-4.4-9.9-2.3-20.6-4.8-23.8-5.5l-5.8-1.3.8 3.6zM122 72.6c-10.2 3-19.1 5.6-19.8 5.9-1 .4-.5 1.5 1.7 4 1.7 2 4.2 5.8 5.6 8.4 2.3 4.5 9.5 27.3 9.5 30 0 .8-1.4 1-4.8.5-7.8-1-15.5 1.8-29.1 10.6-13.6 8.8-21.8 11.7-29.4 10.6l-4.4-.7-3.1-10.7c-4.6-16.1-5.5-21.9-4.8-29.4.5-5.2.3-6.6-.6-6.3-.7.2-9.4 2.7-19.3 5.5s-18.8 5.3-19.8 5.6c-1.5.5-1.2 1.2 2.2 5 2.1 2.4 5.1 7.3 6.5 10.7 3.2 7.8 55.5 190 56.9 198.4.6 4.2.7 7.9 0 11.3-.6 3-.6 5-.1 5s8.9-2.3 18.6-5.1c9.7-2.8 18.7-5.4 20-5.8l2.3-.6-3.2-4c-1.7-2.2-4.4-6.7-6-10C98.8 306.9 60 174.3 60 171.6c0-.3 1.9-.6 4.3-.6 5.6 0 16.7-2.5 20.8-4.5 1.8-1 6.2-3.9 9.8-6.5 3.6-2.6 8.5-5.7 10.8-6.9 5.3-2.7 13.3-2.7 19-.2 3.9 1.8 4.3 2.4 6.2 8.8 1.1 3.7 9.8 33.6 19.2 66.3l17.2 59.5.1 10.7c.1 9.1.3 10.7 1.6 10.3.8-.2 9.8-2.8 20-5.6 10.2-2.9 18.6-5.3 18.8-5.5.2-.1-1.5-2.7-3.6-5.8-2.2-3.1-4.9-8-6.1-10.8-1.1-2.9-14.1-47.2-28.8-98.3l-26.7-93-.1-11.2c0-6.9-.4-11.3-1-11.2-.5.1-9.3 2.5-19.5 5.5zm1315.4 36.7l-.1 10.2-28.6 93.5c-15.8 51.4-29.9 96.3-31.3 99.7-1.4 3.4-4.4 8.3-6.5 10.7l-4 4.5 10.3 3.1c5.7 1.8 14.6 4.5 19.8 6.1 5.2 1.6 9.7 2.9 10.1 2.9.3 0 .9-4.8 1.2-10.8.5-10.6.8-11.7 29.1-103.9 15.7-51.3 29.7-95.8 31.1-98.9 1.4-3.2 4.2-7.7 6.1-10.1 2-2.4 3.5-4.6 3.3-4.8-.3-.3-39.6-12.5-40.2-12.5-.1 0-.2 4.6-.3 10.3zM550.5 375.8c-9.9 3.3-16.6 13-15 22.1 1.6 9.7 8.4 14.1 25.6 16.6 12.9 1.9 16 2.9 18.9 6 2.9 3.1 3.2 10.1.6 14-4.1 6.2-20.1 8.7-29.2 4.6-4.5-2-8.4-6.3-8.4-9.2 0-1.6-.8-1.9-4.5-1.9-3.8 0-4.5.3-4.5 1.9 0 6.4 6.7 14.1 15 17.2 7.1 2.7 18.6 2.8 26.4.4 11.8-3.7 18-13.3 15.6-24.1-2.2-9.7-9.7-13.9-29-16.4-11.5-1.6-14.7-3-16.7-7.7-1.3-3.3-1.4-4.3-.2-7.8 2.1-6 8.1-9 17.9-9 9 .1 13.5 2.2 16.5 7.8 1.8 3.2 2.5 3.7 5.8 3.7 3.2 0 3.7-.3 3.7-2.3 0-3.4-4.1-9.9-7.9-12.4-7.7-5.2-20.9-6.7-30.6-3.5zm-139.8-.2c-.4.4-.7 16.9-.7 36.6V448h10v-26h18.8l9.7 13 9.7 13h4.9c2.7 0 4.9-.3 4.9-.6s-4.5-6.4-10.1-13.6c-10-12.9-10.7-14.7-6.1-14.8.7 0 3.5-2.2 6.1-4.8 3.9-4 5.1-6 6.1-10.4 2.4-10.7-2.4-20.7-12.4-26.1-3.7-2-5.9-2.2-22.1-2.5-9.9-.2-18.3 0-18.8.4zm37.9 10c7.1 5.3 9.1 12.4 5.5 19.8-3.4 6.9-7.8 8.6-22.4 8.6H420v-31.2l12.9.3c11.2.4 13.3.7 15.7 2.5zm31.4 25.9V448h44v-8h-35v-25l16.3-.2 16.2-.3v-8l-16.2-.3-16.3-.2v-23h34v-8h-43v36.5zM597 379v4h23v65h9v-65h22v-8h-54v4zm81.5 1.2c-1.3 2.9-8.9 19.2-16.9 36.2-8 17-14.6 31.1-14.6 31.3 0 .1 2.2.3 4.8.3h4.8l4.4-9 4.4-9h35.8l4.1 9 4.1 9h4.9c4.1 0 4.8-.3 4.3-1.6-.3-.9-7.9-17.3-16.9-36.5-14.4-31-16.5-34.9-18.5-34.9-1.8 0-2.8 1.1-4.7 5.2zm13.1 27.8l6.1 13.5-14 .3c-7.7.1-14.2.1-14.4-.2-.5-.4 7.9-20.1 12-28.1l2-4 1.1 2.5c.6 1.3 3.8 8.5 7.2 16zm35.6-5.3l.3 27.8 2.9 5.2c6.3 11.3 20.8 16.1 35.7 11.7 6.6-2 13.8-8.8 15.7-15 .8-2.8 1.2-12.6 1.2-30.8v-26.7l-4.2.3-4.3.3-.5 27.5c-.5 26.8-.6 27.6-2.8 30.8-3.2 4.4-7.4 6.4-14.7 6.9-9.9.7-17.5-4.4-19.5-13.3-.5-2.1-1-14.8-1-28.2V375h-9.1l.3 27.7zm74.5-27.1c-.4.4-.7 16.9-.7 36.6V448h10v-26h18.5l9.9 13 9.9 13h4.8c2.7 0 4.9-.3 4.9-.6s-4.6-6.4-10.1-13.5c-5.6-7.1-10-13.1-9.8-13.3.2-.2 2-1.1 3.9-2.1 14.1-7 16.9-25.9 5.3-36.6-6.2-5.9-8.3-6.4-27.8-6.7-9.9-.2-18.3 0-18.8.4zm37.9 10c5.1 3.8 6.9 7.1 6.9 12.9 0 5.8-1.8 9.1-6.9 12.9-2.4 1.8-4.5 2.1-16.2 2.4l-13.4.4v-31.4l13.4.4c11.7.3 13.8.6 16.2 2.4zm39.9 25.1c-9.3 19.7-17 36.1-17.2 36.5-.2.5 1.9.8 4.7.8h5l4.2-9 4.1-9H916l4.5 9 4.5 9h4.5c2.5 0 4.5-.3 4.5-.8 0-.4-7.5-16.8-16.7-36.5-14.3-30.7-17-35.7-18.8-35.7-1.9 0-4.5 5-19 35.7zm26.5-4.6l7 15.4-14.2.3c-7.7.1-14.2.1-14.5-.1-.2-.2 2-5.5 4.8-11.8 2.8-6.3 6-13.4 7-15.8 1.1-2.4 2.2-4.2 2.4-3.9.3.2 3.6 7.4 7.5 15.9zm38 5.4V448h10.3l-.6-27-.7-27.1 23.1 26.8c12.8 14.7 24 26.9 25 27.1 1.8.3 1.9-1.1 1.9-36.2V375h-9.2l.4 27c.1 14.9.3 27 .2 27-.1 0-10.6-12.2-23.3-27-15.3-17.8-23.9-27-25.2-27-1.8 0-1.9 1.3-1.9 36.5zm70-32.5v4h23v65h8v-65h23v-8h-54v4zm171.5 18.5c-9.2 3.2-13.4 14.9-6.9 19.2 2.2 1.4 2.6 1.4 4.9-.1 4.3-2.8 2.8-8.6-2.2-8.6-2.7 0-2.9-.8-.7-3.8 3.7-5.3 12-6.5 15.8-2.3 2.5 2.8 3.1 9.1 1.3 12.7-.8 1.6-4.5 6-8.3 9.9-8.9 9.3-15.4 18.2-15.4 21.1v2.4h31.7l.7-3.7c1.7-10.4-.2-16.1-2.8-8.3-1.3 4.1-3.2 4.8-14.3 4.9-5.4.1-8.3-.3-8.3-1 0-2.3 4.3-7 11.4-12.3 13.4-10.1 15.5-13.1 14.1-20.3-.8-4.6-5-8.8-10.1-10.2-4.9-1.4-6-1.3-10.9.4zm37.5.3c-8.4 4.1-13.5 18.8-11.1 31.3 1.6 7.9 4.1 12.9 8.1 16.3 4.2 3.5 7 4 11.2 2.3 7.4-3.1 12.1-12.8 12.1-25.2 0-12.3-4.7-22.1-11.9-25.1-4.2-1.8-4.2-1.8-8.4.4zm9.4 4.5c1.9 2.6 2.1 4.1 2.1 19.5 0 18.3-1 22.8-5.1 23.8-7.2 1.8-9.4-3.5-9.4-23.1 0-7.9.5-15.6 1.1-17.2 2.6-6.8 7.5-8.1 11.3-3zm31.5-4.1c-1.5 1.1-4.8 2.4-7.4 2.9-2.7.5-5 1.1-5.3 1.3-1 1.1 1.2 2.6 3.8 2.6 5.6 0 6 1.5 6 19.8 0 9.2-.4 17.3-.9 18-.4.8-2.7 1.6-5 1.9-2.4.3-4 1-3.8 1.7.5 1.6 24.9 1.5 25.5-.2.2-.7-.6-1.2-2.3-1.2-1.4 0-3.5-.5-4.6-1-1.8-1-1.9-2.4-1.9-24 0-12.6-.3-23.1-.7-23.3-.5-.3-2 .4-3.4 1.5zm28.2-.9c-6.4 2.3-9.9 10.3-6.4 14.6 3.7 4.5 10.1.3 7.3-4.9-.6-1.1-2-2-3-2-2.7 0-2.5-1.5.6-3.9 8.1-6.3 17.8 2 14.4 12.3-1.5 4.7-4.4 6.6-9.8 6.6-3.6 0-4.3.3-4 1.7.2 1.4 1.6 1.9 5.8 2.3 3 .3 6 .9 6.7 1.3 2.1 1.3 3.5 7.6 2.8 12.2-.8 5.8-4.1 8.5-10.2 8.5-3.7 0-5-.5-7.6-3.3l-3.2-3.2 3.2-.3c3.5-.3 4.9-2.7 3.8-6.1-.9-2.8-4.1-3.6-7-1.7-3 2-3.4 7.8-.9 11.5 1.9 2.7 8.8 6 12.4 6.1 4.7 0 10.2-2.2 13.8-5.5 3.3-3 3.7-3.9 3.7-8.3 0-6.2-2.6-9.3-9.7-12l-4.9-1.8 4-1.2c8.9-2.7 12.2-12.9 6.2-19-1.7-1.6-5-3.4-7.5-4.1-5.4-1.3-6.1-1.3-10.5.2zM224 400.7c-5.5 2-8.7 8.9-7 15.2 1.4 5.3 5.3 8.4 14.9 11.6 9.8 3.2 13.1 5.6 13.1 9.5 0 4.2-.9 5.9-4.1 7.5-7.8 4.1-18.5-1.7-21.9-11.9-2-6.1-3-4-3 6.4 0 5.5.3 10 .6 10 .4 0 1.7-1.2 3.1-2.6l2.3-2.5 3.3 1.9c6.9 4.3 16.1 3.6 20.9-1.5 3.3-3.6 4.1-7.4 2.8-12.3-1.4-5.4-5.7-8.5-15.5-11.5-10.6-3.3-12.9-5-12.9-10 0-4.9 3-7.5 8.9-7.5 5.5 0 9.9 3.5 13 10.3 1.3 2.6 2.6 4.8 3.1 4.8 1.4-.1 1.1-18.1-.3-18.1-.6 0-1.5.9-1.8 2-.8 2.5-1.2 2.5-6.6 0-4.2-1.9-9.8-2.4-12.9-1.3zm-58 1.8c0 .9.9 1.5 2.3 1.5 4.7 0 4.8.5 4.5 20.6l-.3 18.9-3.2 1c-1.8.5-3.3 1.5-3.3 2.2 0 1.1 4.1 1.3 20.3 1.1l20.2-.3.3-9.2c.1-5.1-.1-9.3-.5-9.3s-1.6 2.7-2.6 6c-2.1 7.3-4.2 8.8-12.9 9.7-10.1.9-10.8.2-10.8-10.7v-9h2.9c3.7 0 7.9 3.4 8.3 6.7.2 1.5.9 2.8 1.6 3.1.9.3 1.2-2.3 1.2-10.8 0-8.2-.3-11.1-1.2-10.8-.7.3-1.5 1.8-2 3.4-1 3.7-3.3 5.4-7.5 5.4H180v-8.4c0-9.7-.1-9.6 9.1-9.6 8.7 0 11.5 1.8 13.4 8.5.9 3 2.1 5.5 2.6 5.5s.9-3.8.9-8.5V401h-20c-17.1 0-20 .2-20 1.5zm87.6 4.6c-1 9.6-.8 11.9.9 11.9.9 0 1.5-.9 1.5-2.5 0-6.8 5.3-12.5 11.5-12.5h2.5v18.9c0 20.6-.4 22.1-5.6 22.1-1.5 0-2.4.6-2.4 1.5 0 1.3 1.7 1.5 11.2 1.3 7.8-.2 11.3-.7 11.6-1.6.2-.7-.6-1.2-2.1-1.2-5.8 0-5.7.5-5.7-21.1 0-19.4.1-19.9 2-19.9 5.3 0 9.5 4.3 10.9 11 .3 1.9 1.2 3.5 1.9 3.8.9.3 1.2-1.5 1.2-6.5 0-12.3 1.7-11.3-20-11.3h-18.7l-.7 6.1z" fill="#969A9E"/></svg>