<svg xmlns="http://www.w3.org/2000/svg" class="bauermedia-alt" width="250" height="190" viewBox="0 0 1852.000000 1411.000000"><path fill="#002887" d="M426 500v500h1000V0H426v500zm904-141.5c0 144.4-.1 262.5-.3 262.5-.1 0-118.3-118.1-262.7-262.5L804.5 96H1330v262.5zM611.4 733.4c9.5 2.7 14.2 5.1 19.7 10.3 8.4 7.8 11.9 16.9 11.9 31 0 11.3-2.5 17.6-10.2 25.9-3.3 3.5-7.8 7.4-9.9 8.6l-3.9 2.2 6.9 2.1c8.7 2.8 13 5.4 18 11.2 7.5 8.4 11.3 24.5 9.2 38.5-2.4 15.4-10.7 26.6-24.4 33.2-13.9 6.7-15.5 6.9-63.4 7.3l-43.3.4V730.8l41.8.4c35.3.4 42.6.7 47.6 2.2zm199.1 79.3c16.4 45 30.6 83.9 31.6 86.5l1.9 4.8h-48.5l-5.5-15-5.5-15h-57.3l-5.9 14.7-5.9 14.8-24.2.3-24.1.2 2.5-6.7c1.4-3.8 15.9-42.3 32.1-85.8 16.2-43.4 29.7-79.3 29.9-79.7.3-.4 11.4-.8 24.8-.8h24.2l29.9 81.7zm94.8-25c.3 48.5.6 57.6 1.9 62.1 4.7 15.4 14.6 22.2 30.4 20.9 8.8-.7 15-3.9 19.1-10.1 6.8-10 6.7-9 7.1-72.4l.3-57.2h42.9v60.7c0 55.8-.2 61.6-1.9 70-3.5 16.6-12.3 30-25 37.7-14.2 8.7-37.1 13-56.6 10.7-32.4-3.7-51.3-18.1-58.7-44.8-2.2-7.6-2.2-9.5-2.6-71.1l-.3-63.2h43l.4 56.7zm252.7-37.2V770h-63v28h60v38h-60v30h63v38h-108V731h108v19.5zm119.6-18.4c25.6 2.8 41.8 14.6 47.8 34.9 5.7 19.1.9 41.7-11.5 54-5.1 5.1-13.8 10.2-19.6 11.5-1.8.3-3.3 1-3.3 1.3 0 .4 12 16.2 26.6 35.2l26.5 34.5-27.8.3c-21.3.2-28-.1-28.8-1-.7-.7-10.1-15.4-21.1-32.6l-19.9-31.4-.3 32.6-.2 32.6h-45V731h33.5c18.5 0 37.9.5 43.1 1.1z"/><path fill="#002887" d="M567 782.5v16.7l12.3-.4c14.5-.4 17.9-1.7 20.8-8.1 2.3-5.2 2.4-11.4.3-16.7-2.5-6.1-5.5-7.3-20.6-7.8l-12.8-.4v16.7zM567 850.9V869l6.8.2c19.7.6 28.2-1.3 31.9-6.8 2.8-4.3 2.6-18.2-.3-22.1-4.3-5.8-7.5-6.8-23.6-7.2l-14.8-.3v18.1zM746.8 807.7c-4.7 14.8-8.9 27.8-9.3 29l-.6 2.3H756c14.9 0 19.1-.3 18.7-1.3-.2-.6-4.4-13.7-9.3-29-4.9-15.2-9.1-27.7-9.4-27.7-.3 0-4.5 12-9.2 26.7zM1246 787.6v21.6l7.8-.6c16.7-1.5 23.8-5.7 26.2-15.5 2.3-9.6-1.4-19.2-8.8-23-4.4-2.3-13.6-4.1-20.4-4.1h-4.8v21.6z"/><path d="M36.4 1290.3l-20 102.2 12.4.3c6.9.1 12.7.1 12.9-.2.3-.2 5.5-29 11.7-64 6.2-35 11.5-63.8 11.8-64.1.2-.2 13.4 29.1 29.3 65.3 15.8 36.1 29.1 66 29.5 66.5.3.4 13.6-28.9 29.5-65 15.9-36.2 29.2-66.2 29.6-66.6.4-.5 1.4 3.3 2.4 8.5.9 5.1 6 34 11.4 64.3l9.7 55 12.7.3c7 .1 12.7-.1 12.7-.5.1-1.8-39.4-202.9-39.9-203.5-.3-.3-15.7 34-34.1 76.3-29.7 68.1-33.6 76.6-34.6 74.6-.7-1.2-15.7-35.5-33.4-76.2s-32.5-74.3-32.9-74.7c-.4-.4-9.7 45.3-20.7 101.5zM751.2 1192.2c-5.7 12.8-89.7 195.7-90.9 198.1l-1.4 2.8 13.7-.3 13.7-.3 11-24.3 11-24.2H798.6l11 24.2 11 24.3 13.2.3c7.3.1 13.2-.1 13.2-.6 0-.9-92.5-203-93.3-203.8-.3-.3-1.4 1.4-2.5 3.8zm19.9 89.7c9 20.6 16.6 37.8 16.7 38.3.2.4-15.2.8-34.3.8-27.4 0-34.6-.3-34.2-1.3.3-.6 7.4-16.7 15.7-35.7 8.4-19 15.9-36 16.7-37.9.8-1.8 1.8-3 2.2-2.5.4.5 8.2 17.7 17.2 38.3zM1018.5 1193c-8.3 1.1-22 4.9-30.1 8.5-20 8.9-38.9 27.3-49.3 48.1-29 57.9 2.9 128.4 65.8 145.6 10.2 2.8 35.1 3.1 45.5.5 29.9-7.5 53-27.5 63.8-55.4 4.4-11.2 6.8-24 6.8-36.1V1294h-78v23h51l-.6 4.2c-1.9 13.1-8.4 24.8-19.3 35-12.8 11.9-26 17.8-42.1 18.5-12.5.6-22-1.4-33.5-7.1-16.5-8.2-28.6-20.7-37-38-12.5-25.6-10.7-54.9 4.6-78.7 10.6-16.3 26.1-27.6 45.5-33 10.2-2.9 27.6-3.1 37.3-.5 14.6 3.9 26.8 11.2 37.8 22.4l7.2 7.3 8.7-8.4 8.7-8.3-7.7-7.6c-14.4-14.4-32.1-23.9-52.6-28.3-8.8-1.8-24-2.5-32.5-1.5zM1391.5 1193.1c-29.8 3.8-57.8 21.3-73.9 46.1-6.7 10.3-9.8 17-13.1 28.3-8.2 28.4-3.3 60.4 13.2 85.2 5.1 7.8 16.1 19.2 24.2 25.2 9.1 6.8 23.5 13.6 35.6 16.8 8.9 2.4 11.8 2.7 26.5 2.7s17.6-.3 26.5-2.7c31.2-8.4 57.4-31.1 68.9-60 5.9-14.7 6.9-20.8 6.9-39.2 0-14.2-.3-18.3-2.1-24.7-11.8-42.9-46.5-72.8-90.2-77.8-9.7-1.1-12.7-1.1-22.5.1zm29.3 24.5c36 7.4 61.2 39.3 61.2 77.4 0 31.2-16.4 57.7-44.5 71.8-37.4 18.7-84.2 2.5-103.5-35.8-7.1-14-9.6-28.3-7.9-45 3.5-34.1 28.2-62 60.8-68.5 9.2-1.8 24.7-1.8 33.9.1zM268 1294.5v98.5h106v-23h-81v-74h79v-23h-79v-54h81v-23H268v98.5zM420 1294.4v98.6h26.6c29.1 0 40.9-1.2 56.1-5.6 31.2-9 53.8-29.4 63.5-57.4 8.8-25.4 7.2-59.3-3.9-81.5-9.7-19.4-28.6-35.6-51.2-44.1-17.4-6.6-25.1-7.6-59.8-8.1l-31.3-.5v98.6zm55-74.4c48.5 6 73.9 33.9 71.7 79-.7 13.9-2.4 20.8-7.9 31.9-12.2 25-41.7 39.1-82 39.1H445v-151h10.8c5.9 0 14.6.5 19.2 1zM610 1294.5v98.5h25v-197h-25v98.5zM1161 1295.5v98.5h25v-83.1l5.2.3 5.3.3 28 40.2c15.4 22.1 28.5 40.7 29.1 41.3.7.7 6.4 1 15.6.8l14.6-.3-30.8-42.5-30.8-42.4 7.1-2.1c9.9-2.8 17-7 23.7-13.6 20.3-20.3 21.2-55.6 1.9-77.2-6-6.8-12.5-11-21.7-14.1-11.1-3.8-19.3-4.6-46.6-4.6H1161v98.5zm51.6-75c22.1 3.9 32.6 14.5 32.6 32.9.1 10.3-2 17-7.1 22.8-7.7 8.8-18.3 12.3-39.3 13.4l-12.8.7V1219h8.9c4.8 0 12.8.7 17.7 1.5zM1544 1265c0 71 .1 72.1 4.6 86.1 9.8 30.3 37.6 48.4 71.4 46.6 12.2-.7 19.7-2.5 29.5-7.2 17.1-8.2 29.2-23.4 35.7-44.7 2.2-7.2 2.2-8.3 2.6-78.1l.3-70.7h-25l-.4 67.7c-.3 74.8-.3 73.6-6.8 86.9-8.4 16.9-26.3 25.4-47.6 22.4-15.1-2.1-26.1-9.6-32.1-22.1-6.8-13.9-6.6-11.3-7-86.7l-.3-68.2H1544v68zM1736 1295.4v98.7l12.3-.3 12.2-.3.3-41.1.2-41.2 16.3-.5c18.5-.5 25-1.9 37.3-7.8 18.9-9 28.8-25.9 28.8-49.4-.1-29.8-12.3-45.3-41.9-53.2-9.4-2.4-11.7-2.6-37.7-3.1l-27.8-.4v98.6zm49.5-75.4c15.9 2.3 25.9 7.8 31 17.1 2.8 5.1 3 6 3 16.4 0 10-.2 11.5-2.7 16.1-6.6 12.6-18.6 18-42.5 19.1l-13.3.6V1219h8.8c4.8 0 11.9.5 15.7 1z"/></svg>
