<?xml version="1.0" encoding="utf-8"?>
<!-- Generator: Adobe Illustrator 20.1.0, SVG Export Plug-In . SVG Version: 6.00 Build 0)  -->
<svg version="1.1" id="Layer_1" xmlns="http://www.w3.org/2000/svg" xmlns:xlink="http://www.w3.org/1999/xlink" x="0px" y="0px"
	 viewBox="0 0 148.4 28" enable-background="new 0 0 148.4 28" xml:space="preserve">
<path fill="none" d="M110.9,10.8"/>
<path fill="none" d="M110.1,12.1"/>
<path fill="none" d="M129.9,17.7"/>
<path fill="none" d="M127.9,9.9"/>
<path fill="none" d="M128.9,13.6"/>
<path fill="none" d="M122.6,13.6"/>
<g>
	<g>
		<path fill-rule="evenodd" clip-rule="evenodd" fill="#2D3D69" d="M18.8,23.4c4-4.8,3.3-11.9-1.5-15.9L2.9,24.9
			C7.7,28.9,14.8,28.2,18.8,23.4"/>
		<path fill-rule="evenodd" clip-rule="evenodd" fill="#2D3D69" d="M2.9,4.5c-4,4.8-3.3,11.9,1.5,15.9L18.8,3.1
			C14-0.9,6.9-0.3,2.9,4.5"/>
		<path fill="#2D3D69" d="M30.1,17.8c-0.7,0-1.7-0.1-2.6-0.9l0.9-1.3c0.5,0.4,1.1,0.8,1.8,0.8c0.5,0,0.9-0.2,0.9-0.8
			c0-0.4-0.3-0.6-0.5-0.7l-1.3-0.7c-0.9-0.5-1.5-1.1-1.5-2.1c0-1.3,1.1-2.1,2.5-2.1c0.8,0,1.6,0.2,2.3,0.7L31.7,12
			c-0.4-0.4-1-0.6-1.5-0.6c-0.5,0-0.9,0.2-0.9,0.7c0,0.4,0.3,0.6,0.6,0.8l1,0.5c0.9,0.4,1.7,1,1.7,2.1
			C32.8,16.8,31.9,17.8,30.1,17.8"/>
		<path fill="#2D3D69" d="M38.5,17.7L37.8,16h-2.3l-0.8,1.7h-1.8l3.7-7.8l3.7,7.8H38.5z M36.6,13.4L36,14.8h1.3L36.6,13.4z"/>
		<path fill="#2D3D69" d="M46.4,17.7L45.6,16h-2.3l-0.8,1.7h-1.8l3.7-7.8l3.7,7.8H46.4z M44.4,13.4l-0.6,1.4h1.3L44.4,13.4z"/>
		<path fill="#2D3D69" d="M53,17.7l-2.3-3.5v3.5H49v-7.5h2.5c1.6,0,2.8,0.7,2.8,2.2c0,1.2-0.8,1.9-1.6,2.1l2.4,3.2H53z M51.4,11.6
			h-0.8v1.9h0.8c0.9,0,1.1-0.6,1.1-1C52.6,12,52.3,11.6,51.4,11.6"/>
		<rect x="56.2" y="10.2" fill="#2D3D69" width="1.7" height="7.5"/>
		<polygon fill="#2D3D69" points="63.6,17.7 61.3,14.8 61.1,15.2 61.1,17.7 59.4,17.7 59.4,10.2 61.1,10.2 61.1,12.9 63.4,10.2 
			65.4,10.2 62.5,13.6 65.8,17.7 		"/>
		<path fill="#2D3D69" d="M69.6,17.8c-2.3,0-3.9-1.7-3.9-3.9c0-2.2,1.6-3.8,3.9-3.8c2.3,0,3.9,1.7,3.9,3.8
			C73.5,16.2,72,17.8,69.6,17.8 M69.6,11.6c-1.4,0-2.3,1.1-2.3,2.4c0,1.3,0.9,2.4,2.3,2.4c1.4,0,2.3-1.1,2.3-2.4
			C71.9,12.7,71,11.6,69.6,11.6"/>
		<path fill="#2D3D69" d="M76.7,17.8c-0.7,0-1.7-0.1-2.6-0.9l0.9-1.3c0.5,0.4,1.1,0.8,1.8,0.8c0.5,0,0.9-0.2,0.9-0.8
			c0-0.4-0.3-0.6-0.5-0.7l-1.3-0.7c-0.9-0.5-1.5-1.1-1.5-2.1c0-1.3,1.1-2.1,2.5-2.1c0.8,0,1.6,0.2,2.3,0.7L78.3,12
			c-0.4-0.4-1-0.6-1.5-0.6c-0.5,0-0.9,0.2-0.9,0.7c0,0.4,0.3,0.6,0.6,0.8l1,0.5c0.9,0.4,1.7,1,1.7,2.1
			C79.4,16.8,78.5,17.8,76.7,17.8"/>
		<polygon fill="#2D3D69" points="84.8,17.7 82.5,14.8 82.2,15.2 82.2,17.7 80.5,17.7 80.5,10.2 82.2,10.2 82.2,12.9 84.5,10.2 
			86.6,10.2 83.6,13.6 87,17.7 		"/>
		<rect x="87.9" y="10.2" fill="#2D3D69" width="1.7" height="7.5"/>
	</g>
	<rect x="93.1" y="10.2" fill="#5B78B2" width="1.7" height="7.5"/>
	<path fill="#5B78B2" d="M102.7,10.2v7.8l-4.9-4.6v4.2h-1.7V9.9l4.9,4.6v-4.2H102.7z"/>
	<rect x="130.1" y="10.2" fill="#5B78B2" width="1.7" height="7.5"/>
	<path fill="#5B78B2" d="M114.6,18c-2.3,0-3.9-1.7-3.9-3.9c0-2.2,1.6-3.8,3.9-3.8c2.3,0,3.9,1.7,3.9,3.8C118.5,16.3,117,18,114.6,18
		 M114.6,11.7c-1.4,0-2.3,1.1-2.3,2.4c0,1.3,0.9,2.4,2.3,2.4c1.4,0,2.3-1.1,2.3-2.4C116.9,12.8,116,11.7,114.6,11.7"/>
	<path fill="#5B78B2" d="M127.4,17.7l-0.9-4.1l-2.3,4.4l-2.3-4.4l-0.9,4.1h-1.8l2-7.8l3,5.3l3-5.3l2,7.8H127.4z"/>
	<path fill="#5B78B2" d="M139.3,10.2V18l-4.9-4.6v4.2h-1.7V9.8l4.9,4.6v-4.2H139.3z"/>
	<path fill="#5B78B2" d="M109.2,16c-0.4,0.4-0.9,0.6-1.5,0.6c-1.4,0-2.3-1.1-2.3-2.4c0-1.3,0.9-2.4,2.3-2.4c0.6,0,1.1,0.2,1.5,0.6
		l0.7-1.4c-0.6-0.4-1.4-0.6-2.3-0.6c-2.3,0-3.9,1.7-3.9,3.8c0,2.2,1.6,3.9,3.9,3.9c0.9,0,1.7-0.2,2.3-0.6L109.2,16z"/>
	<path fill="#5B78B2" d="M144.7,14.1v1.2l1.5,0c-0.4,0.7-1,1.2-2,1.2c-1.4,0-2.3-1.1-2.3-2.4c0-1.3,0.9-2.4,2.3-2.4
		c0.6,0,1.1,0.2,1.5,0.6l0.7-1.4c-0.6-0.4-1.4-0.6-2.3-0.6c-2.3,0-3.9,1.7-3.9,3.8c0,2.2,1.6,3.9,3.9,3.9c2.4,0,3.9-1.7,3.9-3.9
		H144.7z"/>
</g>
</svg>
