<svg xmlns="http://www.w3.org/2000/svg" width="100" height="100" viewBox="0 0 189.3 190"><path d="M94.5 6.4c6.3 0 16.8-6.9 24.9-4.4 9.8 2.9 13.9 13.1 19.4 16.3 5.5 3.2 16.5.7 23.8 8.6 7.6 8.2 5.5 18.3 8.6 23.8 3.2 5.5 14.3 6.8 16.3 19.4 2.2 13.9-4.4 18.6-4.4 24.9 0 6.3 7.5 10.9 4.4 24.9-2.7 12.2-13.1 13.9-16.3 19.4-3.2 5.5.3 17.1-8.6 23.8-10.7 8-18.3 5.5-23.8 8.6-5.5 3.2-7.1 14.6-19.4 16.3-15.1 2.1-18.6-4.4-24.9-4.4-6.3 0-11.7 6.4-24.9 4.4-11.2-1.7-13.9-13.1-19.4-16.3-5.5-3.2-15.5.5-23.8-8.6-8.9-9.7-5.5-18.3-8.6-23.8-3.2-5.5-14.9-9-16.3-19.4C-.6 104 6 101.3 6 94.9 6 88.6-1.4 80.7 1.6 70c3.1-11.5 13.1-13.9 16.3-19.4 3.2-5.5 1.3-16.4 8.6-23.8 7.5-7.6 18.3-5.5 23.8-8.6C55.7 15.1 58.9 5.1 69.6 2c10.7-3.1 18.6 4.4 24.9 4.4z"></path><g fill="#FFF"><path d="M56.9 122.1c.2-.2.4-.2.5.1.1.7-.1 1.6-1.1 2.9-1.5 1.9-4.7 6-7.2 9.7-.1.2-.3.3-.6.1-.8-.6-1.1-1.3-.9-2.8.4-3.2 1.4-8 2.1-10 .1-.3.3-.4.5-.1.5.6.6 1.3.2 2.9-.4 2-1.1 4.9-1.6 8 2-3.1 6.3-8.8 8.1-10.8zM55.3 135c-1.5-.1-1.5-1.6-1.1-3 .5-1.4 1.5-3.4 2.8-5.3.2-.2.4-.2.5 0 .5.7.4 1.6-.4 2.8-.8 1.2-1.2 2-1.6 3-.4 1-.4 1.8.1 1.8.8.1 1.9-1.4 3.1-3.2 1.3-2.1 1.9-3.5 2.6-4.4.2-.3.3-.3.5-.1.3.4.5 1.3 0 2.3-.5.9-1.5 2.5-2 3.5-.5 1.2-.5 2 .3 2 .9 0 1.9-1.4 2.7-2.8.1-.2.3-.2.4 0 .1.2.1.7-.2 1.3-.6 1.2-1.9 2.2-3.1 2.2-1.3 0-1.9-.8-1.7-2-.7.9-1.7 2-2.9 1.9z"></path><path d="M69.6 130.5c-.4 1.8-1.7 3.8-3.3 4.4-.7.2-1.8.2-2.6-.9-.9-1.2-.6-3 .3-4.6.8-1.4 2-2.6 3.3-2.7.6 0 1 .1 1.4.7.5.6 1.1.8 1 2.3v.5h.4c.1 0 .1.1.1.2-.2 0-.4.1-.6.1zm-1.8-.5c-.4-.3-.9-1.1-.9-1.8-.6.5-1.2 1.2-1.6 1.9-.9 1.6-1.2 3.5-.6 3.9.6.5 1.8-.2 2.8-2.1.3-.6.6-1.2.7-1.6-.1-.1-.3-.2-.4-.3zm.7-1.8c-.1-.7-.5-.5-.6.1-.1.6.1 1.2.5 1.5.1-.7.2-1.2.1-1.6zM76.3 134.5c.8 0 2-1.4 2.7-2.8.1-.2.2-.2.3 0 .1.2.1.7-.2 1.3-.6 1.1-1.8 2.2-3 2.2-1.1-.1-1.7-.7-1.7-1.6-.7.8-1.6 1.6-2.6 1.6-1.9 0-2.3-2.6-.6-5.1 1.6-2.4 3.3-3.3 4.3-3.3.8 0 1.3.6 1.2 1.4 1.1-2.1 2.7-4.9 3.4-6 .2-.3.4-.3.5 0 .3.7.2 1.6-.6 3.1-1 1.8-3 5.2-4 7.4-.4 1-.4 1.8.3 1.8zm-3.6-3.8c-1.1 1.8-1.3 3.6-.5 3.6s1.9-1.2 2.9-3.1c1.2-2.3 1.5-3.6.9-3.6-.7 0-2.2 1.3-3.3 3.1z"></path><path d="M81.8 134.4c1.7.1 3.2-1.6 4.1-2.9.1-.2.3-.2.3 0 .1.2 0 .7-.3 1.3-.9 1.3-2.5 2.2-4 2.2-2.6 0-3.5-2.5-2.2-5.2 1.3-2.7 3.4-3.7 4.5-3.1.5.3.9.6 1.2 1.1.4.5.2 1.8-.7 2.8-1 1.2-2.4 1.8-3.8.6-.7 1.9-.2 3.2.9 3.2zm1.8-4.7c.7-.9 1.1-1.9.8-2.2-.4-.4-2.1.9-3.1 2.8-.1.1-.1.2-.2.4 1 .7 1.9-.2 2.5-1z"></path><path d="M89.2 127.8c.1-.8.3-1.2.7-1.6.5-.4.9-.5 1.1-.3.2.2.1.4-.2.9-.1.1-.1.2-.2.4-.1 1.9.2 3.5.2 4.9 0 .8-.2 1.7-.9 2.2 1.4-.5 2.2-1.8 2.8-2.9.1-.2.3-.2.4 0 .1.2.1.7-.3 1.4-.8 1.4-2.2 2.2-3.6 2.3-1.2 0-2.3-.3-3.1-1.5-.5-.9-.4-2.3.3-2.9.2-.2.4-.1.4.2v.5c.9-1.2 1.8-2.6 2.4-3.6zm-2.2 4.6c.3 1.2.9 2 1.6 1.8.9-.3.6-3.5.6-5.2-.6 1.2-1.4 2.3-2.2 3.4z"></path><path d="M94 126.1c-.2-.3-.1-.4.2-.4.6 0 1.2 0 1.7-.1.6-1.1 1.2-2.1 1.6-2.6.2-.3.4-.3.5 0 .2.6.2 1.3-.3 2.3.8 0 1.1.4 1.3.6.1.3.1.4-.2.4-.5-.1-1.1 0-1.6.1-.8 1.4-2 3.4-2.8 5.1-.7 1.5-.5 2.8.4 2.8s2.1-1.4 2.9-3c.1-.2.3-.3.4 0 .1.3 0 .7-.2 1.2-.3.6-1.6 2.4-3.3 2.4-1.4 0-2.5-1.6-1.5-3.9.4-1 1.3-2.8 2.2-4.4-.7.1-1.1-.2-1.3-.5z"></path><path d="M105.1 126.7c.2-.3.4-.3.5-.1.3.4.5 1.3 0 2.3-.5.9-1.5 2.5-2 3.6-.5 1.2-.5 2 .2 2 .8 0 2-1.4 2.7-2.9.1-.2.2-.2.3 0 .1.2.1.7-.2 1.3-.5 1.1-1.8 2.3-3 2.2-1.1-.1-1.7-.7-1.7-1.7-.7.8-1.6 1.6-2.6 1.6-1.9 0-2.3-2.6-.6-5.1 1.7-2.4 3.3-3.4 4.3-3.4.9 0 1.3.7 1.3 1.5.3-.5.6-.9.8-1.3zm-1.6.9c-.7-.1-2.2 1.3-3.3 3.1-1.1 1.8-1.4 3.6-.6 3.6.8 0 1.9-1.3 3-3.1 1.3-2.3 1.5-3.5.9-3.6zM114.7 125.3c.6-.5 1.2-1.2 1.8-1.8.2-.2.3-.2.5 0 .5.5.6 1.2-.1 2.6-1.1 2.1-3.2 5.6-4.7 9.1-.1.2-.2.2-.3.1-.3-.3-.5-.9-.1-2.1.4-1.2 2.2-4.9 3.6-7.5-1 .1-.9-.2-.7-.4zM119.4 130.7c-1.1-.5-1.9-2.2-.5-4.7 1.2-2.3 3-3.2 4.6-2.4 1.7.9 1.6 3.6-.2 7.4-1.4 2.8-2.9 4.2-4.8 4.3-1 0-2.4-.4-2.5-2 0-.8.4-1.4.8-1.6.2-.1.4-.2.4.1-.4 1.7 0 2.5.6 2.7 1.1.4 2.7-.9 4.2-3.9-.7.4-1.7.5-2.6.1zm3.7-6.5c-.7-.4-2.2.8-3 2.5-.9 1.7-.9 3.2-.2 3.5.9.4 2.3-.5 3.1-2.4.8-2.1.6-3.3.1-3.6zM132.8 127.7c-.1.2-.2.2-.4.1-.5-.3-.6-1.2-.3-2.1.3-.8.6-1.7.3-1.7-.7-.1-2.9 1.2-4.6 4.2.8-.5 1.8-.6 2.7-.1 1.2.7 1.7 2.3.4 4.7-1.3 2.3-3.1 2.6-4.5 1.8-1.7-1-1.8-3.8 0-7 1.8-3.1 3.9-4.1 4.7-4.4.8-.2 1.4-.1 1.8.2.5.3.7.8.7 1.4-.1 1-.5 2.2-.8 2.9zm-5.9 6.3c.7.5 2.1-.4 2.9-2.1.8-1.6.9-3 .2-3.3-.8-.3-2.8.5-3.5 3-.4 1.3 0 2.2.4 2.4zM140.8 127.7c-.1.2-.2.2-.4.1-.5-.3-.6-1.2-.3-2.1.3-.8.6-1.7.3-1.7-.7-.1-2.9 1.2-4.6 4.2.8-.5 1.8-.6 2.7-.1 1.2.7 1.7 2.3.4 4.7-1.3 2.3-3.1 2.6-4.5 1.8-1.7-1-1.8-3.8 0-7 1.8-3.1 3.9-4.1 4.7-4.4.8-.2 1.4-.1 1.8.2.4.3.7.8.7 1.4-.1 1-.4 2.2-.8 2.9zm-5.9 6.3c.7.5 2.1-.4 2.9-2.1.8-1.6.9-3 .1-3.3-.8-.3-2.8.5-3.5 3-.3 1.3.1 2.2.5 2.4z"></path></g><path class="o-char" fill="#FFF" d="M67.5 85.1L86.1 84l-.2 16.8-2.5 7.5-7.1 4-5.6-3.8-3.8-9z"></path><path d="M80.7 104.2c-1.2 3-2.7 4.3-4.7 4.3s-3.6-1.3-4.8-4.3c-1.3-3.1-1.9-7.3-1.9-12.5v-1.1c1 1 2.7 2.8 6.7 2.8 3.7 0 5.1-1.6 6.2-2.6v1c0 5.1-.3 9.2-1.5 12.4zm76.4-32.9c-2 0-4.2 1.1-4.2 4.2v11.2l-9-12.6c-.8-1-1.5-1.7-2.2-2.1-.7-.4-1.4-.6-2.3-.6-1.6 0-3.9 1.1-3.9 4.1V103c-.7-.3-1.6-.3-2.6-.3h-10.2v-7.8h7.8c1.1 0 2.1-.4 2.8-1.1.7-.7 1.1-1.7 1.1-2.8 0-1.1-.4-2.1-1.1-2.8-.7-.7-1.7-1.1-2.8-1.1h-7.8v-7.5h7.8c2.3 0 3.8-2 3.8-3.9s-1.6-4-3.8-4h-10.4c-4.9 0-5.9 2.2-5.9 5.8v25.2h-1.7V75.4c0-2.7-2.1-4.2-4.2-4.2-2 0-4.2 1.1-4.2 4.2v11.1c-.5-.7-9-12.5-9-12.5-.8-1-1.5-1.7-2.2-2.1-.7-.4-1.4-.6-2.3-.6-1.6 0-3.9 1.1-3.9 4v.1c-.3-.7-.6-1.4-1-2.1-2.5-4.7-5.9-7-10-7s-7.5 2.4-10 7S62 84 62 91.4c0 4 .4 7.7 1.1 10.9h-6v-27c0-2.9-2.1-4.1-4.2-4.1-2.5 0-4.2 1.7-4.2 4.1v27.3c-.6-.2-1.4-.2-2.3-.2H36.2v-7.7h7.5c2.4 0 3.6-1.3 3.6-3.9 0-2.3-1.3-3.9-3.6-3.9h-7.5v-7.4h7.6c2.3 0 3.5-2 3.5-3.9 0-2-1.3-3.9-3.5-3.9H32.3c-3.5 0-4.5 1.6-4.5 5.2v28.4c0 3.6 1.1 4.8 5 4.8h13.5c2 0 3.2-.4 3.9-1.1.9.7 2.2 1.1 4.1 1.1h9.3c.8 0 1.5-.3 2-.8 0 .1.1.2.1.2 2.5 4.7 5.8 7 10 7 8.2 0 11.4-7.5 11.6-8 .8 1.3 2.2 1.7 3.6 1.7 2.7 0 4.2-1.5 4.2-4.1v-10c.5.7 8.7 11.3 8.7 11.3l.1.1c.9 1.1 2.3 3 4.8 2.9h24c1.8 0 3.3-.3 4.1-1 .8.8 1.8 1.2 2.9 1.2 2.7 0 4.2-1.5 4.2-4.2V96.3c.5.7 8.7 11.4 8.7 11.4l.1.1c.9 1.1 2.3 3 4.8 3 2.1 0 3.8-1.7 3.8-3.8V75.5c.1-2.8-2.1-4.2-4.2-4.2z"></path><path class="text" fill="#FF9015" d="M83.6 87.3l.1 4.4c0 5.3-.4 9.7-1.7 13-1.5 3.6-3.3 5.1-5.9 5.1-2.6 0-4.6-1.6-6.1-5.1-1.3-3.3-2-7.6-2-13l.1-4.3s3.8 4.6 7.8 4.6c4.3-.1 7.7-4.7 7.7-4.7zM67 73.9c-2.3 4.4-3.5 10.2-3.5 17.5 0 3.9.4 7.5 1.1 10.6l.4 1.7h-9V75.2c0-2.6-2.4-2.8-2.9-2.8-1.7 0-2.9 1.1-2.9 2.8v29.6s-.7-1.2-3.7-1.2H34.9V93.2h8.9c1.4 0 2.2-.4 2.2-2.5 0-.9-.3-2.5-2.2-2.5h-8.9V78.1h8.9c1.7 0 2.2-1.6 2.2-2.5 0-1-.6-2.6-2.2-2.6H32.3c-2.4 0-3.1.5-3.1 3.8v28.4c0 2.8.4 3.5 3.6 3.5h13.5c3.6 0 3.9-1.5 3.9-1.5l.9.7c.6.5 1.7.8 3.3.8h9.3c1.6 0 2.4-1.7 2.4-1.7l.9 1.8c2.2 4.2 5.2 6.3 8.8 6.3 3.6 0 7.6-2 9.8-6.2 1.3-2.1 2.5-6.3 2.5-6.3v3.6c0 1.9 1.2 2.6 2.9 2.6 1.9 0 2.9-.9 2.9-2.8V92l11.1 14.5.1.1c.8 1 1.9 2.4 3.7 2.4h24.6c3.1 0 3.6-1.5 3.6-1.5s.8 1.7 2.8 1.7c1 0 1.7-.2 2.2-.7.5-.5.7-1.2.7-2.1V92.2l11.1 14.6.1.1c1 1.3 2 2.5 3.7 2.4 1.4 0 2.5-1.1 2.5-2.4V75.5c0-2-1.5-2.8-2.9-2.8-1.1 0-2.9.4-2.9 2.8v15.4S143 75 142.9 74.9c-.8-1.1-1.5-1.6-1.9-1.8-.5-.3-1-.4-1.6-.4-.1 0-2.5 0-2.5 2.7v29.5s-.9-1-4-1h-11.5V93.4h9.1c.8 0 1.4-.2 1.8-.7.6-.6.7-1.3.7-1.9 0-.7-.2-1.4-.7-1.9-.4-.4-1.1-.7-1.8-.7h-9.1V78.1h9.2c1.7 0 2.4-1.5 2.4-2.5 0-1.1-.9-2.6-2.4-2.6h-10.4c-3.9 0-4.6 1.3-4.6 4.5V104h-4.4V75.4c0-1.9-1.5-2.8-2.9-2.8-1.1 0-2.9.4-2.9 2.8v15.3S94.1 74.9 94 74.8c-.8-1.1-1.5-1.6-1.9-1.8-.5-.3-1-.4-1.6-.4-.1 0-2.5 0-2.5 2.7v6.8l-2.6-6.2c-.3-.7-.6-1.4-.9-2-2.3-4.2-5.2-6.3-8.8-6.3-3.5 0-6.5 2.1-8.7 6.3z"></path><path d="M59.3 72.7c.2.2 1.9 2 3 7.5.2.4.4.9 1.2 1.1 8.8 2.1 19.2-6.9 19.2-6.9s1.4-1.2 1.9-1.7.3-.6.1-1.5c-.2-.8-.5-1.6-1-2.9-.5-1.2-.9-2.1-1.2-2.6-.4-.9-1-1.8-1-1.8l-.8-1.1s3-3 3.6-7.4c.5-3-4-10.5-10.9-7.1-2.5 1.3-3.5 4.1-6.5 4.2-.8 0-2.8-.1-5.1 1.2-2.4 1.3-3.6 3.3-3.6 3.3s-.4.1-1.1.4c-2 .8-3.7 2-5.1 3.4-3.5 3.4-2.4 7.1-1.6 8.7 1.9 3.7 5.9 3.5 5.9 3.5s1.1 0 3-.3z"></path><path class="hat" fill="#FFF" d="M64 64c-1.3 7.6-8.9 8.5-11.1 6.2-.5-.6-5.4-6.7 3.8-10.8 0 0-.9 1.8-1.4 3 0 0 1.2-.8 2.3-1.9.6-.6 1.2-1.4 1.9-2.4.6-.9 1.6-3.9 8.3-4.5 0 0 1.7-.2 4.2-2.4 0 0 6.3-6.4 10.4 1.8.3.7 1.5 3.7-2.6 8.5l-.5-.7s.8-2.4-.2-2.8c0 0-1.1-.6-1.9 2.5 0 0-.8 2.4-4.2 4.1 0 0 1.9.6 5.1-2.3 0 0 3.4 3.4 5.1 9.1 0 0-8.9 8.3-19.2 7.8 0 0-.8-4.3-2.1-5.9 0 0 3.3-1.7 4.9-5.2 0 0-3.6 3.8-5.5 3.3 0 0 2.4-1.6 3-4 .2-.6.3-1.5.3-1.8 0-.4-.2-1.1-.6-1.6z"></path></svg>