<svg version="1" xmlns="http://www.w3.org/2000/svg" width="120" height="100" viewBox="0 0 1719.000000 662.000000"><g fill="#969A9E"><path d="M505.5 2.1c-155.3 8.2-294.4 54.1-386.6 127.6-15.8 12.6-43.2 39.6-54.4 53.8C21.4 237.5-.8 301.3 1.3 365c1.1 32.7 7.3 58 21.2 86.5 17.7 36.2 47.1 69.6 86.3 97.9 77.5 55.9 197.1 94 335.7 107 37.7 3.5 51.8 4.1 103.5 4.1 53.4 0 68.3-.6 108.1-4.6 124.1-12.2 226.9-44.2 291.4-90.6 6.1-4.3 17.8-12.5 26-18 19.7-13.3 27.9-20.6 35.8-31.6 1.1-1.7 1.7-1.7 8.4-.3 44 9.3 117.3 15.4 170.3 14.3 66.1-1.5 115.1-10 155.5-27.2 8.6-3.7 25.5-12.2 25.5-12.9 0-.1-3.5.4-7.7 1.2-11 2-39.7 1.9-55.2-.2-68.1-9.2-146.5-42-198.6-83.3-9.4-7.4-34.6-30.1-36-32.3-.4-.6-.8-11.5-1-24.3-.2-17.5-.8-26.5-2.4-36.7-10.7-68.6-45.2-137.9-93.4-187.7-27.2-28.1-52-44.5-96.4-63.6C797.7 27.8 706.2 7.7 603 2c-21.1-1.1-75.1-1.1-97.5.1zm132 213c9.3 2.5 10.3 6.8 5.9 26-5.7 25.1-7.3 40.5-5.6 52.7.6 4.1 1.3 7.7 1.7 8 .3.3 2.7-1.5 5.3-4 13.3-12.8 39.6-24.1 51.9-22.3 7.9 1.2 11.1 7 13.4 24.4 2.3 17.2-.8 54.2-6.4 75-1.9 7.4-2.6 8.7-5.4 10.4-4 2.3-12.9 2.5-17.1.3-4-2-7.2-9.9-7.9-19-.3-4.6.3-12 1.6-20.9 2.4-16.2 2.7-28 .7-35.6-.8-2.9-1.7-5.5-1.9-5.7-.6-.7-12.5 8.3-18.6 14-6.9 6.6-16.4 18.1-22.8 27.6-5.2 7.8-7.3 9.3-14.8 11-3.5.8-5.6.6-10.9-1-3.6-1.1-6.8-2.4-7.1-2.9-1.2-2.1 2.8-41.4 6.5-63.3 1.6-9.4 2-16.1 1.9-33 0-19.7.1-21.8 2.2-27.2 4.7-12.7 14.7-18 27.4-14.5zM432.1 220c6.1 1.7 6.6 4 7.2 31.5.3 13.2 1 26.7 1.6 30 1.5 7.8 6.1 22.5 7.1 22.5.3 0 2.4-2.5 4.4-5.5 10.6-15.3 33.3-31.2 46.1-32.3 6.8-.5 9.8 1.9 14.6 12.2 7.6 16.5 11.9 40.1 12.6 70.3l.5 21.3-3.1 2.9c-6.2 5.8-17.6 6-21.8.3-6.1-8.2-7.9-14.9-9.3-34.3-.6-7.9-1.5-16.7-1.9-19.4-1.2-6.4-4.7-15.8-7-18.6l-1.8-2.2-5.7 6.9C465 318.4 455.9 334 450.3 349c-2.9 7.8-4.4 9.5-10.5 12.6-3.4 1.7-6.3 2.4-10 2.3-9.6-.2-10.1-.6-11.4-8.4-2.1-12.4-4.3-34.6-5.5-54-1-16.5-1.6-21-5-34.4-7.6-30-4-43 12.8-47 5.2-1.2 7.2-1.2 11.4-.1zm-212.9 17.7c9.1 9.4 13.7 20.9 19.4 48.5 3.5 17.2 7.7 32.2 9.7 34.7.6.7 3.8 2.6 7.1 4.2 10.2 4.9 11.4 7.2 7.5 13.6-4.9 7.9.4 23.7 17.9 53.7 7.5 13 15.2 28.4 15.2 30.6 0 .6-1.9 1.9-4.2 3-11.4 4.9-20.2 3.2-29.9-5.7-7.1-6.6-12-13.7-24.5-35.2-5.2-8.9-11.3-17.9-14.5-21.5l-5.7-6.1h-6.9c-5.7 0-7.9.5-13.5 3.3-3.7 1.8-7.9 4.7-9.4 6.4-2.5 3-2.6 3.7-2.2 10.8.6 8.9 1.9 11.8 13 28.4 9.6 14.1 14.1 23.5 14.2 29 .1 4 0 4.1-4.9 5.8-2.8 1-8.1 1.7-12.1 1.8-15 0-25.2-9.3-41.4-38-7-12.5-10.4-17.5-15.6-23.1-3.3-3.7-4.4-5.7-4.9-9.5-1.9-13.9-3.2-17.2-15.4-37.4-12.5-20.7-16.9-34.6-14.2-44.6 2.1-7.9 13.3-15.6 26.4-18.4 4.9-1 6.5-.9 10.7.5 7.7 2.6 9.5 5.5 10.9 17.7 2.1 18.6 4 29.5 6.1 35 2.3 6.1 7.8 13.1 12.1 15.3 6.9 3.6 25.5-.3 32.7-6.8 4.8-4.5 1.8-20.2-8.8-45.7-7.2-17.4-11-29.3-11-34.6 0-9 14.5-19.3 27.5-19.4 4.6 0 5.5.4 8.7 3.7zm146 2.4c5.5 1.4 15.5 8.6 20 14.3 9.5 11.9 12.3 23.7 12.3 51.6 0 17.2-.3 20.5-2.3 28-4.4 16.2-11.7 29.5-21.7 39.5-27.4 27.3-55.9 21.4-81.7-16.9-10.8-16.1-17.7-32.2-24.4-56.7-5.6-20.5-4.2-26.5 7.4-31.9 9.7-4.6 22.2-4.3 26 .5 1 1.3 2.9 7 4.1 12.7 8.7 39.3 11 46.1 21.6 64.9 7.4 13.1 12.1 17.9 17.4 17.9 3.4 0 4.5-.6 8.1-4.7 8.7-9.9 14.2-22.8 16.1-37.3 2.6-20.3-5.3-42.1-20.4-55.5-13.8-12.4-15.2-21.1-4.2-25.6 7.3-2.9 13.1-3.1 21.7-.8zm403.7 12.2c4.9 2.4 6.9 4.1 8.4 6.9l1.9 3.8-6 20.7c-8.5 29.3-9.2 33.3-9.2 53 0 18.1.8 23.2 3.8 27.2 2.9 3.8 8.7 3.5 18.2-1.2 13.6-6.6 24-17.1 31.1-31.2 8.4-17 9-32.5 1.9-53.5-3.5-10.3-2.3-18 3.1-19.9 3.8-1.3 12.4.1 17.8 2.9 5.7 2.9 11.5 8.9 14.7 15.2 6.4 12.6 7.1 24.5 2.3 39.4-11.7 36.4-34.2 62.5-62.3 71.9-26 8.7-47.2 2.1-57.3-18-6.7-13.2-9.4-26.9-9.4-48.5 0-17.3 1.5-29.1 6.1-48.4 3.4-14 4.5-16.9 8.3-20.4 5.5-5.2 16.2-5.2 26.6.1zM911 278.2c11.3 4.8 11.8 9.3 2.9 25.3-9.8 17.5-14.8 28-17.9 37.3-2.9 8.6-5.6 21.9-4.8 22.8.3.2 2.5-.7 4.9-2 10.9-6 32-10.3 46-9.3 9.7.6 16.2 3.4 18.5 7.8 2.5 4.9 1.4 20.2-2.5 34.5-6.5 23.5-24.3 62.3-30.2 65.4-4.8 2.6-16.1-.1-20.4-5-1.7-1.8-2-3.6-2-10.4 0-9.4 1.3-14 9-30.6 7.4-16 8.7-20.3 9.3-29.8.4-6.9.2-8.2-1.1-8.2-2.4 0-19.6 7.2-26.8 11.2-5.9 3.4-15.1 9.8-28 19.6-4.2 3.2-4.8 3.4-11.4 3-6-.3-7.7-.8-12-3.8-6-4-6.6-4.9-5.9-7.5 2.1-7.1 14.9-37.8 22-52.5 6.8-14.3 9.1-20.3 12.4-32.9 2.2-8.4 5.2-18 6.6-21.2 3-6.6 10.6-14.5 15.1-15.4 1.5-.4 3.3-.8 3.8-1 2-.5 8.1.8 12.5 2.7zm453.6-42.1c-10.2 2.5-21.9 11.8-26.7 21.1-3.3 6.5-4.9 14.7-4.9 25.5V293h-6.1c-8.1 0-12.3 2.1-14.9 7.4-2.4 5.1-2.5 6-.1 11.2 2.4 5.2 6.8 7.4 15 7.4h6.1v51.3c0 47.7.1 51.5 1.8 54.6 5 9.3 18.8 9 22.8-.4 1.1-2.8 1.4-12.7 1.4-54.4v-50.9l10.6-.4 10.6-.3 3.4-3.7c2.9-3.2 3.4-4.5 3.4-8.7 0-3.4-.6-5.6-2.1-7.5-3.5-4.4-7-5.6-16.9-5.6h-9v-10.1c0-15.2 3.2-20.1 14.4-21.9 9.8-1.6 13.6-5.3 13.6-13.1 0-4.2-.5-5.5-3.4-8.6-3-3.3-3.9-3.7-9.2-3.9-3.2-.2-7.6.1-9.8.7zm106.9-.2c-3.1 1.4-6.5 5.4-7.5 9.2-1.3 4.4-1.3 151.3-.1 159 .5 3.1 2 7.8 3.2 10.5 2.9 6.1 11.6 14.8 16.4 16.4 7.2 2.4 14.1-1.2 16.6-8.7 1.6-4.8-1-11.4-5.6-14.3-1.8-1.1-3.7-2.8-4.2-3.8-.4-.9-1-37.8-1.3-81.9l-.5-80.3-3.1-3.1c-3.4-3.3-9.9-4.8-13.9-3zm-56 11.1c-4.2 1.3-9.5 7-10.5 11.4-1.7 7.6 1.7 14.7 8.7 17.8 14.7 6.5 27.8-9 19.3-22.9-3.2-5.3-11.2-8.2-17.5-6.3zm282.2.4c-5.1 1.9-6.7 3.4-9 8.5-2.8 6.4-1.7 12.1 3.3 17.1 5.3 5.3 11 6.2 17.7 2.9 5.8-2.9 8.7-7.5 8.7-13.8 0-10.9-10.6-18.4-20.7-14.7zm-283.6 46.4c-1.9.9-4.3 3.3-5.3 5.2-1.7 3.2-1.8 7.1-1.8 61.6 0 32 .3 59.6.6 61.3.9 4.3 5.6 8.9 10 9.7 4.8.9 10.4-1.4 13.1-5.5l2.3-3.4v-60.6c0-58.3-.1-60.7-2-63.8-3.6-6-10.5-7.8-16.9-4.5zm282.2.2c-6.5 3.9-6.3 1.7-6.3 67.5 0 49.1.2 60.2 1.4 63 4 9.4 17.8 9.7 22.8.4 1.7-3.2 1.8-7.1 1.8-62.7 0-65.4.1-64.3-6.2-68.2-4.2-2.5-9.4-2.6-13.5 0zm-168 .6c-7.2 3.6-6.8 0-6.8 67.9 0 57.2.1 61.2 1.8 63.7 2 2.9 7.3 5.8 10.7 5.8 3.7 0 9.1-3.2 11.1-6.4 1.8-2.9 1.9-6 1.9-54.9V319h31v50.7c0 47.3.2 51.1 1.9 54.9 1.9 4.2 6.7 7.4 11.1 7.4 3.7 0 9.1-3.2 11.1-6.4 1.8-2.9 1.9-6 1.9-54.9V319h9.6c11.2 0 15.3 1.5 19 6.9l2.4 3.6V375c0 42.1.2 45.8 1.9 49.6 1.9 4.2 6.7 7.4 11.1 7.4 3.7 0 9.1-3.2 11.1-6.4 1.9-3 1.9-5.4 1.7-52.2l-.3-49-3.7-7.6c-5.7-11.4-15-19.1-27.3-22.2-8.9-2.4-96.5-2.3-101.2 0z"/><path d="M1207.2 333c-8.9 5.4-9.4 17.1-1.1 23.1l3.4 2.4h77l3.4-2.4c8.3-6 7.8-17.7-1.1-23.1-3.1-1.9-5.1-2-40.8-2-35.7 0-37.7.1-40.8 2z"/></g></svg>