<svg xmlns="http://www.w3.org/2000/svg" width="110" height="100" viewBox="0 0 1818.000000 1306.000000"><path d="M452.5.7c-32.1 3.8-51.9 9.1-70.7 19-18.8 9.9-32.5 24.4-38 40.1l-2.3 6.7v319l2.3 7.2c9.4 29.9 43.1 50.1 96.7 58 17.1 2.5 61.3 2.5 77.5 0 53.3-8.2 87.3-30.1 95.4-61.3 1.4-5.5 1.6-23.2 1.6-163.4 0-174.8.5-162.5-6.8-176.5-6.5-12.4-19.3-24-34.8-31.8-15.7-7.9-39.1-14.2-61.6-16.6-8.9-1-52.1-1.3-59.3-.4zm42.9 51.9c2.7.9 6.8 3.5 9.2 5.9l4.4 4.2v163.4c0 152.4-.1 163.6-1.7 165.9-2.3 3.4-4.1 4.8-9 7.1-12.4 5.8-36.8 3.4-45.1-4.4-5.5-5.1-5.2 5.3-5.2-169V64.3l2.3-3.4c2.6-3.8 10.9-8.5 17.7-9.9 6.4-1.3 21.6-.4 27.4 1.6zM0 264.5V524h107V282h70v242h106l-.2-259.3-.3-259.2-52.7-.3L177 5v225h-70l-.2-112.3-.3-112.2-53.2-.3L0 5v259.5zm635-234V56h2.3c1.2 0 20.2.1 42.2.3l40 .2.3 195.2.2 195.3h107V56.2h3.3c1.7 0 20.6 0 42-.1L911 56V5H635v25.5zM940 226v221h225v-51h-119V250h99v-52h-99l.2-70.8.3-70.7h57.8c54.3 0 57.7-.1 57.7-1.8V6.5c0-1.3-13-1.5-111-1.5H940v221zm264 0v221h224v-51h-119V5h-105v221zM1457.7 5.7c-.4.3-.7 99.8-.7 221V447h225v-51h-119V5h-52.3c-28.8 0-52.7.3-53 .7zM1711 264.5V524h107V5h-107v259.5zM336.5 520.2c-.4 1.3-6.9 35.2-39 205.3-9.6 51.1-18.6 98.6-20 105.5-1.3 6.9-6.3 32.7-10.9 57.5-25.2 133.5-40 211.7-42.6 225.2-1.7 8.4-3 15.5-3 15.8 0 .3 28.7.5 63.9.5h63.8l2.2-16.8c2.7-19.9 10.4-76.7 12.7-94l1.7-12.2h94.2l4.8 53.8c2.7 29.5 5.1 57.2 5.4 61.4l.6 7.8h70.8c39 0 70.9-.2 70.9-.5 0-.6-5.4-32.4-23.5-138-12.3-71.6-31-181.1-48-280.5-28.8-168.4-32.6-190.3-33.1-191.2-.3-.4-38.8-.8-85.5-.8-67.1 0-85.1.3-85.4 1.2zm96 279.3c9.7 77 17.8 140.8 18.1 141.7.5 1.7-1.8 1.8-38.1 1.8-36.3 0-38.6-.1-38.2-1.8.3-.9 9.2-66 19.9-144.6 12.8-95.1 19.5-141.9 20-140 .4 1.6 8.7 65.9 18.3 142.9zm1041-279.3c-.2.7-3.6 18.2-7.5 38.8-3.9 20.6-9.5 50.3-12.5 66-3 15.7-11.5 60.9-19 100.5s-15.4 81.2-17.5 92.5c-4.4 23.2-31.7 167.4-44.6 235.5-4.7 24.7-9.8 51.9-11.4 60.2-1.7 8.4-3 15.5-3 15.8 0 .3 28.8.5 64 .5 47.2 0 64-.3 64-1.1 0-1 5.2-39.8 13.5-101.6 1.4-10 2.5-18.6 2.5-19.2 0-.8 14.1-1.1 47.3-1.1h47.2l4.9 54.7c2.7 30.2 5.1 57.7 5.5 61.3l.6 6.5 70.8.3c38.9.1 70.7 0 70.7-.3 0-.4-10-58.9-33.1-194-7.1-41.8-18.8-110.2-26-152-7.1-41.8-15.6-91.5-18.9-110.5-16.2-94.5-26-152-26-152.9 0-1.7-170.9-1.5-171.5.1zm88 215.8c5.3 42.1 13.3 105.7 17.8 141.5l8.3 65-38 .3c-20.8.1-38 .1-38.1 0-.2-.2 5.5-42.6 12.5-94.3 7.1-51.7 15.9-116.7 19.7-144.4 4.6-34.6 7-49.5 7.5-47.5.4 1.6 5.1 37.3 10.3 79.4zM647 825v305h293v-64H788l-.2-272.8-.3-272.7-70.2-.3-70.3-.2v305zm326 0v305.1l111.3-.4c96.8-.3 112.8-.6 123.7-2 30.2-4.1 47.7-8.1 64.8-15 30.1-12.1 46.6-28.1 54.4-52.7l2.3-7.5v-88c0-81.2-.1-88.5-1.8-94.4-7-25.6-26.6-42.3-61.2-52.3-8.1-2.3-28.1-6.5-32.9-6.9-.6 0 5-1.3 12.4-2.9 40.7-8.4 65.6-23.5 76.8-46.4 6.8-13.9 6.6-11.1 6.9-86.6.3-45.9 0-70.7-.7-75.4-6.7-43.4-41.7-68.2-109.2-77.3-10.7-1.4-27.3-1.7-129.5-2l-117.3-.4V825zm185.7-239c9.7 1.2 18.4 4.1 23 7.6 6.7 5.1 6.3-.2 6.3 90.6 0 93.6.7 86-8.7 91.5-9.1 5.3-16.4 6.5-42.5 7l-23.8.5V585h18.8c10.3 0 22.4.5 26.9 1zm-1.9 261c16.5 1.7 26.8 6.4 29.8 13.6 1.2 2.8 1.4 18.9 1.4 95.6v92.3l-2.3 4c-5.7 10.1-19.5 13.5-54.9 13.5H1113V846h16.9c9.3 0 21.4.5 26.9 1zm304.2 355.9c-9.1 6.3-28.3 17-40.8 22.6-37.4 16.9-73.5 24.5-129.7 27.4-72.9 3.7-145.1 1.6-258-7.5-68.6-5.5-126.2-11.3-253.5-25.4-126.8-14.1-127.6-14.1-152.7-13-40.8 1.9-62.1 6.4-85.8 18.2-16.8 8.4-27.8 16.4-40.5 29.5-6.3 6.5-17.3 17.8-24.4 25-7.1 7.3-12.7 13.3-12.4 13.3.3 0 4.3-2.5 8.8-5.6 26.8-17.9 52.6-25.7 94-28.5 31-2.1 39.9-1.4 163 12.5 26.7 3 63.6 7.1 82 9 18.4 2 37.6 4 42.5 4.6 58.3 6.5 167.9 15.4 238.5 19.2 30.3 1.7 130 1.6 155.4 0 64.4-4.2 107.1-15.9 150.2-41.3 18.7-11 22.4-14.1 46.8-39.3 13.1-13.5 23.4-24.6 23-24.5-.5 0-3.4 1.7-6.4 3.8z" fill="#969A9E"/></svg>