<svg xmlns="http://www.w3.org/2000/svg" width="120" height="100" viewBox="0 0 1526.000000 376.000000"><g fill="#969A9E"><path d="M13.5 17.7c.7 1.8 24.2 68.2 87.5 246.8l33.6 95h142.6l15.3-40c8.3-22 27.9-73.3 43.5-114 38.5-100.8 35.8-93.6 54.9-143.9 9.4-24.6 17.1-45 17.1-45.2 0-.2-31.6-.3-70.2-.2l-70.1.3-14.2 39c-7.8 21.4-20.6 56.8-28.5 78.5-7.8 21.7-14.6 40.1-14.9 40.7-.4.7-2.3-3.8-4.3-10-4.2-13-37.9-115.9-44.2-135.2l-4.3-13-72.2-.3c-68.6-.2-72.3-.1-71.6 1.5zm121 26.9c1.5.4 2.8 3 5.3 10.7 1.8 5.6 12.9 39.4 24.7 75.2 11.7 35.7 22.5 69 24 74 1.4 4.9 4.9 15.5 7.7 23.5 7.4 21.4 8.6 25.1 9.8 29.7 1.4 5.7 3.5 5.5 5-.5.6-2.6 4.3-12.8 8.2-22.7 3.9-9.9 8.7-23 10.8-29 8.7-25.1 11.8-33.8 33.4-93.5 12.4-34.4 23.2-63.6 23.9-65l1.3-2.5 38.7-.3c24.9-.1 38.7.1 38.7.8 0 1-42.5 113.3-50.7 134-5.8 14.5-26.7 69.6-29.5 77.5-1.2 3.2-8 21.2-15.3 40l-13.2 34H154.8L140 289c-8.2-22.8-18.2-51.2-22.4-63-4.1-11.8-20.1-57.2-35.5-100.9-15.4-43.7-27.8-79.8-27.5-80.2.5-.9 76.6-1.2 79.9-.3zm269.1 14.2c-.2.4-13.6 36.5-29.6 80.2-45.9 124.9-79.3 216.1-80.7 219.8-.4 1 13.2 1.2 67.2 1l67.8-.3 7.9-24.5c4.4-13.5 8.5-24.8 9.1-25.2.6-.3 8.6-.7 17.8-.8 15.2-.1 16.9.1 17.7 1.7.5 1 4 12.5 7.8 25.5l6.9 23.8H929V166h43v194h128.2l-.7-15c-.4-8.3-.5-15-.3-15 .3 0 3.3 6.7 6.9 15l6.4 15 97.5-.3 97.4-.2 7.7-24c4.3-13.2 8.2-24.6 8.8-25.2.9-1 5.8-1.3 18.2-1.3 16.6 0 17 0 18 2.2.5 1.3 4.1 12.6 7.8 25.3l6.8 23 69.3.3c65.6.2 69.2.1 68.7-1.5-.2-1-23.7-68.2-52.2-149.3-28.4-81.1-52-148.3-52.2-149.3-.5-1.6-4.1-1.7-63-1.5l-62.5.3-37.2 101c-20.5 55.5-37.5 101.9-38 103-.6 1.6-2.3-1-8.6-13.4l-7.8-15.5 7.1-7.6c16.5-17.5 24.7-40.7 24.7-69.5 0-19.5-2.9-33-10.1-47.8-13.9-28.3-41.5-45.6-79.1-49.7-6.4-.6-76.2-1-202.8-1H738v108h60v86h-73V58H594l-.2 92.6-.3 92.6-32.4-92.6L528.7 58h-62.3c-34.2 0-62.5.4-62.8.8zm117.8 65c7.1 20.2 17.3 49.3 22.7 64.7 5.3 15.4 12.9 37 16.7 48 3.9 11 12.9 36.6 20.1 57l12.9 37-38 .3c-21 .1-38.3 0-38.6-.2-.2-.3-3.7-11.4-7.7-24.8l-7.3-24.3h-78.6l-8.1 24.7-8 24.8h-73.4l1.3-3.8c8.1-22.5 18.9-52 20.9-57.2 1.4-3.6 8.4-22.5 15.6-42 27.7-75.6 51.2-139.4 51.7-140.2.3-.4 19.5-.8 42.7-.8h42.2l12.9 36.8zM697 184v97.1l41.8-.1H785v18.2c0 10.1-.3 21.3-.7 25l-.6 6.8H623V87h74v97zm262.9-70.8l.2 23.8H900v194h-73V137h-60.2l.4-23c.3-21.5.4-23 2.3-24.4 1.7-1.3 13.6-1.5 94.2-1.6 72.8 0 92.2.3 92.6 1.2.3.8.6.6.6-.5.1-1.5.3-1.6 1.5-.5 1.2 1 1.5 5.9 1.5 25zm180.6-24.3c29.5 7.3 44.7 20.4 51.2 44.3 2.6 9 2.5 37.6 0 46.6-1.9 6.6-5.3 14.4-8.6 19.7-4.8 7.8-18.4 19.1-25.7 21.5-1.9.7-3.4 1.6-3.4 2.2 0 .6 2.6 5.9 5.7 11.7 3.1 5.8 15.2 29.8 26.9 53.3l21.3 42.8h-38.2l-38.2-.1-11.7-26.7c-6.4-14.7-15.6-35.8-20.4-47l-8.8-20.2H1071v94h-70V86.9l67.3.4c48.8.3 68.6.7 72.2 1.6zm250.2 7.6c1.7 4.9 9 25.6 16.1 46 26.1 74.6 29.6 84.5 38.4 109.5 12.4 35.1 26.8 77.1 26.8 78.1 0 .5-17 .9-37.8.9h-37.8l-7.5-24.8-7.5-24.7-39.5-.2-39.4-.2-6.9 21.2c-3.8 11.6-7.6 22.9-8.4 24.9l-1.4 3.8h-35.9c-19.7 0-35.9-.2-35.9-.4 0-1.4 19.5-55.3 44.8-124.1 6.1-16.5 18.4-50.1 27.4-74.7l16.3-44.8 42.5.3 42.5.2 3.2 9z"/><path d="M463.3 142.1c-.5.8-1.8 4.8-2.8 8.9-1 4.1-6.4 23.8-12.1 43.7-5.7 19.9-10.5 36.8-10.6 37.5-.2 1 5 1.4 25.1 1.6l25.4.2-.6-3.2c-.4-1.8-2.5-10.1-4.7-18.3-2.2-8.3-7-26.9-10.7-41.5-7.9-31.8-7.5-30.6-9-28.9zm606.7 19.5v27.6l19.3-.4c22.5-.6 26.7-1.6 32.2-8.1 8.8-10.3 8.7-29.8-.2-38.9-6.4-6.6-11.4-7.8-32.8-7.8H1070v27.6zm271.1-15.9c-.5 2.1-1.7 6.7-2.6 10.3-.9 3.6-2.8 10.3-4.2 15-1.4 4.7-4.4 15.2-6.8 23.5-3.9 13.5-9.7 33.2-11.1 37.7-.5 1.7 1.2 1.8 25.6 1.8 24.4 0 26.1-.1 25.6-1.8-.3-.9-2.8-10.3-5.6-20.7-2.7-10.5-5.9-22.2-7-26-3.1-11.2-10-39.7-10-41.7 0-3.3-2.9-1.9-3.9 1.9z"/></g></svg>