<svg xmlns="http://www.w3.org/2000/svg" width="160" height="100" viewBox="0 0 2452.000000 410.000000"><g fill="#969A9E"><path d="M1001.2 3.9c-.7 2.1 0 3.7 4.6 10 6 8.5 12.1 18.6 14.7 24.6 1.7 3.8 2.6 18.5 2.7 43.7v16.3c.2 33.2.1 100.3-.2 118-.2 11.5-.3 23.9-.2 27.5 0 3.6-.3 18.9-.8 34-1.2 37-1.2 36.8-.4 58.7.6 17.5.5 19.3-1 19.9-.9.4-3.1 3.3-4.7 6.6-1.7 3.3-4.8 7.9-6.9 10.2-2.1 2.3-4.6 6.1-5.5 8.4l-1.7 4.2 4 4.4c2.2 2.4 5 6.2 6.1 8.5 1.2 2.3 2.2 4.2 2.4 4.3.1.1 17.8.5 39.2 1 21.5.4 40.1.8 41.5.9 2.8.2 5.3.2 12.5-.2 2.8-.2 7.5-.3 10.5-.2 3 0 11.8.1 19.5.1 7.7.1 15.2.1 16.8.1 1.5 0 3.5 0 4.5-.1.9 0 5.5 0 10.2.1 4.7.1 10.9-.1 13.7-.4l5.3-.6-3.9-5.2c-9.1-12.2-13.2-22.4-15.5-38.2-2-13.7-2-20.1-.1-25.4 1.3-3.8 1.3-4.9-.2-10.9-1.6-6.6-1.7-10.9-1.4-50.2.1-6.9.4-14.8.7-17.6.5-4.6.8-5.2 4.1-6.8 3.2-1.5 7-1.6 38.7-1.1 19.3.3 39.2.8 44.1 1.1 5 .3 23.9.9 42 1.4 18.2.4 33.8 1.2 34.9 1.6 1.7.7 1.8 1.6 1.1 13.8-.4 7.2-.7 13.5-.6 14.1.7 4.4.6 24.3 0 29.8-.6 4-.5 8.5.1 11 .5 2.6.6 7.6.1 12.6-.5 4.7-.5 11.5 0 15.3l.9 7-4.7 6.1c-2.6 3.4-6.6 8.4-9 11-2.3 2.7-5.8 8-7.8 11.9l-3.5 7.2 3.2 3.5c1.8 2 5.2 5.6 7.5 8.1l4.2 4.5h85.8c69.3 0 86.4-.3 89-1.3l3.2-1.4-5-6.1c-2.8-3.4-7-10.2-9.4-15.1-3.5-7-5.1-9.2-7.5-10.2l-3-1.3-.2-30.3c-.3-32.6-.3-31.4.1-70.8.2-14.6.3-37.9.2-51.8 0-14.4.4-26.4 1-27.8.6-1.8.6-4.6-.2-8.8-.8-4.2-1.1-26.8-1.1-72.3l.1-66.1 4.4-6.9c2.4-3.7 5.4-7.7 6.7-8.8 1.2-1.1 3.1-3.7 4.1-5.7l1.9-3.6-5-3.6c-2.8-2-5.8-5.2-6.7-7-2-4.4-3.9-4.8-14.1-3.4-5.9.9-9.7.9-13.5.2-2.9-.6-10.6-.9-17.2-.6-14 .6-10 .6-66 .1-24.2-.2-46.6 0-49.8.5-7 1.1-7.2.1 2.7 19.6l7.3 14.5.1 20.5c0 12.7.4 21.6 1.1 23.3 1.6 4 1.4 12.7-.4 17.8-1.2 3.4-1.4 5.4-.5 9.2 1.5 6.9 1.1 17.2-.8 24.7l-1.7 6.5h-39c-21.4 0-41.2-.1-44-.3-6.1-.3-6.5-.3-19.5-.1-15.2.4-24.9.3-38.2-.2-12.6-.5-14.7-1.3-19.2-7.3-1.7-2.3-2.1-4.2-2.1-10.9.1-4.5.9-11.1 1.8-14.7 1.5-5.7 1.6-7.1.4-10.5-1-3.1-1.1-7.9-.4-22 1.4-30.3 1.6-34.8 1.7-41 .1-6 .1-6 5-9.9 4.7-3.7 4.9-4.1 3.5-6-.8-1.2-3-4.8-5-8.2l-3.5-6-15.7-1.2c-9.5-.7-40.8-1.2-78.3-1.3-34.4 0-65.1-.4-68.2-.8-5.5-.7-5.8-.6-6.6 1.8zm154.6 6.5c2.3 2.3 2.5 2.8 1.2 5-.7 1.4-3.6 4.8-6.4 7.6l-5.1 5.1v55.7c0 30.6.3 56.9.7 58.3l.8 2.6h15.7c11.3 0 17.4.4 21.3 1.6 4.8 1.3 5.7 1.4 7.1.1 2-1.8 7.6-1.8 15 .1 5.4 1.4 6.2 1.4 9.1-.1 2.9-1.5 3.4-1.5 5.8-.1 2.4 1.5 2.9 1.5 5 0s2.5-1.5 5 .1c2 1.1 3.5 1.3 5.2.7 1.3-.5 3.3-.5 4.6 0 1.4.5 3 .5 4 0 .9-.5 2.6-.5 3.9 0 1.3.5 6 .4 11.3-.3 6.3-.7 11.2-.7 16 0 5.4.8 7.9.7 11.6-.4 6.1-1.8 10.4-1.8 13.1.1 1.8 1.2 3.5 1.3 10.4.4 7.4-.9 19.1-.5 22.4.8.7.2 1.9-1.3 2.8-3.5 1.4-3.4 1.5-10.5 1.3-54.5l-.3-50.6-2.5-3.8c-6.7-10.2-11.4-23.7-8.7-25.3 2-1.3 18.6-2.3 26.4-1.6 6.6.6 74.7 2.2 102.8 2.5l12.7.1-.6 4.2c-.3 2.4-1.4 5.4-2.4 6.8-1 1.4-4.6 6.9-8 12.2l-6.1 9.7.5 40.8c.3 22.4.5 41.8.6 43 0 1.3.1 3.6.1 5.3 0 1.6.1 4.5.1 6.2 0 1.8 0 6.7-.2 10.8-.2 7.7-.2 21.2 0 26.5.1 1.6 0 9.1-.1 16.5-.3 16.2-.3 42.8-.1 49 .1 2.5 0 29.9-.4 60.9l-.5 56.4 5.1 7.4c2.8 4 6.3 9.9 7.7 13l2.6 5.6-2.3 1.9c-2.1 1.7-4.6 1.8-46.9 1.3-70.2-.9-91.3-1.3-95.8-2-4-.6-4.3-.9-4.3-3.6 0-4.3 4.6-10.5 10.8-14.6 10.4-6.9 9.6-1.5 9.7-63.9.1-30.1-.1-58.8-.4-63.8l-.6-9.1-10.5.3c-6 .1-13.1-.3-16.5-1.1-3.8-.8-7.4-1-9.5-.5-1.9.5-8.2.6-14 .2-5.8-.3-12.7-.5-15.5-.4-8.2.2-19.8.3-37.7.2-4.2 0-61.5-2-73.3-2.6-4.9-.2-9.8-.7-10.7-1.1-1.4-.6-2.2.3-3.9 4.1-2.1 4.7-2.1 5.5-1.1 21.6.6 10 .7 18.2.1 20.5-.5 2.1-.9 22.6-.9 45.6v41.8l3.9 4.7c4.6 5.5 9.1 14.5 9.1 18.4 0 2.5-.2 2.6-3.1 1.8-2.3-.7-3.9-.5-6.2.6-2.6 1.4-3.6 1.4-7.1.4-3-1-13-1.2-38.1-1.1-18.7.2-35.8.2-38 .2-2.2 0-6.9.1-10.5.2-15.7.5-28 .1-34.3-1.2l-6.8-1.3.7-3.2c.4-1.7 2.7-5.3 5.1-8 2.4-2.7 5.6-6.9 6.9-9.2l2.5-4.3.4-44.3c.2-24.4.3-46.3.2-48.8 0-2.5 0-6.5.2-9 .3-4.9.4-21.8 1.1-140.7l.4-78.2-4.6-4.1c-6.3-5.5-9.8-12.7-9.8-20.1V7.2l69.1.3 69.1.3 2.6 2.6z"/><path d="M1084 31.6c-2.5.9-8 1.6-12.2 1.7-4.3.1-7.8.4-7.8.7 0 .4 1.3 2.7 2.9 5.2l2.9 4.6-.3 88.4c-.3 48.5-.7 93.9-1 100.8-.3 6.9-.7 37.8-.8 68.7l-.2 56.2 9.4.7c11.6.8 29.9 0 31.4-1.5.7-.7.6-3.5-.3-9.6-1.1-6.8-1.1-9.9-.2-14.9.9-4.6.9-7.2.1-9.4-.9-2.6-.8-44 .2-73.2 0-1.4-.1-13-.2-25.9-.3-21.9-.2-23.4 1.6-24.7 2.3-1.7 37.8-2 51.2-.4 6.6.7 38.9 1.1 64.8.8 23.6-.4 143.1 1.3 146.9 2.1 2.7.5 5.2 1.5 5.7 2.2 1.4 2.3 2.2 16.1 1.4 25.3-.8 9.4-.9 12-.6 17.1.6 14.1.5 20.1-.8 60.5-.5 16.2-1.4 31.5-1.9 34-.6 2.5-1.1 8-1.2 12.2v7.8h3.4c1.9 0 3.7-.4 4.1-1 .3-.5 7.1-.9 15.3-1 15.6 0 21.9-.9 21.4-2.9-1.1-4.9-1.3-13.1-.4-14.7.8-1.4.7-2.3-.4-3.5-2.1-2.4-2.2-33.1 0-38.2 1.2-3.1 1.2-4.3-.3-10.9-1.2-5.2-1.5-8.2-.8-9.9.5-1.3.6-9.3.3-17.9-.3-8.5-.5-16-.5-16.5.5-4.3 1.7-77.9 2.1-127 .5-52.7.7-60.8 2.2-66.5 1-3.5 2.2-7.2 2.7-8.1.6-1.2.3-2.1-1-3.3-1.5-1.3-4.4-1.6-17.6-1.6-8.8 0-19.6.5-24.1 1.2l-8.1 1.2 1.8 3c.9 1.7 2.6 5.8 3.7 9.1 1.8 5.7 1.9 8.2 1.2 45.5-.5 28.6-1.1 40.9-2.1 44.5-1.2 4.4-1.2 5.8.3 11.5.9 3.6 1.7 8.2 1.7 10.2.1 5.2-3.8 7.3-12.2 6.5-3.9-.3-7-.1-9.3.9-4.3 1.8-10.3 1.8-18.4-.2-5.3-1.2-7.3-1.3-10.8-.3-2.6.7-6 .9-9 .4-2.6-.4-6.5-.6-8.7-.5-2.2.1-5.7.2-7.7.2-2.1-.1-6.5-.1-9.8-.1-14.5.1-20.3 0-33-.4-7.8-.2-14 0-14.7.6-.7.5-2.1.6-3 .1-1-.4-31.1-.8-67-.8-35.9-.1-65.4-.4-65.7-.7-1.6-1.6-2.5-16.7-2-33.5.3-10.4.6-20.9.6-23.4s0-8.1-.1-12.5c0-4.4.2-13.4.3-20 .2-6.6-.1-18.2-.7-25.7l-1.1-13.7 2.7-3.8c1.5-2 2.3-4.1 1.8-4.6-.4-.4-4.4-.9-8.7-1.1-4.3-.2-9.5-.6-11.4-.9-2-.3-5.4 0-8 .9zM2269.4 4.1c-7.3 2.3-10.3 4.9-5.8 4.9 2.3 0 3.9 1.2 7.8 6.3 2.8 3.4 7.1 9.8 9.7 14.2l4.7 8L2287 52c1.8 22.1 2.1 181.2.4 190.9-1 5.5-1.1 8.5-.3 11.6.9 3.6.8 12.7-.2 28-.1 1.1.1 9.6.5 19 .5 13.6.3 18.7-1 25.2-1.4 7.4-1.4 8.7-.1 12.6 1.4 4.1 1.3 4.5-.6 7.3-1.1 1.6-3.7 4.7-5.7 6.9s-4.2 5.9-4.8 8.2c-1.1 3.7-6 9.4-9.1 10.4-.6.2-1.4 2.1-1.7 4.1-.5 3-.3 3.7 1.4 4.2 1.2.4 4.4 3.3 7.3 6.4l5.2 5.7 8.6.8c10.8 1 152.7 2.1 159.9 1.2l5.4-.7-2.1-2.2c-1.1-1.2-2.6-3.7-3.3-5.6-.6-1.9-4-7.2-7.4-11.6-3.4-4.5-7.8-11.5-9.7-15.5l-3.5-7.4 1.1-8.2c.9-6.8.7-10.1-.8-19.7-1.6-10.3-1.6-13-.5-25.8 1.3-15.7 1.3-14.6.4-30.5-.4-7.1-.2-12.4.4-14.3.7-1.7.8-4 .3-5.2-.4-1.2-.5-3.7 0-5.6.4-2.1.3-5-.5-7.6-.9-3-1.1-9.3-.5-24.1.4-11.8.3-22.7-.3-26.6-.7-5.2-.6-7.4.5-10 1.4-3.5 1.6-18.6.2-20.8-.3-.7-.8-25.7-.9-55.8l-.2-54.5 2.9-4.2c1.6-2.2 5.5-6.8 8.7-10.1 4-4.2 6-7.1 6.4-9.5.6-3.5.5-3.7-4.1-5.9-2.6-1.3-6.6-3.7-8.7-5.4l-4-3.2-72.6-.2c-49.7-.1-73.4-.5-75.3-1.2-1.6-.6-2.9-1.1-3-1-.1 0-3 .9-6.3 2zm29.2 4.5c6.1.4 12.6.2 16.5-.5 4.5-.7 8.2-.8 12.4-.1 3.3.6 22.4 1 42.5 1s39.1.3 42.3.6l5.7.7v5.1c0 4.8-.3 5.5-4.1 9.1-2.2 2.2-5.8 7-8 10.6l-4 6.6 1.1 37.9c.7 22.4.9 72.5.7 122.4-.5 87.1-.6 100.3-.4 108 .1 2.5 0 7.6-.2 11.5-.2 3.8 0 11.9.4 18 .8 10.6.9 11.2 4.2 15 3.8 4.4 8.3 13.3 8.3 16.4 0 2.7-5.7 4.5-14.5 4.5-6.2.1-10.4 0-28-.6-3.7-.1-6.5 0-9.7.2-.7.1-18.2-.1-38.8-.3-36.4-.3-45.9-1.1-47.6-3.8-.5-.8 4.3-8.2 12.6-19.4l3-4-.1-23.5v-30c0-3.6.1-62.7.1-131.4.1-99.9-.1-125.5-1.2-127.5-.7-1.4-3.3-4.9-5.8-7.6-7.2-7.7-10.2-12.8-9.5-15.8.8-3.2 4.1-4.8 8.5-4.2 1.9.2 8 .7 13.6 1.1z"/><path d="M2330 37.7c0 .6.7 4.5 1.6 8.5 2.2 9.9 2.7 35.1.9 50.4-1 8.7-1.1 13.3-.3 16.5.6 2.7.7 10.1.3 18.9-.3 8-.5 16.1-.4 18 .3 3.1.3 21.4.2 71.5V242c0 2.5 0 7.2-.1 10.5s-.1 6.9-.1 8c.2 7-1.2 74.2-1.6 79.7-.5 5.8-.4 6.7 1.2 7.2 2 .6 42.2 0 42.9-.6.2-.3-.7-2.7-2.1-5.4-4.2-8.1-4.8-17-4.1-55.8.4-19.3.8-36.7.8-38.6.1-1.9.2-5.1.1-7 0-1.9.1-37.5.3-79 .2-65.1.4-76.4 1.8-82.4 1.5-6.3 1.5-7.4 0-14.9-1.2-6-1.5-10.8-1.1-18l.6-9.8-20.4.3c-15 .2-20.5.6-20.5 1.5zM692 5.6c-4.1.7-13.8 1.6-21.5 2-8.8.4-15 1.2-16.8 2.1-1.5.8-5.1 1.7-8 2-2.9.3-6.2 1.3-7.4 2-1.4 1-3.3 1.2-5.2.8-1.9-.4-4-.1-5.9.9C624 17.1 603.5 24 596 26c-2.5.6-5.2 1.8-6 2.5-2.5 2.1-7.8 4.5-10.1 4.5-1.2 0-3.7 1.4-5.7 3.1-2 1.8-5.6 4.1-8.1 5.2-5.3 2.3-21.2 15.9-32.1 27.3-21.9 23-36.9 49.7-44.3 78.9-3.4 13.5-8.2 21.4-17 28-6.2 4.7-6.7 5.3-6.7 8.9 0 3.6.7 4.7 7.4 11.5 8.6 8.9 11.4 14.1 14.9 27.3 8 29.9 21.3 54.9 39.1 73.6 12.5 13 16.9 16 9.2 6.2-3.3-4.1-7.6-9.3-9.7-11.5-2.1-2.2-4.5-5.9-5.3-8.3-.9-2.4-3.3-6.3-5.4-8.7-2.4-2.7-5.2-7.8-7.2-13.1-1.9-4.7-4.2-9.6-5.2-10.9-2.2-2.8-5.2-11.4-11.5-32-2.9-9.6-8.6-19.7-14.2-25.1l-5.3-5.2 2.8-5.3c1.6-3 5.7-8.3 9.1-11.9 5.9-6.3 6.2-6.9 8.4-16 5-21.8 14.4-43.5 26.6-62 9.4-14.1 29.6-34.9 41.8-42.9 10.1-6.7 41-21.9 53.9-26.6 12.7-4.7 33.2-9.9 47.6-12.2 8.8-1.3 16.9-1.8 34.5-1.7 20.7.1 24.5.4 38 2.9 8.3 1.5 19.3 3.1 24.5 3.5 17 1.4 33.4 6.3 45.1 13.5 3.1 1.9 8.9 4.6 13 6.1 16.5 5.9 30.7 15.4 39.8 26.7 3.1 3.9 6.7 7.9 8.1 9.1 1.4 1.2 6 5.5 10.3 9.6 17.4 16.6 25.2 30.5 31.2 55.8 3.9 16.3 11 32 19.2 42 2.6 3.2 3.3 4.7 2.7 6.5-1.3 4.2-4.6 10.2-8 14.4-5.3 6.4-9 14.3-11.9 24.9-3.3 12.2-8 25-13.7 37.9-29.8 66.4-86 105.1-165.8 114-32.8 3.6-80.9-4.5-113-19.1-10.5-4.8-22.5-11.3-31-16.9-3.6-2.3-9.1-5-12.2-5.9-3.4-1-6.2-2.4-6.8-3.5-.5-1.1-4-4.1-7.7-6.7-3.8-2.6-8.3-5.9-10.2-7.3-11.1-8.3 13.4 16.8 27.4 28.1 18.9 15.2 46.2 30.1 69.2 37.7 15.1 5 37.6 9.6 54.7 11.2 14.3 1.3 49.8.7 63-1.1 15.3-2.1 47.7-14.3 67.9-25.7 20.9-11.7 34.4-22.1 50.7-38.9 26.4-27.3 40.5-53.3 54.6-100.7 2-6.9 7.2-15.7 13.2-22.6 3.8-4.5 4.2-5.5 4.2-10.3 0-5.1-.2-5.6-4.9-10.2-7.5-7.4-11.2-16.4-12.3-29.5-.5-6.4-1.8-13.5-3.2-18.1-1.4-4.1-2.8-9-3.1-10.9-.4-1.8-2.2-5.8-4-8.8-1.8-3.1-4.3-8.7-5.6-12.6-2-6.3-3-7.8-9.5-14-4.1-3.8-9-9.4-11.1-12.5-4.5-6.9-19.2-23.2-20.8-23.2-.7 0-2.5-1-4.1-2.3-4.7-3.7-12.6-8.1-17.9-10.1-2.7-1-8-3.6-11.7-5.7-3.6-2.2-8-3.9-9.6-3.9-1.6 0-3.7-.9-4.8-2.1-1.1-1.2-2.6-1.8-3.8-1.5-1 .3-3.1-.1-4.5-.8-1.4-.8-6.4-2.2-11.1-3.1-9.7-2-21.5-5.8-28-9-3.1-1.5-7.3-2.4-13.3-2.9-4.8-.4-12-1.6-16-2.7-5.2-1.5-12.3-2.3-25.7-2.9-11.2-.5-20.7-1.5-24-2.4-3-.9-5.5-1.5-5.5-1.5 0 .1-3.4.8-7.5 1.5zm858.1 2.3c-2.9 1-6.2 2.8-7.4 3.9-2 2.1-2 2.1-.1 2.8 1 .4 6.2 5 11.4 10.3 5.3 5.3 12.2 11.4 15.5 13.6 3.3 2.2 6.3 4.4 6.6 4.8.3.5 1.2 3.4 1.9 6.5s1.9 6.5 2.8 7.5c.8.9 2.6 5.8 3.8 10.7 1.3 5 4.1 12.8 6.2 17.3 2.1 4.5 4.5 10.4 5.1 13.2.7 2.7 1.9 5.7 2.7 6.6.7.8 2.5 5.8 3.8 11 1.3 5.3 3.9 12.4 5.6 16 3.6 7 13 33.3 15 41.8.7 3 2.3 6.9 3.5 8.7 1.2 1.8 5 11.5 8.5 21.6 3.5 10 7.9 21.4 9.7 25.2 1.9 3.8 4.1 9.6 4.8 13 .7 3.3 2.7 9.1 4.3 12.7 1.7 3.6 3.8 9.4 4.7 13 .9 3.5 2.7 8.8 4.1 11.6 1.3 2.9 2.7 6.7 3.1 8.5.3 1.8 1.3 4.6 2.3 6.3 1 1.6 2.3 5.5 3 8.5.6 3 2 6.7 3.1 8.2 1 1.5 1.9 4.1 1.9 5.7 0 1.7 1.3 5.2 2.9 7.8 5.2 8.5 11.2 25.4 9.2 26.1-.6.2-2.9 3.9-5.1 8.1-2.3 4.3-6.1 10-8.6 12.6-4.2 4.4-4.5 5-3.9 8.5.6 3.4 1.3 4.3 5.9 6.9 2.9 1.6 6.9 4.4 8.8 6.3l3.6 3.3 31.8-.1c17.6-.1 45.6.2 62.4.7 16.8.4 31.4.8 32.5.8 1.1-.1 2.9 0 4 0 11.5.4 25.7.3 28.8-.3 3-.6 3.7-1.1 3.7-3.1 0-1.3-.6-2.8-1.4-3.2-.8-.4-2.1-2.5-2.9-4.5-.9-2.1-2.1-3.8-2.6-3.8-.6 0-1.8-1.7-2.6-3.7-.9-2.1-3.5-6.3-5.9-9.3-9.6-12.3-13.1-22.4-9.1-26.4.8-.8 1.5-3 1.5-4.8 0-1.8 1.3-6 2.9-9.3 1.6-3.3 3.5-8 4.2-10.5.7-2.5 2.3-6.2 3.6-8.2 1.3-2.1 2.3-5.2 2.3-7 0-1.7.6-3.9 1.4-4.7.8-.9 3-5.9 4.9-11.1 4.9-13.2 7.5-19 8.6-19 .6 0 2.1.5 3.4 1.1 2.6 1.2 4.1 4.8 5.3 12.9.4 2.5 1.5 5.5 2.4 6.7 1 1.3 2.1 4 2.5 6 .4 2.1 1.8 6.1 3.1 8.9 1.3 2.8 2.4 5.9 2.4 6.9 0 .9 2 6.5 4.4 12.4 2.5 5.8 6 15.5 7.9 21.6l3.4 11-2.9 4.3c-4.2 6.1-6.9 12.7-7.7 18.9l-.8 5.4 4.3 2.9c2.3 1.7 5.8 4.8 7.6 7l3.5 4 77.6.6 77.7.7v-2.5c0-1.9-.6-2.7-2.4-3.2-1.4-.3-2.7-1.5-3.1-2.6-1.2-3.8-10.8-17.4-16.2-23.2l-5.6-5.8 4.7-13.2c2.6-7.3 5.2-15.3 5.8-17.8.6-2.4 2.6-6.7 4.4-9.5 1.9-2.7 3.4-5.8 3.4-6.8 0-2 5.6-16.9 10.4-27.7 8.9-19.7 13.8-32.7 17.5-45.9 2.3-8.3 4.8-15.3 6-16.5 1.1-1.1 3.1-5.3 4.6-9.1 1.4-3.9 4.1-9.8 6-13.3 1.9-3.4 3.8-8.1 4.2-10.4.3-2.3 2.8-8.9 5.5-14.5 2.6-5.7 5.4-13.4 6.2-17.2 2-9.7 8.8-26.5 14.6-36.2 2.8-4.5 5-9.1 5-10.1 0-4.1 3.5-15.4 5.1-16.8 1-.8 3.4-7 5.4-14 2-6.9 4.5-13.7 5.5-15.1 1-1.4 2.5-5 3.4-8 3.8-13 5.4-15.6 11.5-19 6.4-3.6 17.8-12.4 18.3-14.1.3-.7-.6-2.8-2-4.8-1.3-1.9-2.6-4.7-2.9-6.2-.4-2.3-.9-2.7-2.8-2.2-1.3.3-3.9-.3-6.2-1.4-5.9-3-15.5-4.7-19.4-3.3-1.7.6-3.6.8-4.1.5-.6-.4-16.4-.6-35.2-.5-18.7.2-35.4.1-37.1 0-3.1-.3-31-.5-35.5-.2-1.4.1-5 .1-8 .1-3-.1-6.4-.1-7.5 0-1.1 0-9.8-.2-19.2-.4-9.5-.3-17.3-.3-17.3-.1 0 2.5 3.8 9.9 7.3 14 5.8 6.9 8.1 11 10.3 18.2 1 3.3 2.5 6.5 3.3 7.1 2 1.5-1.2 15-4.3 18.4-1.8 1.9-2.5 4.1-2.9 8.8-.4 4.7-1.5 8.2-4.5 14-2.2 4.2-6.6 14.2-9.7 22.2-3.1 8-6.8 17.1-8.2 20.2l-2.5 5.7-3.3-1.6c-3.1-1.5-3.4-2.1-5.5-11.7-1.3-5.5-3.6-12.8-5.2-16.1-1.5-3.3-3.1-7.4-3.4-9.2-.3-1.8-1.2-3.7-2-4.4-.8-.6-1.4-2.5-1.4-4.1 0-1.6-.8-4.5-1.9-6.6-1-2-2.3-6-3-8.7-.7-2.8-3-9.2-5.2-14.4-2.2-5.1-4.9-12.7-6-16.8l-2.1-7.5 3.5-2.9c4.3-3.5 6.7-8.5 6.7-13.7 0-4.6-.5-5.1-9-8.8l-6.5-2.9-32-.2c-17.6-.1-33.6-.2-35.5-.2-4.5-.1-55.2.5-69 .8l-10.5.2 3.5 2.7c6.4 4.8 12.9 12 15.7 17.4 2.3 4.5 2.8 6.5 2.8 13.3 0 8.6-2.1 14.6-8.3 23.7-2 3-3.4 7.1-4.6 13.2-3.1 15.9-9.6 31.8-17.9 44.1l-4.1 6-1.2-4.1c-.7-2.3-1.9-5.3-2.8-6.6-.9-1.3-2.5-6.2-3.7-10.8-1.9-7.6-3.8-13-10.1-28.5-8-19.6-10.1-25.5-11.5-32l-1.6-7.3 3.7-5c2-2.8 4.6-7.1 5.7-9.7l2.1-4.7-3.4-3.2c-1.8-1.7-4.2-4.4-5.3-5.9l-2-2.8-19.5-.6c-10.7-.3-22-.6-25-.5h-15c-18.7-.2-36.6-.3-43-.2-15.2.4-55.1-.2-62.5-.9-6.6-.6-8.9-.4-13.4 1.2zm150.5 4.6c7.2.3 14 .8 15.2 1.2 2.1.8 2 1.1-2.7 8.3-2.7 4.1-6 8.8-7.3 10.3-2.3 2.8-2.3 3.2-1.5 13.4.5 6.8 1.5 11.9 2.6 14.2 1 2 2.4 6.1 3.1 9.1.7 3 2.3 6.7 3.6 8.1 1.6 1.6 4.4 8.6 7.9 19.5 3 9.3 5.5 17.5 5.5 18.2 0 .8 1.6 4.1 3.5 7.3 2.4 4.2 3.3 6.7 2.9 8.3-.4 1.6 1.1 5.9 4.9 13.7 3.1 6.3 6.1 13.9 6.8 16.9 1.6 6.9 2.2 7.6 5.3 6.2 3.3-1.5 7.3-9.5 12.1-24.2 2.1-6.3 4.8-12.9 6.1-14.5 2.4-3.2 5.2-10.5 8.6-22 1.1-3.9 2.6-7.7 3.4-8.6.8-.8 1.4-2.4 1.4-3.3 0-3.7 3.2-14.2 5-16.1.9-1.1 2.3-3.8 3-6 .7-2.2 2.3-6 3.5-8.5 1.2-2.5 3.9-9.3 5.9-15.1l3.7-10.5-6-11c-3.4-6-6-11.6-5.9-12.4.2-.8 1.4-1.7 2.8-2.1 3.4-.9 107.1-.9 113.7 0 2.9.4 5.6 1 5.9 1.4 1.2 1.2-5.7 13.4-10.7 19-2.7 3.1-4.9 6.3-4.9 7.2 0 .8.8 3.2 1.9 5.3 1 2 2.2 5.3 2.6 7.2.3 1.9 2.4 7.1 4.6 11.5 4.4 8.8 6.9 17 6.9 22.6 0 2 .7 4.2 1.4 4.9.8.6 2 2.8 2.7 4.8.6 2 2.2 6.1 3.5 8.9 1.4 2.9 2.7 6.7 3.1 8.5.3 1.8 1.8 5.5 3.3 8.3 1.5 2.7 3.1 7.4 3.4 10.4.4 3 1.8 7.6 3.2 10.3 1.4 2.7 3.3 8.2 4.3 12.1 1 4 2.9 8.9 4.3 10.9s2.8 5.5 3.2 7.7c.6 4 .7 4.1 4.5 4.1s3.8 0 5-5.3c.6-2.8 2.5-7.6 4.1-10.6 1.9-3.5 3-6.9 3-9.4 0-3 1.6-7.1 6.5-16.3 3.6-6.8 6.5-13.6 6.5-15.1 0-1.6.4-3.3.9-3.9.5-.5 1.9-3.8 3.2-7.4 1.2-3.6 3-7.6 3.9-9 .9-1.4 2.3-4.8 3-7.5.7-2.8 2.1-5.9 3.1-7 .9-1.1 4.2-9.8 7.3-19.4l5.5-17.5-5-8.6c-4.7-8.1-11.7-25.5-10.7-26.5.9-.9 29.1-2.7 31.1-1.9 1.2.4 25.8 1.1 54.7 1.5 28.9.4 53 .8 53.5.8.6.1 5.9-.1 11.9-.5l10.8-.7-.7 2.4c-2.4 8.1-13.5 21-22.4 26-3.5 1.9-4.5 3.4-7.1 9.8-1.7 4.2-3.6 8.5-4.2 9.6-2.3 4.1-2.7 5.2-5.3 14-1.5 4.9-4.2 11.9-6.2 15.4-2 3.9-3.2 7.2-2.9 8.4.3 1.2-.3 3.2-1.4 4.7-1.1 1.5-3.1 6.5-4.6 11.1-2.8 9-7.6 19.4-11.8 25.5-1.4 2.1-2.6 4.5-2.6 5.4 0 2.3-10.7 33.8-13.4 39.5-1.3 2.7-3.1 7.9-4 11.5-.9 3.6-3 8.5-4.6 11-1.7 2.5-3.4 5.2-3.9 6-.5.8-2.1 6-3.6 11.5-1.4 5.5-4.2 13.5-6.1 17.7-1.9 4.2-5.3 13.2-7.5 20-2.2 6.8-4.9 13.2-5.9 14.3-1 1.1-2.1 4.4-2.5 7.5-.4 3-1.9 7.7-3.4 10.5-1.6 2.7-4.3 9-6.2 14-1.8 4.9-4 10.1-5 11.5-.9 1.4-2.6 5.6-3.9 9.5-1.3 3.8-3.8 10-5.6 13.7-1.9 3.7-3.4 7.4-3.4 8.3 0 .8 2.7 4.7 6 8.6 6.1 7.3 10.8 15.5 9.5 16.7-1 1-85.5.2-88.2-.9-1.5-.5-3.2-.4-4.8.3-1.9.8-3.8.8-7.9-.2-4.1-1-6.8-1-10.8-.3-5 1-14 .4-15.5-1-.7-.7 2.8-10.6 6.4-18.4l2.5-5.2-3.5-8.3c-3.8-8.8-6.7-17.2-6.7-19 0-.5-1.7-4.9-3.9-9.7-4.7-10.4-8.6-22.6-10.2-31.8-.7-3.7-2-7.7-3-8.8-1-1.1-2.1-3.3-2.5-4.8-.3-1.6-2-5.7-3.6-9-1.7-3.4-4.8-11.8-7-18.7-2.2-6.9-4.3-12.8-4.6-13.2-.4-.4-2.3-.3-4.2.1-4 .8-5.9 3.8-8.5 14.2-.9 3.5-3.1 10-5 14.4s-4.1 11.2-5 15c-.9 3.9-3.6 10.6-5.9 15-2.4 4.4-8.9 19.6-14.5 33.9l-10.1 25.8 2.7 2.1c5.9 4.4 11.5 11.3 15 18.4 2 4 3.3 7.6 2.9 8-.6.6-15.4 1.2-34.6 1.4-.8 0-5.5-.3-10.5-.7-4.9-.3-10.6-.2-12.5.3-1.9.5-5.1.6-7.1.2-2-.5-18.5-1-36.7-1.1-18.2-.2-33.4-.7-33.9-1.1-.4-.5 1.3-6.8 3.8-14.1l4.7-13.2-1.9-7.1c-.9-3.9-2.7-8.9-3.8-11.1-2.8-5.5-7.5-18.5-9.1-25.2-.7-3-3.3-9.5-5.7-14.3-2.4-4.8-5.7-12.7-7.4-17.5-5.8-16.4-9.5-26.7-12.1-33.2-1.4-3.6-4-11.5-5.8-17.5-1.7-6.1-4.7-14.8-6.7-19.5-1.9-4.7-5-12.7-6.9-17.8-1.9-5.1-4.1-10.6-4.8-12.1-.8-1.5-2.4-6.5-3.6-11.1-1.2-4.5-3.7-11.4-5.6-15.2-5.1-10.1-7.3-16-10.4-28.3-1.7-6.6-5.8-17.8-10.3-28-4.2-9.4-8.1-19-8.7-21.5-1.9-7.7-6.3-19.3-8.7-23-1.2-1.9-2.7-5-3.4-6.7-.8-2.5-2.5-4-7.1-6.5-9.1-4.9-13.8-11.3-13.8-19 0-1.9 1-1.9 64.8-1.3 35.6.3 70.6.8 77.8 1z"/><path d="M2039.2 43.4c-1.2 2-2.8 6.6-3.7 10.1-.8 3.6-2.2 8.2-3.1 10.2-.9 2.1-2.4 6.7-3.4 10.3-1 3.6-3.4 11-5.3 16.5-2 5.5-4.3 13.6-5.2 18-.9 4.4-2.9 10.4-4.6 13.2-1.6 2.9-2.9 6.3-2.9 7.6 0 1.2-.7 3.3-1.6 4.5-.8 1.2-2.2 4.6-3 7.4-.9 2.9-3.6 9.1-6 13.7s-4.4 8.8-4.4 9.4c0 .7-1.1 3.4-2.4 6.2-1.3 2.7-3.2 8.4-4.1 12.5-2 8.9-6.3 19.6-10.9 27.3-1.8 3-3.8 7.6-4.5 10.3-.7 2.7-2.5 7.6-4 10.9-1.6 3.3-3.5 9.8-4.4 14.5-1.9 9.9-7.8 22.6-13.4 28.9l-3.8 4.3-7.7-19.5c-4.3-10.7-7.8-20.5-7.8-21.8 0-1.3-.7-3.5-1.5-4.9-3-5.1-5.8-11.8-9.6-23-2.2-6.3-5.6-15.4-7.5-20.3-2-4.9-4.4-11.7-5.4-15.1-1-3.3-3-9.3-4.5-13.1-3.8-9.8-5.4-14.9-7.1-23-.8-4-2.9-9.3-4.8-12.5-5.8-9.6-6.5-11.4-6.3-17.1.2-4.5-.4-6.7-3.2-12.1-2.4-4.9-3.5-8.5-3.9-13.4-.4-5-1-7.2-2.4-8.4-1-.8-2.1-3.3-2.5-5.5-.3-2.2-2.2-7.4-4.3-11.7-2.1-4.2-4.1-9.4-4.5-11.6-.6-3.7-.9-4-3.8-4-1.8 0-6.9-.1-11.3-.2-4.5-.1-9.1.1-10.2.4-1.6.5-3.1 3.8-6.7 14.5-3.6 10.9-5.1 14.1-6.9 15.1-1.7.8-2.6 2.4-2.9 4.9-.2 2-3.9 11.4-8 20.8-4.2 9.5-8.7 21.2-10 26.1-1.3 4.9-3.3 9.8-4.3 10.8-1.2 1.2-3.3 7.1-5.3 14.7-1.8 7-4.2 13.9-5.3 15.3-1.1 1.3-2.6 5.2-3.4 8.5-.8 3.3-2.3 7.7-3.4 9.9s-2 5.4-2 7.2c0 1.8-.7 4.2-1.5 5.2-.8 1.1-2.2 4.4-3.1 7.5-.8 3.1-3.1 8.4-5 11.9-1.9 3.4-3.4 7.3-3.4 8.6 0 1.3-1.8 6.1-3.9 10.8-2.2 4.7-5.6 13.8-7.7 20.3-6.8 21.8-14.5 24.4-17.8 6.1-.4-2.2-1.8-5.3-3.1-7.1-1.3-1.7-2.7-5.1-3.1-7.5-.4-2.5-4.5-14.4-9.1-26.4-5.3-13.6-8.7-24.1-9.1-27.5-.3-3.7-1.9-8-4.8-13.5-2.3-4.5-4.8-10.1-5.4-12.6-.7-2.5-2.3-6.5-3.5-9-1.3-2.5-2.8-7.2-3.5-10.5-.6-3.3-2.9-9.8-5.1-14.5-2.1-4.7-4.2-10.8-4.5-13.5-.5-3.1-2.9-9.3-6.5-16.3-9-17.5-14.4-36.2-15.2-52.7-.2-4.4-.5-5.1-3.1-6.4-2.3-1.1-3.3-1.1-4.9-.2-1.5 1-2.2.9-3.5-.2-1.4-1.2-2.8-1.3-7.7-.5-3.3.5-11.1.8-17.2.5-6.2-.3-11.3-.4-11.3-.3 0 .1 1.3 3.8 2.9 8.2 1.6 4.3 3.2 9.9 3.6 12.4.3 2.5 2.9 9 5.6 14.5 3.5 7.1 5.6 12.8 6.9 19.6 1.8 8.6 5.2 17.7 13.3 34.9 1.4 3 3.9 9.9 5.6 15.2 1.6 5.3 4.6 13 6.5 17 3.4 7.1 6.6 17.5 6.6 21.7 0 1.1 1.5 4.9 3.4 8.3 1.9 3.5 4 8.3 4.6 10.8.6 2.5 2 6.3 3.1 8.5 1 2.2 2.2 5.6 2.5 7.5.4 1.9 1.8 5.1 3.1 7.1s3 6 3.8 8.9c.7 2.8 2.1 6.3 3.1 7.8s2.4 6.5 3.1 11.2c1 6 1.9 8.9 3.3 10 1 .8 2.6 4.3 3.4 7.7 2.6 9.8 6.3 20.3 8 22.2.9 1 1.8 4 2.1 6.7.4 2.7 2.4 8.5 4.5 12.9s5.9 14.3 8.3 22c3.7 12 4.6 14 6.3 13.8 1-.1 5.7-.7 10.2-1.3 4.6-.6 11-.8 14.3-.4l5.9.7v-5.2c0-4.3.8-6.6 5.4-14.8 3.5-6.4 6.5-13.6 8.6-20.7 1.7-6 4.9-14.3 7-18.4 2.2-4.1 4-8.7 4-10 0-1.4 1.3-5.5 2.9-9.1 1.6-3.6 3.8-10.2 5-14.6 1.3-4.4 3.4-9.5 4.8-11.4 1.6-2.1 3.1-6 3.9-10.4.8-4 2.9-10.3 4.8-14.2 1.9-3.8 4.6-11.5 6.1-16.9 1.5-5.5 4-12.6 5.5-15.7 3.6-7 11.6-28.5 16.4-44 3.7-11.9 8.1-19 12.7-20.4 2.7-.9 4.9 1.1 4.9 4.4 0 1.5 1.6 6.4 3.6 11 1.9 4.5 4.4 11.9 5.5 16.4 1.1 4.5 3.1 10.6 4.5 13.5 1.3 2.9 3.8 9.2 5.5 14 1.7 4.8 4.2 11.8 5.5 15.5 1.3 3.8 2.4 7.4 2.4 8.1 0 .7 2.9 7.7 6.5 15.7 4.6 10.2 6.5 15.6 6.5 18.6 0 2.3.9 5.7 1.9 7.5 1.1 1.8 2.7 5.8 3.5 8.9.8 3.1 2.9 8.5 4.6 12 3.8 7.5 7 16.3 7 19.4 0 1.2 1.8 5.6 4 9.8 4.2 8 8 20.5 8 26.5 0 2.5.7 4 2.5 5.4 2.3 1.8 2.5 2.6 2.5 9.8 0 9-.5 8.6 12.1 9.6 11.1 1 17-.7 22.9-6.5 4.8-4.6 8-11.8 8-17.9 0-1.4 1.3-4.8 2.9-7.6 1.6-2.8 5-11.5 7.5-19.3 2.6-7.8 5.3-14.7 6.1-15.3.8-.6 2.1-3.3 3-5.9.8-2.6 2.7-6.3 4-8.1 1.4-1.9 2.5-4.3 2.5-5.5 0-2.9 2.7-12.1 5.1-17.1 1-2.2 1.9-4.7 1.9-5.6 0-.8.9-3.5 1.9-5.9 1.1-2.4 2.5-6.7 3.2-9.4.6-2.8 2.2-6.1 3.4-7.5 1.3-1.4 2.6-4.1 3-6 .4-1.9 2.2-6.3 4.1-9.7 2.6-4.6 3.4-7.3 3.4-11.1 0-4 .7-5.9 3.4-9.9 1.8-2.6 3.7-6 4.1-7.3.4-1.4 2.4-7 4.5-12.5s4.5-12.5 5.5-15.5c.9-3 3.2-8.2 5-11.5 1.8-3.3 4.3-9.9 5.6-14.8 2-7.5 2.8-9 5.5-10.9 2.7-1.8 3.3-3 3.8-7.2 1.8-14.4 8.9-34 15.1-42.2 2.1-2.8 2.5-4.3 2.5-10.7v-7.5l-3.2-.5c-1.8-.3-10.3-.9-18.9-1.3l-15.6-.7-2.1 3.7zM151.7 10.6C98.3 20 53.2 42.2 18.9 76.1c-7 6.8-7.8 8.1-8.4 12.5-.4 2.7-2.3 7.5-4.1 10.7-2.6 4.5-3.2 6.2-2.5 8 .6 1.4.5 3-.2 4.2-.6 1.2-1.1 9.3-1.1 20.8-.1 17 .1 18.9 1.7 19.8.9.6 3.3 4.2 5.3 8.1 4.7 9.2 10 14.8 23.6 24.6 37.2 26.6 79.7 45.7 120.7 54.1 18.8 3.9 31.2 5.3 55.1 6.1 12.9.5 30.9 1.4 40 2l16.5 1.1 3.2 3.5c4 4.5 7.2 11.2 8 16.9.5 4 .2 5.1-3 9.9-2 2.9-6 7.9-8.9 11l-5.3 5.6-11.3 1.5c-60.2 8.1-113.6 1-164-21.8-6.8-3-14-5.8-16.2-6.2-2.1-.4-5.8-1.9-8.2-3.4-2.4-1.4-7.2-3.2-10.8-3.9-7.1-1.4-17.7-5.9-22.5-9.6-2.8-2.1-21-9.6-23.4-9.6-2.1 0-2.3 3.8-2.3 35.5 0 5.5-.1 12.9-.1 16.5-.1 3.6 0 10.3.1 15 .1 4.7.1 14.6.1 22-.2 28 .1 54.5.6 56.2.7 2 13.7 7.3 20.7 8.3 4.4.7 5.2.4 10.4-3 3.2-2.1 8.9-4.8 12.9-6.1 3.9-1.2 9.4-3.6 12.1-5.3 5.2-3.2 14.7-6.1 20-6.1 1.7 0 9.2 1.6 16.6 3.5 77.4 20 148.2 21.3 215.4 4.1 5.5-1.4 9.7-2 10.6-1.5 1 .6 2.6 0 4.8-1.6 1.9-1.4 4.4-2.5 5.7-2.5 1.2 0 4.4-1.3 7-2.9 2.7-1.6 7.2-3.6 10.2-4.5 3-.9 6.6-2.4 8-3.3 2.5-1.8 8.3-5.3 23.4-14.3 6.1-3.6 7.7-5.1 8.2-7.5.4-2.1 2.1-4.1 5.6-6.5 4.9-3.4 6.1-5 17.1-22 8.1-12.4 11.5-18.8 14.7-27.6 11.6-32.1 3-60.5-25.7-85-16-13.7-42.6-29-56.2-32.4-4.7-1.2-11.9-3.7-16.1-5.6-4.2-1.9-8.3-3.4-9-3.4-.8 0-3.4-1.2-5.9-2.6-3.2-1.8-5.4-2.4-7.7-2.1-2 .4-5.2-.3-9-1.9-3.3-1.3-7.9-2.4-10.6-2.4-2.7 0-9.3-1.1-14.8-2.5-7.6-1.9-10.4-2.3-11.9-1.5-1.6.8-2.6.7-4.2-.5-1.6-1.1-4.7-1.5-10.7-1.5-4.7 0-11.2-.6-14.5-1.4-3.4-.8-12.4-1.7-20.1-1.9-22.8-.8-36.7-5.4-41.9-14-3.4-5.5-5-15.2-2.3-14.1 1.1.4 2-.5 3.2-3 2.2-4.6 6.6-8.3 11.3-9.5 17.1-4.5 54.1-6.3 74.2-3.7 32.6 4.3 60.9 15.9 86 35.1 3 2.3 8 5 11 6 3 .9 7.5 2.8 10 4.1 2.5 1.3 9.8 4.2 16.3 6.3l11.7 4 1.6-3.7c1.5-3.4 1.5-4.6 0-13.8-1-6.9-1.2-11.1-.6-13.5 1.1-4.1 2-95.8.9-97.9-.4-.8-1-2.2-1.2-3.1-.4-1.1-3.3-2-10.3-3.2l-9.9-1.6L364 21c-9.7 6.2-23.3 11-31.2 11-2.6 0-7.3-1.7-14.8-5.5-6.6-3.3-12.3-5.5-14.2-5.5-1.8 0-4.9-.5-6.8-1.1-1.9-.5-8-1.6-13.5-2.4-5.5-.7-12.8-2.3-16.2-3.5-4.6-1.6-7.4-2-10.7-1.5-2.8.5-6.3.2-9.8-.8-7.9-2.3-22.1-3.1-54.1-3.1-25.1-.1-30.4.2-41 2zm15.8 3.3c4.4-.2 22.4-.4 40-.3 27.3 0 34.1.4 46.2 2.2 26.3 3.9 50.7 10.3 71.7 18.7l10.9 4.3 8.1-4.3c8.5-4.6 20.4-9 21.4-8 .4.3 1 4.7 1.4 9.8.3 5.1 1.2 14.5 1.7 21 .9 9.8.9 12.9-.4 17.5-1.2 4.6-1.2 7-.3 12.7.6 4.3.8 10.7.3 16.5-.4 5.2-.7 11-.7 12.7.1 1.8.2 7.5.3 12.6.2 5.1-.2 10-.7 11-1 1.7-1.4 1.6-6.6-1.1-3.1-1.6-7.2-3.5-9.2-4.2-2.1-.7-4-1.8-4.3-2.6-.2-.7-2.6-2.7-5.1-4.3-2.6-1.6-6.3-4.6-8.1-6.5-2-2-4.5-3.6-5.7-3.6-1.3 0-4.4-1.1-7.1-2.5-2.6-1.4-6.6-3-8.8-3.6-2.8-.7-4.8-2.2-6.9-4.9-2.2-2.9-3.8-4-6.7-4.5-2.1-.4-8.1-2.2-13.3-4-12.5-4.5-35.3-10-50.1-12.1-29.3-4.2-76-.7-85.3 6.3-1.9 1.4-6.3 5.3-9.9 8.6-7.3 6.9-7.4 7.4-2.9 17.3 5.5 12.1 22.9 24.9 33.3 24.6 1.7-.1 5.8.8 8.9 1.8 3.7 1.3 8.4 2 13.4 2 4.2 0 11.7.6 16.6 1.4 4.9.8 15.9 1.7 24.4 2 55.6 1.9 104.9 19.9 142.5 52.1 6.4 5.5 9.1 8.5 9.3 10.4.2 1.4 2.6 5.6 5.3 9.2 2.6 3.6 6.5 10.1 8.6 14.5l3.8 7.9-.1 13.5c0 13.2-.1 13.8-4.5 27.5-5 15.6-9.6 24.7-16.4 32.3-2.5 2.7-4.5 6-4.5 7.1 0 1.3-.9 2.5-2.2 3-1.3.5-5.1 3.4-8.6 6.5-10.6 9.4-22.1 16.2-33.9 20-2.8 1-6.8 3.1-8.9 4.7-2.5 1.9-4.4 2.7-5.6 2.3-1.1-.3-2.7.1-3.6 1-1 .8-5.3 2.2-9.7 3.1-4.3.9-10.7 2.7-14.1 4-3.4 1.3-7.2 2.1-8.3 1.8-1.1-.3-4.1.2-6.7 1.1-3.2 1.1-8.3 1.6-15.5 1.6-7.3 0-11.8.5-14.3 1.5-2.2 1-4.3 1.2-5.4.7-.9-.4-8.2-.6-16.2-.4-26.4.8-49-.1-59-2.2-4.1-.9-9.8-1.6-12.7-1.6-2.8 0-6.4-.5-8-1.2-1.5-.6-6.7-1.2-11.5-1.2-6.8-.1-9.1-.5-10.6-2-1.3-1.1-4.8-2.1-9.9-2.7-11.1-1.4-23.4-4.4-31.6-7.9-10.3-4.3-12.4-4.1-26.8 3.4-17.9 9.3-27.5 12.8-43.7 16.1-3.1.6-3.2.6-2.3-1.8.6-1.5.6-3.9.1-5.9-.8-3.2-2-112-1.2-116.5l.3-2.2 6.2 2.4c3.4 1.3 13.1 5.3 21.5 8.9 8.4 3.5 19.8 7.9 25.3 9.6 5.5 1.7 10.2 3.7 10.6 4.5.3.8 1.5 1.5 2.7 1.5 3.2 0 11.3 2.5 24.6 7.5 49.6 18.7 101.4 24.5 150.5 16.9 9-1.4 10.6-2 16.1-5.9 7.3-5.2 16.2-14.7 17-18.2 1-4-.2-13.3-2.7-19.8-1.6-4.4-3.8-7.6-8.3-12.1-7.6-7.5-14.6-10.9-24.4-11.8-4-.4-9.4-1.4-12-2.2-2.8-.8-9-1.4-15.2-1.4-5.8 0-15.4-.7-21.5-1.5-6-.8-13.8-1.5-17.2-1.5-3.8 0-6.7-.5-7.5-1.3-.9-1-5.7-1.6-14.8-2.1-50.2-2.8-91.9-17.5-128.1-45.2-13.9-10.7-15.3-12.5-18-23.6-3.1-12.8-3.8-36.2-1.4-47.9C14.4 92.5 16.7 87 21.9 82c2.6-2.5 5.6-5.9 6.5-7.5 1-1.7 3.4-4.2 5.4-5.5 1.9-1.4 6.1-5.1 9.3-8.3 3.6-3.5 7.4-6.3 10.1-7.3 2.4-.8 6.5-3.7 9.3-6.3 3.9-3.8 6-5.1 9.5-5.6 2.4-.4 8.2-2.9 12.9-5.6 16.1-9.3 31.6-14.4 46.6-15.6 5-.4 9.5-1.3 12-2.6 6-3 11.8-4.7 14-4 1.1.3 5.6.4 10 .2z"/><path d="M165.3 35.7c-1.9.7-7.4 1.8-12.2 2.4-4.7.6-10.6 1.7-13.1 2.5s-5.6 1.4-7 1.4c-3.4 0-23.4 8.5-28.7 12.1-4.4 3.1-16.8 9.3-20.2 10.2-1.2.3-2.4 1.4-2.8 2.5-.5 1.2-3.7 4.4-7.3 7.2-22.3 17.6-21.3 16.1-23 34.8-3.8 43.3 19.7 68.2 81 85.8 3 .9 9.8 1.9 15.1 2.4 5.3.4 12.2 1.5 15.2 2.4 4.1 1.2 7.5 1.4 12.5 1 5.4-.5 7.5-.3 9.2.9 1.8 1.2 4.7 1.4 16.3 1 10.6-.3 16.3 0 22.2 1.1 4.4.9 12.7 2.1 18.5 2.6 12.7 1.2 23.5 3.4 31.5 6.6 3.3 1.2 9.6 3.3 14 4.4 4.4 1.2 9.6 3.4 11.5 4.8 10.5 7.8 25 24.2 29.8 33.7 1.8 3.7 1.9 4.6.8 11.6-1.7 10.1-10 29.3-14.1 32.5-4.6 3.5-24.9 13.8-35.4 17.9-12.7 5-33.1 10-47 11.5-13.6 1.5-39.8.7-51.6-1.5-4.4-.9-14.1-1.9-21.5-2.4-8.8-.6-15-1.5-17.7-2.6-2.5-1-5.3-1.5-6.7-1.1-2.9.7-23.4-4.3-30.3-7.5-2.7-1.1-7.1-2.2-10-2.3-3.7-.1-5.9-.7-7.5-2.2-1.3-1.2-4.8-2.8-7.8-3.7-4.9-1.4-22.2-8.4-26-10.6-.8-.4-1.9-2.2-2.4-4l-.9-3.2-7.1.3-7.1.3.3 5c.2 2.7.3 12.4.3 21.5-.1 20.4 1.3 33 3.8 33 1 0 5.5-2.2 10-5 9.1-5.4 16-8.3 26.5-10.9l6.8-1.8 12.2 3.9c22.9 7.3 46.6 12.8 72.1 16.5 17.3 2.5 68.9 2.5 86 0 23.4-3.5 49.3-10.1 68.8-17.7 9-3.5 11-4.7 11.8-6.9.5-1.4 3.2-4.1 5.9-6 7.3-4.9 18.2-16.9 22.6-24.7l3.9-6.9-.1-16.5c-.1-13.5-.5-17.9-2.2-24.1-2.7-9.8-7.6-19.8-11.3-22.7-1.6-1.3-2.9-3-2.9-3.7 0-.8-1-2-2.2-2.6-1.3-.6-3.6-2.7-5.1-4.5-1.5-1.8-5.5-4.8-8.9-6.6-3.3-1.7-8.3-5.2-11.1-7.8-2.8-2.5-6-4.5-7.1-4.6-1.2 0-5.2-1-9.1-2.2-38.4-11.3-51.9-14.2-66.8-14.2-5.2 0-8.8-.5-10.9-1.6-2-1-4.2-1.4-6.4-1-1.9.4-5.9 0-9.2-.8-3.9-1-6.8-1.3-8.8-.7-1.9.5-6.3.2-12.9-1-5.5-1-14-1.8-19-1.9-4.9 0-11-.6-13.5-1.4-2.5-.7-8.3-1.7-13-2.1-5.2-.4-9.2-1.3-10.2-2.2-.9-.9-5-3-9-4.7-10.8-4.7-17.5-8.8-25.6-15.6-3.9-3.3-8.1-6-9.1-6-4.7 0-5.5-26.1-1.2-37.2 7.8-20.2 29.2-33.6 66-41.6 12.2-2.6 13.6-2.7 42.1-2.7 25.8.1 31.1.4 42.5 2.3 33 5.7 63.3 16.7 88.5 32.1 5.6 3.4 6.6 3.7 7.2 2.3.4-.9.7-7.6.8-14.7.1-7.2.5-15.2.9-17.9l.8-4.8-7.1.7c-3.9.3-9 1.1-11.4 1.7-4.1 1-4.4.9-13-4.5-6.8-4.2-10.5-5.8-16.7-7.2-4.4-.9-10.2-2.6-13-3.7-2.7-1.2-7.7-2.4-11-2.8-3.3-.4-8.9-1.2-12.5-1.8-28.9-4.4-82.1-7.1-89.7-4.5zm524.2.8c-54 6.6-91 22-118 49-19.7 19.6-32 42.9-38.6 72.8-2 9.2-2.4 10.1-6.9 14.7-2.7 2.8-5.1 5.9-5.5 6.9-.4 1.4 1.5 5.6 5.9 13.4 5.5 9.4 6.6 12.2 6.6 15.9 0 2.5.3 7.3.6 10.7.6 5 1 6.1 2.3 5.6 1.3-.4 2.3 1.6 4.9 9.3 4.7 13.7 12.8 30 21.2 42.5 22.4 33.6 55.6 54.7 96.3 61.2 32.2 5.1 41.3 6 61.2 5.9 28.8-.1 45.7-3.6 67.3-13.9 13.9-6.7 24.1-13.6 35-24 14.4-13.6 24.5-27.7 38-53.1 6.8-12.9 8.2-16.3 9.3-23 .6-4.4 2.4-12 4-17 1.5-5 3.1-11.4 3.5-14.3.5-4.1 1.2-5.6 3.5-7.2 3.7-2.6 3.7-5.9 0-10.1-2.6-3.1-3.3-5.2-4.5-14.5-.2-1.7-1.1-5.6-1.9-8.5-.9-2.9-2.1-8-2.7-11.3-.7-3.3-2.9-9.6-5-14s-4.8-11.1-6.1-14.8c-2-5.5-3.3-7.6-7.2-10.9-2.7-2.2-9.1-9.7-14.3-16.6-7.7-10.3-10.4-13.1-14.7-15.4-2.9-1.6-7-4.6-9.2-6.7-2.2-2.1-5.8-4.4-8-5.1-5.9-1.9-13-5.6-16.7-8.9-2-1.7-5.5-3.3-8.8-4.1-3-.6-6.7-2-8.1-3-1.4-1-6.6-2.6-11.4-3.5-4.9-.9-13.2-3-18.3-4.7-6.9-2.2-11.7-3-18.1-3.2-4.7-.2-12.2-.6-16.6-.9-4.6-.3-12.6 0-19 .8zm40 30c32.2 5.4 54 16.1 75 37 13.2 13.1 20.1 22.5 28.5 39.3 4.5 8.8 5.4 11.6 6.2 19 1.3 11.3.4 37.2-1.7 48.7-4.6 25.4-17.3 50.9-35.2 71-3.1 3.5-6.1 7.8-6.7 9.7-1 3-2.5 4-14.5 10-15.3 7.7-33.1 13.8-47.6 16.3-15.4 2.7-35.9 2.2-51-1-6.6-1.5-15.5-3.3-19.7-4.1-11.3-2.1-24.1-6-32.5-9.9-22-10.2-39.9-28.9-49.3-51.5-1.9-4.7-4.9-10.8-6.7-13.6-2.7-4.2-3.4-6.7-4.8-16.9-2.1-15.6-2.2-42-.1-54.5 6.5-40.1 26.9-68.3 62.1-85.8 16.3-8.2 34.3-13.9 47.5-15.3 10.9-1.1 40-.2 50.5 1.6z"/><path d="M691.9 92c-.9.5-4.7 1.3-8.5 1.8-3.8.6-11.4 2.5-16.9 4.5-5.5 1.9-12.7 4-15.9 4.7-5.3 1.1-6.6 1.9-12.6 8-9.7 9.9-16.5 19.2-22 30.5-7.4 15-9.4 23.9-9.4 41.5 0 51.1 20.1 86.6 57.6 101.4 15.7 6.2 39.1 9.5 55 7.7 20.3-2.3 31.8-8 46.6-23.1 17.2-17.5 24.8-29 28.9-44 2.7-9.8 2.5-49.6-.4-63-8.4-39.1-33.5-61.3-77.8-68.4-12.9-2.1-22.7-2.7-24.6-1.6zm45.5 15.9c21.5 5.7 37.3 18.6 47.4 38.6 6.5 12.9 7.3 16.6 7.9 33.5 1.1 30.6-5.4 55.5-20.4 78.2-2.4 3.7-5.4 7-6.6 7.4-1.2.3-4.4 2.8-7.2 5.3-6.9 6.4-15.4 12.7-19.5 14.5-5.5 2.2-22.2 3.9-32.9 3.3-34.4-2.1-55.6-20.5-68.5-59.8-10.6-32-11.6-60.2-3-79.8 3.7-8.2 10.9-17.6 18.2-23.7 9.6-7.9 28.1-16.5 41.7-19.4 7.4-1.6 34.2-.4 42.9 1.9z"/></g></svg>