<svg version="1" xmlns="http://www.w3.org/2000/svg" width="150" height="100" viewBox="0 0 1994.000000 484.000000"><path d="M154.5 3.2c-1.1.6-4.3 3.3-7.2 6.1-3.8 3.6-5.7 4.8-7.2 4.4-1.1-.2-2.8.1-3.7.7-2.1 1.6-1.4 7.3 2.1 17.5l2.3 6.9-7-2.4c-3.9-1.3-9.2-2.6-11.8-3-4.1-.5-5-.3-5.8 1.3-.6 1.1-.7 2.5-.2 3.3.6 1-.7 3.1-4.9 7.5-3.2 3.3-6.1 7-6.5 8.2-1 3 1.2 6.8 7.3 12.7 4 4 4.8 5.3 4.1 6.7-1.4 2.5-.2 4.9 2.4 4.9 4.9 0 13.8-2.4 20-5.4 3.6-1.8 6.6-3 6.6-2.7 0 .3-1.8 2.6-3.9 5.1-4.4 5.1-13.3 10-18.1 10-4.5 0-13.8-5.2-21-11.7-6.5-5.9-7.9-8.8-5.9-12.5 1.1-2.1.9-2-1.4.4-5.6 6-15.7 2.3-15.7-5.7 0-4.8 1.5-7.4 5.3-9 2-.9 2.5-1.4 1.4-1.5-1 0-3.2 1.3-4.8 2.9-3.4 3.5-3.8 8.1-1.2 13.5 1.6 3.4 1.6 3.6-1.1 7.1-6 7.8-19.7 16.5-26 16.5-4 0-12.6-5.5-17.6-11.3l-3.3-3.8 3.4 2c4.4 2.6 18.1 6.3 21.7 5.9 2.3-.3 2.7-.8 2.8-3.6 0-2.5 1.2-4.4 5.1-8.5 9-9.3 9.1-10.9.5-20-4.3-4.5-5.6-6.5-5.6-9-.1-3.2-.1-3.2-5.1-3-2.8.1-8.8 1.5-13.3 3.1s-7.8 2.4-7.3 1.8c2.1-2.5 5.3-17 4.8-21.4-.6-5.3-2.3-6.7-5.5-4.6-2.2 1.5-2.5 1.3-6.5-3-2.3-2.4-5.5-4.8-7-5.1-4.2-1.1-12.6 0-14.5 1.8-1.5 1.5-1.3 2 2.5 5.4 5 4.6 6.9 9 8.2 18.9 1.7 11.9 1.4 15.2-1.4 18.6-3.6 4.3-3.3 9.1.9 15.3 5.5 8 7.7 26.4 3.6 30.5-2.4 2.4-2.5 4.5-.6 8.2 1.3 2.5 1.2 3-1.5 6.4-4.2 5.3-3.5 5.7 1 .6l3.8-4.3 10.4 4.6c5.7 2.5 10.8 5 11.2 5.4.4.4-4.3 3.1-10.4 5.8l-11.2 5.1-3.4-4.1c-5.2-6.2-5.8-6.6-3.2-2 2.3 4 2.3 4.2.6 7.8-.9 1.9-1.7 4.6-1.7 6 0 1.5-.7 2.6-2 3-3 .9-3.3 4.2-2.1 18.8.5 7.2 1.3 17 1.6 21.7.3 4.7 1.2 18.4 2 30.5 3.1 44.7 3.6 51.5 5 73.5.8 12.4 1.9 28.6 2.5 36 .5 7.4 1.5 21.1 2 30.5 1.6 25.5 3.6 36.6 9.1 49.5 1.8 4.3 2.5 4.8 9.2 7.4 4.1 1.7 10 3.1 13.7 3.3 5.6.4 7.6.1 14.5-2.7 6.8-2.7 8.9-3.1 14-2.7 3.3.3 8.3 1.5 11 2.7 8.5 3.7 14 3.7 24.4.1 10.6-3.6 15.6-3.9 23.6-1.1 3.1 1.1 6.2 1.7 6.8 1.3.6-.4.7-.1.2.7-.6 1-.3 1.2 1.4.7 1.8-.4 2.1-.2 1.6 1-.7 2.1 1.1 3.3 5 3.3s5.7-1.2 5-3.3c-.5-1.2-.2-1.4 1.6-1 1.7.5 2 .3 1.4-.7-.5-.9-.4-1.1.4-.6.6.4 3.6-.2 6.7-1.3 7.5-2.9 12.8-2.6 23.5 1 10.4 3.6 15.9 3.6 24.4-.1 2.8-1.2 7.7-2.4 11-2.7 5.1-.4 7.2 0 14 2.7 6.9 2.8 8.9 3.1 14.5 2.7 6.4-.4 19.7-4.9 21.2-7.1 1.4-2.1 4.8-11.6 6.8-19.3 1.1-4.2 2.4-14 3-21.7.5-7.8 1.4-20.4 2-28.1.5-7.7 1.7-24.1 2.5-36.5 1.8-27.6 3.3-48.2 4.5-66 .6-7.4 1.7-23.9 2.5-36.5.8-12.7 2-29.2 2.6-36.8 1.2-15.1.9-18.3-2.1-19.2-1.4-.4-2-1.5-2-3.4 0-1.5-.7-3.6-1.5-4.7-2-2.7-1.9-5.1.6-9.3 2-3.3 1.8-3.2-2.1 1.1-2.3 2.7-4.7 4.8-5.3 4.8-2.3 0-21.7-9.4-21-10.1.5-.4 5.5-2.9 11.2-5.4l10.4-4.6 3.8 4.3c4.5 5.1 5.2 4.7.9-.7-2.7-3.4-2.8-3.9-1.5-5.8 2.1-3 1.9-6.3-.5-8.7-4.1-4.1-1.9-22.5 3.6-30.5 4.3-6.4 4.6-11.4.8-15.2-3.3-3.3-4-8.1-2.5-17 2.1-11.8 3.2-14.5 8.5-19.6 4.4-4.4 4.7-5 3.3-6.4-1.8-1.8-10.2-2.9-14.4-1.8-1.5.3-4.7 2.7-7 5.1-4 4.3-4.3 4.5-6.5 3-3.2-2.1-4.9-.7-5.5 4.6-.5 4.4 2.7 18.9 4.8 21.4.5.6-2.8-.2-7.3-1.8s-10.5-3-13.3-3.1c-5-.2-5-.2-5.1 3 0 2.5-1.3 4.5-5.6 9-8.6 9.1-8.5 10.7.5 20 3.9 4.1 5.1 6 5.1 8.5.1 2.8.5 3.3 2.8 3.6 3.6.4 17.3-3.3 21.7-5.9l3.4-2-3.3 3.8c-5 5.8-13.6 11.3-17.6 11.3-6.3 0-20-8.7-26-16.5-2.7-3.5-2.7-3.7-1.1-7.1 2.6-5.4 2.2-10-1.2-13.5-1.6-1.6-3.8-2.9-4.8-2.9-1.1.1-.6.6 1.4 1.5 9 3.9 6.3 17.5-3.4 17.5-2.1 0-4.8-.7-5.9-1.5-2-1.3-2.1-1.3-1.6 1.1C220.8 69 200 85 192 85c-4.8 0-13.7-4.9-18.1-10-2.1-2.5-3.9-4.8-3.9-5.1 0-.3 3 .9 6.6 2.7 6.2 3 15.1 5.4 20 5.4 2.6 0 3.8-2.4 2.4-4.9-.7-1.4.1-2.7 4.1-6.7 6.1-5.9 8.3-9.7 7.3-12.7-.4-1.2-3.3-4.9-6.5-8.2-4.2-4.4-5.5-6.5-4.9-7.5.5-.8.4-2.2-.2-3.3-.8-1.6-1.7-1.8-5.8-1.3-2.6.4-7.9 1.7-11.8 3l-7 2.4 2.3-6.9c3.5-10.2 4.2-15.9 2.1-17.5-.9-.6-2.6-.9-3.7-.7-1.5.4-3.4-.8-7.2-4.4-4.9-4.8-8.6-7.3-10.4-7.3-.4 0-1.7.6-2.8 1.2zm9 46.8c4.7 4.7.9 13.4-5.9 13.4-6.1 0-10-5.8-7.4-11.2 2.6-5.3 9-6.3 13.3-2.2zm4.7 60.6c5.7 2.5 10.6 4.9 11.1 5.3.8.8-19.3 10.4-21.8 10.4s-22.6-9.6-21.8-10.4c.9-.9 20.3-9.8 21.5-9.8.4-.1 5.4 1.9 11 4.5zm-63.8.6c2.2 3.1 2 8-.4 10.6-1.9 2-3 2.2-15 2.2-11.7 0-13.2-.2-15-2-2.5-2.5-2.7-8.6-.3-11.2 1.4-1.6 3.3-1.8 15.4-1.8 13.1 0 13.9.1 15.3 2.2zm136.8-.5c2.5 2.3 2.4 8.7-.2 11.3-1.8 1.8-3.3 2-15 2-12 0-13.1-.2-15-2.2-2.4-2.6-2.6-7.5-.4-10.6 1.4-2.1 2.2-2.2 15.1-2.2 11.3 0 14 .3 15.5 1.7zm-76.7 37.7c4.7 2 7.5 6.9 7.5 12.9 0 5.8-1.2 8.2-5.2 10.7-2.9 1.7-3 2.1-3.1 8.9-.2 8.6.4 8.8 8.9 3.3 10.5-6.8 14.9-14 16.2-26.4l.7-7.3 40.3-.3c22.1-.1 40.2.1 40.2.6 0 1.2-7.1 7.6-11 9.9-7 4.1-13.8 5.5-31.2 6l-16.7.6-1 2.8c-.5 1.5-.7 3-.4 3.3.4.3 9.7.6 20.7.6h20.1l-2.5 2c-8 6.4-21.2 10.2-35.5 10.4-9.3.1-10.1.3-12.2 2.6-1.2 1.4-2.3 2.9-2.3 3.3 0 .4 6.1.7 13.5.5 7.4-.2 13.5 0 13.5.3 0 1-7.1 5.3-12.5 7.6-11.4 4.8-27.5 5.4-41.7 1.5-3.7-1.1-6.9-1.8-7-1.6-.2.1-.2 6 0 13l.3 12.7 9.8-.6c12-.7 15.4-1.9 14.9-5-.3-2-.8-2.2-7.2-2.2-4.6 0-7-.4-7.3-1.3-.3-.6.3-1.2 1.4-1.2 1 0 2.5-.5 3.3-1.1 1.1-.8.5-.9-2.2-.4-2.1.3-3.8.3-3.8 0 0-2 2.5-4.5 5.5-5.5 10.8-3.6 22.2 6.1 19.4 16.4-1.5 5.5-6.6 8.7-16.2 10-4 .6-4.7 1-4.1 2.4.4.9.9 4.2 1.1 7.3.5 5.8-.9 10.2-4.2 12.9-1.4 1.2-1.4 1.4.1 3.1 3.9 4.3 3.5 13-.7 17.5l-2.1 2.2 2.1.7c3.4 1.1 4.5 4.2 3.1 8.9l-1.2 4-1.3-3.1c-1.6-3.7-4.7-5.9-9.5-6.7-1.9-.3-2.9-.3-2.2 0 .7.3 1.2 2.5 1.2 5.5 0 4.5-.3 5.1-2.7 6-1.8.7-4.1.8-6.3.2l-3.5-.8v-6.1c0-5.1-.3-6-1.5-5.4-6.3 2.9-7.7 3.9-9.2 6.8l-1.6 3.3-1.1-3.4c-1.4-4.2-.1-8.2 2.9-9.2 2.2-.7 2.2-.7-.5-3.5-2.2-2.3-2.7-3.8-2.7-7.9 0-5.1 2.1-10.1 4.4-10.1.6 0-.1-1-1.6-2.1-1.5-1.2-3.2-3.3-3.8-4.8-1.4-3.8-1.2-10.6.5-14l1.5-2.9-5.2-.7c-11.8-1.6-16.6-5.6-16.6-13.6 0-4 .5-5.5 3.1-8.4 5.2-5.9 14.6-7 19.6-2.3 3.3 3.1 2.9 4-1.4 3.3-2.8-.5-3.4-.4-2.3.4.8.6 2.3 1.1 3.3 1.1 1.1 0 1.7.6 1.4 1.2-.3.9-2.7 1.3-7.3 1.3-6.4 0-6.9.2-7.2 2.2-.5 3.2 3 4.3 15.3 5l10 .6-.2-12.9c-.1-7.1-.3-13-.3-13 0-.1-3 .7-6.7 1.7-14.3 4-30.4 3.4-41.8-1.4-5.4-2.3-12.5-6.6-12.5-7.6 0-.3 6.1-.5 13.5-.3 9 .2 13.5 0 13.5-.7 0-.6-.4-1.1-.8-1.1-.5 0-1.4-1-2.1-2.3-1.1-2-1.9-2.2-11.4-2.3-14.5-.2-27.6-4-35.7-10.4l-2.5-2h20.1c11 0 20.3-.3 20.7-.6.3-.3.1-1.8-.4-3.3l-1-2.8-16.7-.6c-17.4-.5-24.2-1.9-31.2-6-3.9-2.3-11-8.7-11-9.9 0-.5 18.1-.7 40.3-.6l40.2.3.7 7.3c1.3 12.4 5.7 19.6 16.2 26.4 8.5 5.5 9.1 5.3 8.9-3.3-.1-6.8-.2-7.2-3.1-8.9-4-2.5-5.2-4.9-5.2-10.7 0-11.2 10.5-17.5 21.5-12.9zm-1.2 161.8c-.2.5.3.8 1.1.8 1.7 0 1.7-.5 1.8 17 0 5.8.3 9 .5 7.3l.4-3.3 4.2 2.1c2.3 1.2 11.5 6.9 20.5 12.6 9 5.7 20.7 12.7 26 15.3 5.3 2.7 10.3 5.5 11 6.1 1.1.9.3 2.2-4.2 6.5-3.1 3-6.2 5.4-6.9 5.4-1.7 0-19.5-11.6-31.7-20.7-5.2-3.8-11.9-8.5-14.7-10.2-4.8-3-5.3-3.6-5.4-6.9-.3-10.7-2.9 15.6-3.9 39.3-.6 14.8-1.3 27.6-1.5 28.2-.5 1.4-5.1 1.8-5.9.5-.3-.5-1-13.2-1.6-28.3-1-24-3.6-50.5-3.9-39.7-.1 3.3-.6 3.9-5.3 6.9-2.9 1.7-9.6 6.4-14.8 10.2-12.2 9.1-30 20.7-31.7 20.7-.7 0-3.8-2.4-6.9-5.4-6.6-6.3-6.9-5.6 6.6-12.5 5.2-2.6 16.9-9.5 26-15.3 9.1-5.8 18.4-11.5 20.7-12.6l4.2-2.2.4 3.3c.2 1.7.5-1.5.5-7.3.1-17.5.1-17 1.8-17 .8 0 1.3-.3 1.1-.8-.3-.4 2.3-.7 5.8-.7s6.1.3 5.8.7zm-16 14.3l.6 6-5.2 2.9c-2.9 1.6-11.9 7.2-20.2 12.5-16.9 10.7-31 18.3-37.2 20.2-3.9 1.1-4.5 1-6.4-.7-2.8-2.4-5.8-9.1-5.9-12.7 0-2.2.6-3 2.9-3.8 2.5-.9 2.9-1.6 3.4-6.5.6-5.5 2.8-10.4 4.7-10.4.6 0 1 3.3 1 7.6 0 7.4.1 7.5 2.3 6.9 6.8-2.1 20.3-8.4 32.4-15.1 11.1-6.2 26.4-13.6 26.9-13 .1 0 .4 2.8.7 6.1zm47.2 6.5c12.3 6.8 26.2 13.3 33.3 15.5 2.1.6 2.2.5 2.2-6.9 0-4.3.4-7.6 1-7.6 1.9 0 4.1 4.9 4.7 10.4.5 4.9.9 5.6 3.4 6.5 2.3.8 2.9 1.6 2.9 3.8-.1 3.6-3.1 10.3-5.9 12.7-1.9 1.7-2.5 1.8-6.4.7-6.2-1.9-20.3-9.5-37.2-20.2-8.2-5.3-17.4-10.9-20.3-12.5-4.9-2.7-5.3-3.1-4.8-5.8.3-1.6.6-4.3.6-6.2v-3.3l6.3 2.6c3.4 1.4 12.5 6 20.2 10.3zm-44.1 23.2c.6 5.3.5 6.3-1.1 7.1-1 .6-7.4 6.5-14.3 13.1-6.9 6.7-13.9 12.9-15.6 13.8-2.8 1.6-3.2 1.6-6.9-.1-4.2-1.9-10.5-6.7-10.5-8 0-.5 3.9-3.4 8.8-6.6 4.8-3.2 13-9 18.2-12.8 11.2-8.3 18-12.7 19.6-12.7.7 0 1.4 2.5 1.8 6.2zm21.7-3.4c2.4 1.6 8.7 6 13.9 9.9 5.2 3.8 13.4 9.6 18.3 12.8 4.8 3.2 8.7 6.1 8.7 6.6 0 1.3-6.3 6.1-10.5 8-3.7 1.7-4.1 1.7-6.9.1-1.7-.9-8.7-7.1-15.6-13.8-6.9-6.6-13.3-12.5-14.4-13.1-1.6-.9-1.7-1.8-1.1-7.2.4-3.7 1.2-6.1 1.9-6.1s3.2 1.3 5.7 2.8zM151.9 373l.1 5.5-8.9 8.9-8.8 8.9-6.2-3.3c-3.4-1.8-6-3.6-5.9-4 .2-.3 6.6-6.7 14.3-14.1l14-13.4.6 3c.4 1.7.7 5.5.8 8.5zm28.6 3.9c9.9 9.5 12.5 12.5 11.4 13.2-.8.6-3.6 2.1-6.3 3.5l-4.9 2.6-8.8-8.9c-8.5-8.4-8.9-9-8.9-13.3 0-2.5.3-6.2.6-8.2.8-4.7.3-5 16.9 11.1zM152 392.7v12.6l-6.2-5.9-6.3-5.9 6-6.7c3.3-3.7 6.1-6.8 6.3-6.8.1 0 .2 5.7.2 12.7zm23.6.8c-.1 0-3 2.7-6.4 6l-6.2 5.9v-25.8l6.4 6.9c3.5 3.9 6.3 7 6.2 7zM976 81.5c-4.2 1.9-8.7 6-10.6 9.7-1.7 3.2-1.8 12.5-.3 16.5 1.3 3.5 5.5 8 9.4 10.1 3.9 2 13.1 2 17.1-.1 17.6-9.2 12.9-35.6-6.7-37.3-3.6-.3-6.5.1-8.9 1.1zm62 .7c-7 3.6-10.3 8.6-10.8 16.2-.8 12.4 6.7 20.8 18.7 20.9 10.8.1 18.9-7 19.9-17.3 1.5-15.7-14.1-26.7-27.8-19.8zm811-.7c-4.2 1.9-8.7 6-10.6 9.7-1.7 3.2-1.8 12.5-.3 16.5 1.3 3.5 5.5 8 9.4 10.1 3.9 2 13.1 2 17.1-.1 17.6-9.2 12.9-35.6-6.7-37.3-3.6-.3-6.5.1-8.9 1.1zm62 .7c-7 3.6-10.3 8.6-10.8 16.2-.8 12.4 6.7 20.8 18.7 20.9 10.8.1 18.9-7 19.9-17.3 1.5-15.7-14.1-26.7-27.8-19.8zM961.2 243.5c-28.8 61.9-52 112.9-51.7 113.5 1 1.5 32 1.3 33.3-.3.5-.6 5.8-11.8 11.7-24.7 5.9-12.9 11.2-24.1 11.7-24.8.8-.9 11.5-1.2 47.3-1.2h46.2l10.3 23.7c5.6 13.1 10.8 24.8 11.6 26 1.4 2.2 1.9 2.3 18 2.3h16.6l-.4-2.3c-.8-4.1-100.2-224.7-101.3-224.7-.5 0-24.5 50.6-53.3 112.5zm61.6-22.3c19.7 44.7 23.2 53.2 21.9 54-.7.4-15.1.8-32 .8-24.9 0-30.9-.3-31.3-1.3-.3-.8 5.5-14.6 12.9-30.8 17.5-38.1 18.8-40.9 19.7-40.9.4 0 4.4 8.2 8.8 18.2zm811.4 22.3c-28.8 61.9-52 112.9-51.7 113.5 1 1.5 32 1.3 33.3-.3.5-.6 5.8-11.8 11.7-24.7 5.9-12.9 11.2-24.1 11.7-24.8.8-.9 11.5-1.2 47.3-1.2h46.2l10.3 23.7c5.6 13.1 10.8 24.8 11.6 26 1.4 2.2 1.9 2.3 18 2.3h16.6l-.4-2.3c-.8-4.1-100.2-224.7-101.3-224.7-.5 0-24.5 50.6-53.3 112.5zm61.6-22.3c19.7 44.7 23.2 53.2 21.9 54-.7.4-15.1.8-32 .8-24.9 0-30.9-.3-31.3-1.3-.3-.8 5.5-14.6 12.9-30.8 17.5-38.1 18.8-40.9 19.7-40.9.4 0 4.4 8.2 8.8 18.2zm-699-82.2c-26.4 4.5-47.6 24.5-50.8 48-1.8 12.9 1.1 26.5 7.8 36.2 8.3 12.1 19 19.4 43.9 30.2 22.7 9.8 26.1 11.7 32.6 17.6 9.1 8.3 12.6 18.5 10.6 30.9-1.4 9.1-3.9 14.2-9.9 20.1-5.8 5.9-11.7 8.8-20.2 10-12.2 1.7-24-2.1-31.5-10.3-6.1-6.6-7.3-9.6-10.8-26-.4-2-1.1-2.7-2.8-2.7-3.9.1-27.9 5.8-29 6.9-1.7 1.7 2.5 16.9 7.2 26.6 11.9 23.9 31.6 35.5 60.5 35.5 14.3 0 22.2-1.7 32.3-6.6 24.7-12.2 38.8-37.3 37-65.9-.8-11.8-3.6-20.6-9.5-29.6-9.1-13.9-20.1-21.3-49.7-33.4-18.5-7.6-22.8-9.8-28.2-14.8-7.6-7-9.9-14.6-7.1-24.1 1.8-6 10.7-14.6 17.8-17 6.6-2.4 17.5-2.7 24.3-.7 5.3 1.5 14.1 8.8 17.7 14.6 1.1 1.8 2.6 3.5 3.3 3.8 2 .7 24.7-13.1 24.7-15 0-2.1-7.9-12.9-13.2-17.9-5.5-5.3-14.2-10.8-21-13.3-10-3.8-24.6-5-36-3.1zm-715.3 4.2c-.2.7-.6 36.6-.8 79.8-.4 85.8-.5 87.3-6.4 98.2-6.2 11.5-20.3 14.3-35.5 7.2-3.1-1.5-6.2-2.4-7-2.2-1.9.8-15.1 24.5-14.3 25.8 1.2 1.9 10.6 6.1 18.3 8.1 9.4 2.4 26.2 2.6 34.7.4 19-5 33.7-20.7 38.9-41.5 2.9-11.4 3.7-37.4 3.4-108l-.3-68.5-15.3-.3c-11.7-.2-15.3 0-15.7 1zm58.5.2c0 .7 15.4 28.1 34.3 60.7l34.2 59.4.5 47 .5 47h31l.5-46.5.5-46.5 32.4-56c17.8-30.8 33.7-58.2 35.4-60.9 3-4.7 3.1-4.8 4.3-2.5.8 1.8 88.7 216.7 92.1 225.7.3.6 1 1.2 1.7 1.2 1.1 0 94.4-222.6 95.4-227.5l.4-2.5h-16.5c-12.1 0-16.7.3-17.5 1.3-.6.7-13.1 30.9-27.7 67.2C807.9 293.6 809 291 808 291c-.5 0-14-33-30-73.3-16.1-40.2-29.7-73.8-30.2-74.5-.8-.9-9.3-1.2-36.3-1.2-32.3 0-35.3.1-36.7 1.7-.8 1-9.8 16.2-19.8 33.8-29.4 51.5-29 50.9-30.6 49.3-.7-.7-11.7-19.5-24.4-41.8-12.7-22.2-23.6-41-24.2-41.7-1.6-2-35.8-1.9-35.8.1zm774.5-.2c-.3.7-.4 49.2-.3 107.8l.3 106.5h30l.5-44.2.5-44.2 3-3.1c1.6-1.7 3.5-2.9 4.1-2.8.6.2 18.4 21.6 39.4 47.5l38.2 47.3h20.3c11.2 0 20.6-.4 20.9-.8.3-.5-.9-2.6-2.7-4.8-1.8-2.1-22.8-27.5-46.7-56.4-23.9-28.9-44.1-53.3-44.9-54.3-1.3-1.7 2.5-5.7 46.2-49.5 26.2-26.3 47.7-48.3 47.7-49 0-.9-4.9-1.2-20.3-1.2h-20.4l-41.8 43c-23 23.6-42.1 42.7-42.4 42.4-.3-.3-.8-19.5-1.1-42.7l-.5-42.2-14.8-.3c-11.2-.2-14.9 0-15.2 1zm164.5.2c0 .7 15.4 28.1 34.3 60.7l34.2 59.4.5 47 .5 47h31l.5-46.5.5-46.5 34.4-59.4c18.9-32.7 34.6-60.3 34.9-61.3.4-1.7-.6-1.8-17-1.8-15.4 0-17.7.2-19 1.7-.8 1-9.8 16.2-19.8 33.8-29.4 51.5-29 50.9-30.6 49.3-.7-.7-11.7-19.5-24.4-41.8-12.7-22.2-23.6-41-24.2-41.7-1.6-2-35.8-1.9-35.8.1zm199.5-.2c-.3.7-.4 49.2-.3 107.8l.3 106.5h94v-28l-30.7-.5c-16.8-.3-31-.9-31.5-1.3-.4-.5-1-42.3-1.3-93l-.5-92.2-14.8-.3c-11.2-.2-14.9 0-15.2 1zM71.5 415.7c-4.8 2.1-7.7 2.6-14.5 2.7-4.7.1-10-.3-11.9-.8-2.4-.6-3.2-.5-2.7.3.4.6 1.2.8 1.8.5.7-.4.8-.2.4.5-.5.7 1.3 4 4.5 8.1 5.1 6.7 5.5 7 9.5 7 2.4 0 7.5-1.3 11.7-3 4.2-1.7 9.1-3 11.1-3 1.9 0 7.2 1.3 11.8 3 10.5 3.9 15.9 3.9 26.8 0 10.6-3.7 13.4-3.7 24 0 10.9 3.8 16.3 3.8 27 0 10.6-3.7 13.4-3.7 24 0 10.7 3.8 16.9 3.9 25.3.4 9.9-4.1 14.9-4.2 24.1-.5 4.4 1.8 9.6 3.1 12 3.1 4 0 4.4-.3 9.5-7 3.2-4.1 5-7.4 4.5-8.1-.4-.7-.3-.9.4-.5.6.3 1.4.1 1.8-.5.5-.9 0-1-1.7-.5-1.3.4-5.8 1-9.9 1.3-6.7.4-8.3.2-15.2-2.6-9.6-3.9-13.9-3.9-24.8-.1-10.8 3.8-15.7 3.8-26.2-.1-9.7-3.6-16.1-3.6-24.3.2-7 3.2-19 3.2-26 0-8.2-3.8-14.6-3.8-24.3-.2-10.5 3.9-15.4 3.9-26.2.1-10.4-3.6-14.8-3.7-22.5-.3zm1 24.8c-3.8 1.4-7.1 2.5-7.2 2.5-1.5 0 .7 2.5 5.5 6.2 5.1 4 6.3 4.5 11.2 4.6 3.3 0 8.1 1.1 11.8 2.6 10.5 4.2 13.6 4.2 24.3.6 11.9-4.1 16.1-4.1 27.6-.2 5 1.8 10.3 3.2 11.8 3.2s6.8-1.4 11.8-3.2c11.5-3.9 15.7-3.9 27.6.2 10.7 3.6 13.8 3.6 24.3-.6 3.7-1.5 8.5-2.6 11.8-2.6 4.9-.1 6.1-.6 11.3-4.6 3.1-2.5 5.7-4.8 5.7-5.2 0-.4-2.4-1.8-5.2-3.1-7.3-3.2-15.1-3-24.3.6-9.5 3.7-14.8 3.6-26.4-.4-10.7-3.7-13.8-3.7-24.3.5-8.4 3.4-16.2 3.4-24.6 0-10.5-4.2-13.6-4.2-24.3-.5-11.4 3.9-16.9 4.1-26.1.6-10.3-3.9-14.2-4.1-22.3-1.2zm45.2 26.7c-4.8 1.7-8.4 3.5-7.9 4s6.2 2.3 12.8 4c11.7 3.2 12.2 3.2 34.9 3.2s23.2 0 34.9-3.2c6.6-1.7 12.3-3.5 12.8-4 1.3-1.3-17.1-7.2-22.5-7.2-2.6 0-8.6 1.4-13.8 3.1-10.3 3.6-15 3.6-23.4-.1-8.2-3.7-17.2-3.6-27.8.2z" fill="#969A9E"/></svg>
