<svg width="35" height="35" fill="#fff" xmlns="http://www.w3.org/2000/svg" viewBox="0 0 373.3 424"><path d="M343.2 350.7c8.2.7 16-.6 23.4-3.9-11.5-6-21.5-15-30-27 10.7 2.2 12.7-7.1 25.1 1.6-8.1-18.9-25.4-33-34.3-38.1-5.2-3-8.6-8.4-9.2-14.4-2.3-26.4 7.6-86.5 4.2-116.6-4.1-37.5-10.7-67.1-25.7-93-15-25.8-38.6-47.8-89.1-29.9-35.2-24.5-54-21.9-73.3-13.5-21 9.2-42.5 25.3-59.9 54.8-17.3 29.5-30.5 72.4-29.7 114.3.5 23.6 5.4 46.9 2 77.7-7.2 20-19.1 34.5-35.6 43.2 8.6 2.2 17.2 2.4 25.7.5-4.5 13.5-4.3 33.5-19 44.6 21-15.8 33.4-8.5 40.8-19-6.2 10.3-8.6 24.2-18.6 30.8 16-10.6 23.3-6.1 25.6-11.8-8.9 27.6-12 52.5-28.7 67.8 17-6.4 42.2-53.3 57.4-82.2 3-2.5 6.6-5.9 10.9-10.5-.8 13.7-3.9 24.1-3.9 24.1 9.6-.4 17.6-6.8 23-12.7-2.6 11.2-6.5 21.9-12.2 20.3 0 0 15.1 5.8 23-1.6 5.2 22.1 14.7 44.2 14.7 44.2-.5-11 6.7-22.8 12.9-30.9-.3 9.5-2.1 17.8-7.1 17.5 0 0 14.3 1.9 20.9-5.4 5.2 14.5 12.6 29 12.6 29 5.8-12.6 11.7-25.9 16.4-36.5 5.5 14.5 26.2 6.5 26.2 6.5-4.8 1.4-8.3-6-10.9-15.1 9.4 12.5 24.5 19.3 24.5 19.3 1.8-9.2 2.8-18 3.3-25.8 7 2.1 15.4-.6 17.3-1.2-5.2 1-9-8.7-11.5-19.1 8.3 9.2 22.4 16.8 22.4 16.8 8.1 35.2 18.2 60.7 25.9 64.4-2.1-12 4.9-44.6 2.9-56.6 16 20 11.9 43.2 33.8 45.9-20.1-22.7 3.4-13.5-3.1-34.8 8.9 6 17.8 1.3 26.6-14-8.9 3.5-15.2-.7-19.7-9.7zM125.1 84.5c0-.5 16.4 9.8 16.3 9.4 2.9-3.1-.2-20 14.1-14.9 19.4 6.8 84.9 17.3 93.7 16.4 3.2 9.8 8.3 20.8 14.3 30.1v.1c-6.2-2.4-48.3-17.7-65.9 5.8.2.2 8.2 6 25.1-.8 16.6-6.8 30.7-7.9 40.8-4.9.1 3.3.1 6.7.2 10.2-17.4-2.1-36.6.1-59.1 5.4-6.8 1.6-14.7 3.2-21.6 2.9-4.2-.2-8.1-1.2-11.9-2.2-22-5.5-42.2-8.1-65.8-4.7 11.6-17 20.5-41.6 19.8-52.8zm100.8 176c-20.8 21.2-46 32.1-70.3 18.6-7.5-4.2-14-9.8-19.8-16.6 7.1-10 15.5-20.4 28.5-26 5.9-2.6 30.7-2.3 36.5.3 12.2 5.3 17.5 14.3 25.1 23.7zm9.4-10.6c5.1-40.8-13.2-43.4-13.2-43.4-5.8-.8-14.2-3.3-37.7 3.7 0 0-64.2-21.2-62.5 35.9-17.3-26.2-21.8-58.1-24.9-84.4.3-3.1.7-6.3 1.1-9.6 1.6.6 2.8 1.6 2.9 2.9.7 27.1 7.5 40.2 33.2 39.9 31.7-.4 40.4-25.6 42.3-35.3 1-5.2 3.7-5.7 6.7-5.7 5.3-.1 5.8 3.8 6.7 6.2 10.5 27.7 16.9 34 39.7 36.3 28.6 2.9 31.1-14.2 33.9-28.6-.2 11.2-.4 22.6-.6 34.2-6.8 17-16.3 33.9-27.6 47.9z"/><path d="M154.1 130.9c17.2 5.9 24.9-.4 25.1-.6-19.2-23-61.8-4.2-66.4-2 9.9-3.6 24.1-3.3 41.3 2.6z"/></svg>