<svg width="32" height="32" fill="#000" xmlns="http://www.w3.org/2000/svg" xmlns:xlink="http://www.w3.org/1999/xlink" version="1.1" x="0px" y="0px" viewBox="0 0 512 640" enable-background="new 0 0 512 512" xml:space="preserve"><g><g><path d="M403.381,209.549l-4.615-18.459c-0.629-2.51-2.582-4.436-5.035-5.072c2.006-4.004,3.291-6.576,3.688-7.367    c0.746-1.496,0.936-3.207,0.529-4.828l-21.721-86.898c-0.486-1.947-1.785-3.592-3.566-4.516l-53.631-27.83    c-1.66-0.863-3.596-1.023-5.373-0.449l-84.18,27.152c-1.752,0.564-3.211,1.797-4.061,3.43L114.344,298.045    c-1.869,2.578-7.662,11.715-5.428,23.383c1.467,7.664,5.971,14.639,13.416,20.842c-0.914,1.098-1.502,2.461-1.613,3.943    c-0.721,9.531,3.008,23.408,24.859,35.387l16.232,8.898c-0.941,5.814-2.088,19.934,5.922,31.912    c6.363,9.514,16.777,15.375,30.951,17.422l126.82,18.305c0.332,0.049,0.666,0.072,1,0.072c0.574,0,1.148-0.07,1.709-0.211    c0.938-0.236,23.039-6.143,28.793-37.367c2.848-15.426,11.283-90.121,17.916-150.611c15.826-31.438,27.809-55.4,27.928-55.641    C403.598,212.883,403.785,211.17,403.381,209.549z M125.684,306.248c0.312-0.379,0.586-0.791,0.812-1.227L236.508,93.723    l78.666-25.373l48.236,25.031l20.328,81.322c-11.021,22.02-96.795,193.262-109.916,215.133    c-3.182,5.303-8.283,11.623-14.523,11.623c-2.797,0-4.895-1.256-5.238-1.473c-0.275-0.217-0.412-0.287-0.742-0.469    l-112.693-61.775c-10.393-5.699-16.592-12.197-17.93-18.795C121.273,311.922,125.543,306.424,125.684,306.248z M343.238,418.092    c-3.436,18.645-13.928,24.492-17.416,25.947l-125.139-18.062c-10.037-1.449-17.191-5.242-21.262-11.271    c-6.707-9.938-3.537-23.344-3.512-23.449c0.072-0.285,0.127-0.576,0.162-0.869l0.348-2.82c0.193-1.582-0.16-3.143-0.945-4.453    l74.223,40.689c1.578,1.043,6.41,3.82,12.988,3.82c7.055,0,17.381-3.193,26.506-18.404c8.215-13.693,42.99-82.072,71.602-138.793    C351.486,355.238,345.42,406.273,343.238,418.092z"/><circle cx="307.158" cy="136.219" r="27.156"/></g></g></svg>
