<svg xmlns="http://www.w3.org/2000/svg" version="1" width="22" height="22" viewBox="0 0 256.000000 225.000000"><g fill="#fff"><path d="M15.6 29c-2.7.5-5.1 1.9-7.3 4.4C5.4 36.5 5 37.6 5 42.5c0 4.9.4 6 3.3 9.1 4.3 4.7 7.7 5.3 31 5.3 16.3.1 17.9.3 19.7 2.1 2 2 2 3.3 2 67.2 0 61.2.2 65.6 1.9 69.3 1 2.3 3.3 5.3 5 6.8 2.8 2.3 4.1 2.7 9.9 2.7 8.1 0 12.2-2.1 15.2-7.9 2-3.9 2-5.6 2-69.9 0-55.2.2-66.1 1.4-67.8 1.3-1.7 3.2-1.9 23.8-2.5 18.3-.4 22.9-.8 25.5-2.2 4.2-2.2 6.3-6.4 6.3-12.6 0-6.5-3.9-11.3-10.4-13-5.1-1.3-119.4-1.4-126-.1zM162.5 30.3c-.4.8-.2 2.4.3 3.4 1.8 3.4 2.3 9.1 1.1 13.5-2.6 10.3-3.1 9.4 6.1 10.2 17 1.4 23.3 3.9 30.9 12.1 4.8 5.2 8.2 11.9 10.8 21.5 1.4 5.2 1.8 10.3 1.8 25 0 20.7-1 26-6.9 38.7-4.9 10.2-10.1 15.5-19.4 19.5l-7.7 3.3-35.5.5-35.5.5-.6 8.5c-.4 4.7-1.4 10.2-2.4 12.4-1 2.3-1.3 4.2-.7 4.8.5.5 19 .8 44.8.6l43.9-.4 7.3-2.6c11.7-4.3 17.2-7.8 25.7-16.4 6.8-6.7 9-9.7 13.3-18.5 8.1-16.3 9.6-24.1 9.6-49.4 0-24.9-1.7-34.1-9-49.4-3.8-7.7-6.1-11-13.5-18.6-14.6-15.1-24.6-19.3-48.5-20.2-13.4-.5-15.4-.4-15.9 1z"/></g></svg>
