<svg xmlns="http://www.w3.org/2000/svg" fill="#ed1c24" height="22" width="22" version="1" viewBox="0 0 400.000000 440.000000"><path fill="#ed1c24" d="M37.5 1.2c-1.1.6-2.6 1.8-3.2 2.6-1.9 2.3-1.6 7.9.5 9.9.9 1 7.8 5.2 15.2 9.4 18.3 10.4 107 60.2 119.8 67.3 7.5 4.2 10.2 6.2 9.8 7.3-.3.8-.6 1.9-.6 2.4s-31.2.9-77.8.9c-86.4 0-84.1-.2-92 6.6-2.4 2-5.3 5.5-6.5 7.8l-2.2 4.1v302l2.2 4.1c1.2 2.2 3.8 5.7 5.9 7.7 7.5 7.2-6.9 6.7 191.4 6.7 200.6 0 184.4.6 192.5-7.5 8.1-8 7.5 4.5 7.5-162.4 0-147.3-.1-148.6-2.1-153.1-2.5-5.5-7.1-10.5-12.4-13.3-4-2.2-4.3-2.2-85-2.7-80.1-.5-81-.5-81.3-2.5-.2-1.5 1.2-2.8 6-5.4 3.5-1.9 29.7-16.5 58.3-32.6s58.7-32.9 66.8-37.5c8.1-4.5 15.2-9.1 15.7-10.1 2.9-5.3-.2-11.6-6-12.5-3.1-.4-6.8 1.3-33 16.1-16.2 9.2-42.5 24-58.5 32.9-15.9 9-36.7 20.6-46.1 26-24.4 13.7-18.6 14.7-65.3-11.5-20.7-11.6-43-24.2-49.6-28C66.1 12.4 43.3 0 41.5 0c-1.1 0-2.9.6-4 1.2zM349.2 135c5.7 1.6 12 7 15.3 13l3 5.5V245c0 91 0 91.5-2.1 96-2.4 5.1-9 11.5-14 13.6-2.8 1.2-26.5 1.4-150.5 1.4-108.8 0-148.2-.3-151-1.2-5.5-1.6-11.8-7.3-14.5-13.2l-2.4-5.1V153.2l2.8-5.2c3-5.9 8.1-10.5 13.8-12.5 3.3-1.2 28.4-1.4 149.9-1.5 97.6 0 147.2.4 149.7 1zm-38.3 251c5.9 3 8.4 7.8 7.9 15.1-.4 5.2-.9 6.4-4 9.5-5.9 5.9-14.7 6.4-21.3 1.2-5.7-4.4-7.2-14-3.2-19.9 5.1-7.6 13-9.8 20.6-5.9zm49 0c13.9 7 9 29.1-6.5 29.3-9.2.1-15.4-5.6-16.2-14.7-.3-4.1.1-5.8 2-8.6 5.2-7.7 13-10 20.7-6zm-292.1 8.5c5.3 6.2 1.3 15.5-6.6 15.5-7.3 0-11.9-6.5-9.2-13.1 2.6-6.2 11.3-7.5 15.8-2.4zm60-1c3.9 3.2 4.8 7.4 2.8 11.4-2 3.7-4.4 5.1-8.8 5.1-8.6 0-12.6-10.5-6.2-16.1 4.2-3.6 8.3-3.7 12.2-.4z"/></svg>
