<svg xmlns="http://www.w3.org/2000/svg" viewBox="0 0 100 77.8"><path class="fill" d="M94.6 11.8c-3.3 1.4-6.8 2.4-10.5 2.9 3.8-2.3 6.6-5.8 8-10.1-3.5 2.1-7.4 3.6-11.6 4.4-3.3-3.5-8-5.8-13.3-5.8C57.1 3.2 49 11.4 49 21.4c0 1.4.2 2.8.5 4.1-15.1-.8-28.5-8-37.5-19-1.6 2.7-2.5 5.8-2.5 9.1 0 6.3 3.2 11.9 8.1 15.1-3-.1-5.8-.9-8.2-2.3v.2c0 8.8 6.3 16.2 14.6 17.8-1.5.4-3.1.6-4.8.6-1.2 0-2.3-.1-3.4-.3 2.3 7.2 9 12.5 17 12.6-6.2 4.9-14.1 7.8-22.6 7.8-1.5 0-2.9-.1-4.3-.2 8.1 5.2 17.6 8.2 27.9 8.2 33.5 0 51.8-27.7 51.8-51.8l-.1-2.4c3.5-2.2 6.6-5.4 9.1-9.1z"/><path d="M33.7 76.7c-10.2 0-20.1-2.9-28.6-8.4l-4.7-3 5.6.6c1.4.2 2.8.2 4.2.2 6.9 0 13.4-1.9 19.1-5.6-6.8-1.4-12.5-6.4-14.7-13.2l-.7-2.1 2.2.4c.8.2 1.5.2 2.3.3C12.3 42.6 8.2 36 8.2 28.7v-2.4l1.9 1.1c1 .6 2.1 1 3.3 1.4-3.2-3.5-5-8.2-5-13.1 0-3.5.9-6.9 2.6-9.8l1-1.6 1 1.5c8.7 10.6 21.3 17.3 34.9 18.4-.1-.9-.2-1.8-.2-2.7C47.7 10.7 56.5 2 67.3 2c5.1 0 10 2 13.7 5.6 3.7-.8 7.2-2.2 10.5-4.1l3-1.8L93.4 5c-.9 2.8-2.4 5.3-4.4 7.4 1.7-.5 3.4-1.1 5-1.8l4.1-1.8-2.5 3.7c-2.4 3.6-5.4 6.8-8.9 9.3v1.7c0 12.9-5 25.9-13.7 35.8-4.7 5.3-10.3 9.5-16.7 12.5-6.7 3.2-14.4 4.9-22.6 4.9zm-22.5-8c7 3.5 14.7 5.3 22.6 5.3 7.8 0 15.1-1.5 21.7-4.6 6-2.8 11.3-6.8 15.8-11.8 8.3-9.4 13-21.8 13-34l-.1-3 .6-.4c2.3-1.6 4.3-3.5 6.1-5.5-2.1.6-4.3 1.1-6.5 1.4l-6.1.7 5.2-3.1c2.5-1.5 4.5-3.6 6-6-2.7 1.3-5.6 2.2-8.6 2.8l-.7.1-.5-.5C76.4 6.5 72 4.6 67.3 4.6c-9.3 0-16.9 7.6-16.9 16.9 0 1.3.1 2.6.4 3.9l.4 1.7-1.7-.1c-14.3-.7-27.7-7.2-37.2-18-.9 2.1-1.4 4.4-1.4 6.8 0 5.7 2.8 10.9 7.5 14.1l3.8 2.5-4.6-.2c-2.3-.1-4.6-.6-6.8-1.5.8 7.2 6.2 13.3 13.5 14.7l5.5 1.1-5.5 1.5c-2.1.6-4.3.8-6.5.6 2.7 5.8 8.5 9.6 15 9.7l3.7.1-2.9 2.3c-6.5 5-14.2 7.8-22.4 8z"/></svg>
