<svg xmlns="http://www.w3.org/2000/svg" height="22" width="42" viewBox="0 0 120 100"><g fill="#ffcc00" fill-rule="evenodd"><path d="M74.63 3.34c-2.645-1.98-4.83-2.112-5.425-1.915-.594.2 0 1.454-.33 1.915-.331.466-1.255.331-1.455.73-.198.396 0 .991-.661 1.718-.66.727-21.16 22.283-23.47 25.191-1.917 1.586-9.585 5.09-10.447 6.08-.858.993-29.49 42.16-30.412 43.506-2.18 3.18 1.112 9.953 6.868 14.088 6.053 4.353 14.006 6.248 16.886 2.883 1.064-1.237 29.921-42.255 30.561-43.4.636-1.145 1.323-9.548 2.163-11.892 1.947-3.163 15.241-29.772 15.7-30.643.46-.866 1.086-.883 1.39-1.203.31-.323-.135-1.149.19-1.616.325-.47 1.733-.683 1.681-1.307-.169-1.884-3.24-4.135-3.24-4.135"/><path d="M53.701 5.898c-.666-.725-.472-1.324-.675-1.721-.2-.397-1.127-.257-1.463-.719-.333-.462-.066-1.866-.672-2.024-1.836-.477-4.992 1.676-4.992 1.676-2.76 1.833-3.62 3.852-3.632 4.482-.011.626 1.374.485 1.703.954.326.467-.109 1.298.2 1.618.307.323.936.333 1.402 1.203.174.323 2.166 4.242 4.698 9.187a2634.75 2634.75 0 0 1 8.65-9.199c-2.895-3.026-5.013-5.233-5.219-5.457m64.97 74.596c-.814-1.42-29.9-42.45-30.765-43.44-.869-.992-8.583-4.459-10.513-6.038-.76-.94-3.452-3.842-6.763-7.352-3.857 7.635-7.515 14.818-9.284 18.071.056.095.114.191.159.264.853 2.345 1.59 10.77 2.244 11.914.647 1.143 29.948 42.011 30.908 43.336 2.276 3.13 9.783 2.289 15.625-1.762 6.14-4.26 10.603-11.142 8.389-14.992"/></g></svg>
