<svg class="valittajatunnus" xmlns="http://www.w3.org/2000/svg" width="64" height="64" viewBox="0 0 289 287.5"><path d="M143.7 285.5c78.3 0 141.7-63.5 141.7-141.7C285.5 65.5 222 2 143.7 2 65.5 2 2 65.5 2 143.7 2 222 65.5 285.5 143.7 285.5z"/><path class="colored" fill="#6d6e70" d="M224.6 240.1c-1.8-2.5-1.2-5.9 1.2-7.8 2.5-1.8 6-1.3 7.8 1.2 1.8 2.5 1.2 5.9-1.3 7.8-2.4 1.8-5.9 1.3-7.7-1.2zM242 220.2c-1.8-2.5-1.2-6 1.2-7.8 2.5-1.8 6-1.3 7.8 1.2 1.8 2.5 1.2 5.9-1.3 7.8-2.4 1.8-5.9 1.3-7.7-1.2zM255.1 197.4c-1.8-2.5-1.2-6 1.2-7.8 2.5-1.8 6-1.3 7.8 1.2 1.8 2.5 1.2 6-1.2 7.8-2.5 1.8-6 1.2-7.8-1.2zM263.3 172.7c-1.8-2.5-1.2-6 1.2-7.8 2.5-1.8 6-1.3 7.8 1.2 1.8 2.5 1.2 5.9-1.3 7.8-2.4 1.8-5.9 1.3-7.7-1.2zM265.7 146.1c-1.8-2.5-1.2-6 1.2-7.8 2.5-1.8 6-1.3 7.8 1.2 1.8 2.5 1.2 5.9-1.3 7.8-2.4 1.8-5.9 1.2-7.7-1.2zM262.8 120.1c-1.8-2.5-1.2-5.9 1.2-7.8 2.5-1.8 6-1.3 7.8 1.2 1.8 2.5 1.2 5.9-1.2 7.8-2.5 1.8-6 1.2-7.8-1.2zM203 255.8c-1.8-2.5-1.2-5.9 1.2-7.8 2.5-1.8 6-1.3 7.8 1.2 1.8 2.5 1.2 5.9-1.3 7.8-2.4 1.8-5.9 1.3-7.7-1.2zM179.3 266.5c-1.8-2.5-1.2-5.9 1.2-7.8 2.5-1.8 6-1.3 7.8 1.2 1.8 2.5 1.2 5.9-1.2 7.8-2.5 1.8-6 1.3-7.8-1.2zM153.6 272.6c-1.8-2.5-1.2-5.9 1.2-7.8 2.5-1.8 6-1.3 7.8 1.2 1.8 2.5 1.2 5.9-1.2 7.8-2.5 1.8-6 1.2-7.8-1.2zM127.2 272.6c-1.8-2.5-1.2-6 1.2-7.8 2.5-1.8 6-1.3 7.8 1.2 1.8 2.5 1.2 6-1.2 7.8-2.5 1.9-6 1.3-7.8-1.2zM101.1 268.2c-1.8-2.5-1.2-5.9 1.3-7.8 2.5-1.8 6-1.3 7.8 1.2 1.8 2.5 1.2 6-1.2 7.8-2.6 1.8-6.1 1.2-7.9-1.2zM77.3 257.7c-1.8-2.5-1.2-6 1.2-7.8 2.5-1.8 6-1.3 7.8 1.2 1.8 2.5 1.2 5.9-1.3 7.8-2.5 1.9-5.9 1.3-7.7-1.2zM55.6 242.4c-1.8-2.5-1.2-5.9 1.3-7.8 2.5-1.8 6-1.3 7.8 1.2 1.8 2.5 1.2 6-1.2 7.8-2.6 1.9-6.1 1.3-7.9-1.2zM37 221.8c-1.8-2.5-1.2-5.9 1.2-7.8 2.5-1.8 6-1.3 7.8 1.2 1.8 2.5 1.2 6-1.2 7.8-2.5 1.8-6 1.2-7.8-1.2zM22.7 197.1c-1.8-2.5-1.2-6 1.2-7.8 2.5-1.8 6-1.3 7.8 1.2 1.8 2.5 1.2 5.9-1.2 7.8-2.5 1.9-6 1.3-7.8-1.2zM15 172.1c-1.8-2.5-1.2-5.9 1.2-7.8 2.5-1.8 6-1.3 7.8 1.2 1.8 2.5 1.2 5.9-1.3 7.8-2.4 1.8-5.9 1.3-7.7-1.2zM12.7 146c-1.8-2.5-1.2-6 1.2-7.8 2.5-1.8 6-1.3 7.8 1.2 1.8 2.5 1.2 6-1.2 7.8-2.5 1.8-6 1.3-7.8-1.2zM16 119.5c-1.8-2.5-1.2-6 1.2-7.8 2.5-1.8 6-1.3 7.8 1.2 1.8 2.5 1.2 6-1.2 7.8-2.6 1.8-6 1.3-7.8-1.2zM24.5 95.3c-1.8-2.5-1.2-6 1.2-7.8 2.5-1.8 6-1.3 7.8 1.2 1.8 2.5 1.2 5.9-1.3 7.8-2.5 1.8-5.9 1.3-7.7-1.2zM37.8 72.3c-1.8-2.5-1.2-6 1.2-7.8 2.5-1.8 6-1.3 7.8 1.2 1.8 2.5 1.2 5.9-1.3 7.8-2.4 1.8-5.9 1.2-7.7-1.2zM254.7 95c-1.8-2.5-1.2-5.9 1.2-7.8 2.5-1.8 6-1.3 7.8 1.2 1.8 2.5 1.2 5.9-1.2 7.8-2.6 1.8-6 1.2-7.8-1.2zM241.3 72.6c-1.8-2.5-1.2-6 1.2-7.8 2.5-1.8 6-1.3 7.8 1.2 1.8 2.5 1.2 5.9-1.3 7.8-2.4 1.8-5.9 1.3-7.7-1.2zM224.1 53.4c-1.8-2.5-1.2-6 1.2-7.8 2.5-1.8 6-1.3 7.8 1.2 1.8 2.5 1.2 5.9-1.3 7.8-2.4 1.8-5.9 1.2-7.7-1.2zM203.5 38c-1.8-2.5-1.2-5.9 1.3-7.8 2.5-1.8 6-1.3 7.8 1.2 1.8 2.5 1.2 5.9-1.2 7.8-2.6 1.8-6.1 1.3-7.9-1.2zM179 26.7c-1.8-2.5-1.2-6 1.2-7.8 2.5-1.8 6-1.3 7.8 1.2 1.8 2.5 1.2 5.9-1.2 7.8-2.6 1.8-6 1.2-7.8-1.2zM153 21.4c-1.8-2.5-1.2-5.9 1.3-7.8 2.5-1.8 6-1.3 7.8 1.2 1.8 2.5 1.2 5.9-1.2 7.8-2.6 1.8-6.1 1.2-7.9-1.2zM127.4 21.6c-1.8-2.5-1.2-6 1.2-7.8 2.5-1.8 6-1.3 7.8 1.2 1.8 2.5 1.2 5.9-1.3 7.8-2.4 1.8-5.9 1.2-7.7-1.2zM101.6 27c-1.8-2.5-1.2-5.9 1.2-7.8 2.5-1.8 6-1.3 7.8 1.2 1.8 2.5 1.2 5.9-1.2 7.8-2.5 1.8-6 1.2-7.8-1.2zM56.2 52.7c-1.8-2.5-1.2-6 1.2-7.8 2.5-1.8 6-1.3 7.8 1.2 1.8 2.5 1.2 6-1.2 7.8-2.5 1.9-6 1.3-7.8-1.2zM77.1 37.6c-1.8-2.5-1.2-6 1.2-7.8 2.5-1.8 6-1.3 7.8 1.2 1.8 2.5 1.2 6-1.2 7.8-2.5 1.8-6 1.3-7.8-1.2zM105.4 126.3c-1.9.4-3.7.5-5.5.4-4.3-.2-10-2.9-11.2-6.4v.1c1.9 5.8 6.1 9 10.4 10.4.4 0 .8 0 1.1-.1.9-.2 1.7-.6 2.4-1.2 1.1-.7 2.1-1.8 2.8-3.2 0 .1 0 .1 0 0M105.9 114.5c-.1-.3-.3-.6-.4-.9-1.5-2.8-3.5-4.9-6.2-5.7-1.4-.5-3-.9-3.9-1.7-.8-.7-1.1-2.2-.1-3.6-3.2 2.1-5 4.8-6 7.3-.1.1-.1.4-.1.7v1.1c0 .1.1.2.1.3.9 2.4 3.8 4 7.8 4.3 2.1.1 4.5-.2 6.7-.9.6-.3 1.3-.5 2.1-.9 0 .1 0 .1 0 0M118.6 110.6c0-.1 0-.1 0 0h-.1c.4 2.4-.7 6.5-2 8.6-2 3.1-4.3 4.8-8 6.2-.9 2.5-2.2 5-5.9 6.1v.1h.1c9.2.5 15.6-5.9 16.8-14 .2-1.6 0-4.8-.9-7"/><path class="colored" fill="#6d6e70" d="M113.6 112c-1.3 1.4-2.9 2.7-4.8 3.7v.1c.6 2.2.8 4.5.5 6.6v.1c2.8-1.4 5.1-3.6 6.5-6.1 1.2-2.1 1.7-4.4 1.5-6.6-.1-.7-.9-3.8-1.9-4.9h-.1v.1c.6 2.7-.2 5.4-1.7 7M100.1 124.5c2 .1 4.1-.1 6.1-.7.1 0 .2-.1.4-.1.5-2.1.6-4.5 0-6.8-.7.3-1.4.6-2.2.8-2.5.8-5.1 1.1-7.5.9-1.7-.1-8.3-1.4-8.6-5.2 0 0 0-.1-.1-.1 0 0-.1 0-.1.1-.1 1.2.3 2.7.4 3.2 1.4 4.4 5.9 7.6 11.6 7.9"/><path class="colored" fill="#6d6e70" d="M114 105.1c0-.3-.1-.6-.2-.8-.1-.4-.4-.7-.6-1-.2-.2-1-.8-1.2-1-1.1-.7-2.3-1.2-3.6-1.6v.1c.1 1.4-1.9 2.6-4.4 2.7-2.5.1-4.6-.9-4.7-2.2 0-.2 0-.4.1-.6-1.1.4-3.9 1.6-2.2 3.9 1 1.1 2.5 1.1 3.7 1.5 4.9 1.6 6.9 7.2 7 7.5 4.1-2.4 6.5-5.7 6.1-8.5M134.7 129.8V82.2H126V71.3h8.7v-1.1c.1-4.1 1-7.5 2.6-10s3.7-4.5 6.3-5.8c2.7-1.4 5.8-2.3 9.3-2.8 3.6-.5 7.4-.7 11.4-.7h2.7v9.7h-1.9c-1.8 0-3.6.1-5.3.2-1.8.1-3.4.5-4.8 1.1-1.5.7-2.6 1.7-3.5 3-.8 1.3-1.3 3.1-1.3 5.3v1.1h16.7v10.9h-16.7v47.6h-15.5zM173.6 51.9h15.7v10.9h-15.7V51.9zm0 19.4h15.7v58.5h-15.7V71.3z"/><path fill="none" class="colored-stroke" stroke="#6d6e70" stroke-width="4.367" stroke-linecap="round" d="M42.4 149.6h202.7"/><path class="colored" fill="#6d6e70" d="M72.4 169.9h-5.3l-6 18.6c-.2.6-.4 1.3-.6 2-.2.7-.3 1.3-.4 1.8H60c-.1-.5-.2-1.2-.4-1.9s-.3-1.3-.5-1.8L53.2 170h-5.8l10.3 28.3h4.5l10.2-28.4zm26 28.2l-11.5-28.3h-5l-11.5 28.3h5.3l2.8-7.6H90l2.8 7.6h5.6zm-9.5-10.4h-9.6l3.7-10.2.6-1.8c.2-.6.3-1.2.5-1.8h.1c.2.6.3 1.2.5 1.8l.6 1.8 3.6 10.2zm.8-24.2c-.5-.4-1-.6-1.6-.6-.6 0-1.2.2-1.6.6-.5.4-.7.9-.7 1.5s.2 1.1.7 1.5c.5.4 1 .6 1.6.6.6 0 1.2-.2 1.6-.6.5-.4.7-.9.7-1.5s-.2-1-.7-1.5zm-7.6 0c-.5-.4-1-.6-1.6-.6-.6 0-1.2.2-1.6.6-.5.4-.7.9-.7 1.5s.2 1.1.7 1.5c.5.4 1 .6 1.6.6.6 0 1.2-.2 1.6-.6.5-.4.7-.9.7-1.5s-.2-1-.7-1.5zm34.7 34.6v-3.2h-10.2v-25h-5.4v28.3h15.6v-.1zm9.1 0v-28.3h-5.4v28.3h5.4zm23.2-25v-3.2h-19.6v3.2h7.1v25h5.4v-25h7.1zm21.1 0v-3.2h-19.6v3.2h7.1v25h5.4v-25h7.1zm26.5 25l-11.5-28.3h-5l-11.5 28.3h5.3l2.8-7.6h11.5l2.8 7.6h5.6zm-9.6-10.4h-9.6l3.7-10.2.6-1.8c.2-.6.3-1.2.5-1.8h.1c.2.6.3 1.2.5 1.8l.6 1.8 3.6 10.2zm.9-24.2c-.5-.4-1-.6-1.6-.6s-1.2.2-1.6.6c-.5.4-.7.9-.7 1.5s.2 1.1.7 1.5c.5.4 1 .6 1.6.6s1.2-.2 1.6-.6c.5-.4.7-.9.7-1.5s-.2-1-.7-1.5zm-7.6 0c-.5-.4-1-.6-1.6-.6-.6 0-1.2.2-1.6.6-.5.4-.7.9-.7 1.5s.2 1.1.7 1.5c.5.4 1 .6 1.6.6.6 0 1.2-.2 1.6-.6.5-.4.7-.9.7-1.5s-.2-1-.7-1.5zm25.6 6.4h-5.4v24.5c0 1.3-.2 2.5-.5 3.6s-.7 2-1.3 2.8c-.5.8-1.2 1.5-1.9 2s-1.5.9-2.4 1.2v3.4c1.6-.2 3-.6 4.4-1.3 1.4-.7 2.6-1.6 3.6-2.7s1.9-2.5 2.5-4c.6-1.5.9-3.3.9-5.2v-24.3h.1zm31 28.2l-11.5-28.3h-5L209 198.1h5.3l2.8-7.6h11.5l2.8 7.6h5.6zm-9.6-10.4h-9.6l3.7-10.2.6-1.8c.2-.6.3-1.2.5-1.8h.1c.2.6.3 1.2.5 1.8l.6 1.8 3.6 10.2zm.9-24.2c-.5-.4-1-.6-1.6-.6-.6 0-1.2.2-1.6.6-.5.4-.7.9-.7 1.5s.2 1.1.7 1.5c.5.4 1 .6 1.6.6.6 0 1.2-.2 1.6-.6.5-.4.7-.9.7-1.5s-.2-1-.7-1.5zm-7.6 0c-.5-.4-1-.6-1.6-.6-.6 0-1.2.2-1.6.6-.5.4-.7.9-.7 1.5s.2 1.1.7 1.5c.5.4 1 .6 1.6.6.6 0 1.2-.2 1.6-.6.5-.4.7-.9.7-1.5s-.2-1-.7-1.5z"/></svg>
