<svg xmlns="http://www.w3.org/2000/svg" height="22" width="22" fill="#075e54" version="1" viewBox="15 15 80.000000 80.000000"><defs><clipPath id="a"><path d="M0 87.642h86.965V0H0v87.642z"/></clipPath></defs><g clip-path="url(#a)" transform="matrix(1.25 0 0 -1.25 0 109.55)"><path d="M58.113 37.793c-.752.412-4.45 2.407-5.143 2.689s-1.199.429-1.738-.32c-.54-.746-2.074-2.417-2.539-2.912-.467-.495-.916-.541-1.668-.128-.752.411-3.192 1.314-6.02 4.033-2.202 2.116-3.646 4.683-4.065 5.467-.419.783-.003 1.183.395 1.55.358.331.8.867 1.2 1.3.399.433.54.747.814 1.249.275.502.164.954-.013 1.344-.178.391-1.569 4.219-2.15 5.777-.581 1.557-1.229 1.326-1.676 1.343s-.956.1-1.467.119-1.348-.141-2.079-.883c-.731-.739-2.78-2.519-2.921-6.29-.141-3.77 2.467-7.517 2.831-8.041.364-.526 4.982-8.699 12.657-12.061 7.676-3.36 7.715-2.336 9.124-2.26 1.41.074 4.604 1.684 5.31 3.449.706 1.764.763 3.299.583 3.626-.18.326-.684.538-1.435.949m-14.076-18.17a24.858 24.858 0 0 0-13.75 4.132l-9.604-3.074 3.122 9.28a24.859 24.859 0 0 0-4.759 14.653c0 13.782 11.211 24.993 24.991 24.993 13.781 0 24.992-11.211 24.992-24.993 0-13.78-11.211-24.991-24.992-24.991m0 55.013c-16.58 0-30.021-13.441-30.021-30.022a29.893 29.893 0 0 1 4.308-15.502l-5.419-16.106 16.622 5.321a29.897 29.897 0 0 1 14.51-3.734c16.58 0 30.022 13.442 30.022 30.021 0 16.581-13.442 30.022-30.022 30.022" fill-rule="evenodd" fill="#075e54" /></g></svg>
