<svg xmlns="http://www.w3.org/2000/svg" viewBox="0 0 730 153"><path class="woo" class="logo-part" fill="#9B5C8F" d="M25.7 5.2h199.1c12.6 0 22.8 10.2 22.8 22.8v76c0 12.6-10.2 22.8-22.8 22.8h-71.4l9.8 24-43.1-24H25.8C13.2 126.8 3 116.6 3 104V28C2.9 15.5 13.1 5.2 25.7 5.2z"/><path fill="#FFF" d="M15.2 25.9c1.4-1.9 3.5-2.9 6.3-3.1 5.1-.4 8 2 8.7 7.2 3.1 20.9 6.5 38.6 10.1 53.1l21.9-41.7c2-3.8 4.5-5.8 7.5-6 4.4-.3 7.1 2.5 8.2 8.4 2.5 13.3 5.7 24.6 9.5 34.2 2.6-25.4 7-43.7 13.2-55 1.5-2.8 3.7-4.2 6.6-4.4 2.3-.2 4.4.5 6.3 2 1.9 1.5 2.9 3.4 3.1 5.7.1 1.8-.2 3.3-1 4.8-3.9 7.2-7.1 19.3-9.7 36.1-2.5 16.3-3.4 29-2.8 38.1.2 2.5-.2 4.7-1.2 6.6-1.2 2.2-3 3.4-5.3 3.6-2.6.2-5.3-1-7.9-3.7-9.3-9.5-16.7-23.7-22.1-42.6C60.1 82 55.3 91.6 52.2 98c-5.9 11.3-10.9 17.1-15.1 17.4-2.7.2-5-2.1-7-6.9C25 95.4 19.5 70.1 13.6 32.6c-.3-2.6.2-4.9 1.6-6.7zm215 15.7c-3.6-6.3-8.9-10.1-16-11.6-1.9-.4-3.7-.6-5.4-.6-9.6 0-17.4 5-23.5 15-5.2 8.5-7.8 17.9-7.8 28.2 0 7.7 1.6 14.3 4.8 19.8 3.6 6.3 8.9 10.1 16 11.6 1.9.4 3.7.6 5.4.6 9.7 0 17.5-5 23.5-15 5.2-8.6 7.8-18 7.8-28.3 0-7.8-1.6-14.3-4.8-19.7zm-12.6 27.7c-1.4 6.6-3.9 11.5-7.6 14.8-2.9 2.6-5.6 3.7-8.1 3.2-2.4-.5-4.4-2.6-5.9-6.5-1.2-3.1-1.8-6.2-1.8-9.1 0-2.5.2-5 .7-7.3.9-4.1 2.6-8.1 5.3-11.9 3.3-4.9 6.8-6.9 10.4-6.2 2.4.5 4.4 2.6 5.9 6.5 1.2 3.1 1.8 6.2 1.8 9.1 0 2.6-.3 5.1-.7 7.4zm-50.1-27.7c-3.6-6.3-9-10.1-16-11.6-1.9-.4-3.7-.6-5.4-.6-9.6 0-17.4 5-23.5 15-5.2 8.5-7.8 17.9-7.8 28.2 0 7.7 1.6 14.3 4.8 19.8 3.6 6.3 8.9 10.1 16 11.6 1.9.4 3.7.6 5.4.6 9.7 0 17.5-5 23.5-15 5.2-8.6 7.8-18 7.8-28.3 0-7.8-1.6-14.3-4.8-19.7zm-12.6 27.7c-1.4 6.6-3.9 11.5-7.6 14.8-2.9 2.6-5.6 3.7-8.1 3.2-2.4-.5-4.4-2.6-5.9-6.5-1.2-3.1-1.8-6.2-1.8-9.1 0-2.5.2-5 .7-7.3.9-4.1 2.6-8.1 5.3-11.9 3.3-4.9 6.8-6.9 10.4-6.2 2.4.5 4.4 2.6 5.9 6.5 1.2 3.1 1.8 6.2 1.8 9.1 0 2.6-.2 5.1-.7 7.4z"/><path class="text-part" d="M272.9 40.7c-6.7 6.6-10 15-10 25.2 0 10.9 3.3 19.8 9.9 26.5s15.2 10.1 25.9 10.1c3.1 0 6.6-.5 10.4-1.6V84.7c-3.5 1-6.5 1.5-9.1 1.5-5.3 0-9.5-1.8-12.7-5.3-3.2-3.6-4.8-8.4-4.8-14.5 0-5.7 1.6-10.4 4.7-14 3.2-3.7 7.1-5.5 11.9-5.5 3.1 0 6.4.5 10 1.5V32.2c-3.3-.9-7-1.3-10.9-1.3-10.2-.1-18.6 3.2-25.3 9.8zm69.4-9.9c-9.2 0-16.4 3.1-21.6 9.2S313 54.7 313 65.7c0 11.9 2.6 21 7.7 27.3s12.6 9.5 22.4 9.5c9.5 0 16.8-3.2 21.9-9.5s7.7-15.2 7.7-26.6-2.6-20.2-7.8-26.4c-5.3-6.1-12.8-9.2-22.6-9.2zm7.9 52c-1.8 2.8-4.5 4.2-7.9 4.2-3.2 0-5.6-1.4-7.3-4.2-1.7-2.8-2.5-8.4-2.5-16.9 0-13.1 3.3-19.6 10-19.6 7 0 10.6 6.6 10.6 19.9-.1 8.2-1.1 13.8-2.9 16.6zm71.9-50.1L418.5 48c-.9 3.9-1.8 7.9-2.6 12l-2 10.6c-1.9-10.6-4.5-23.2-7.8-37.9h-23.2l-8.7 68.1h17.4l4.7-46.9 11.9 46.9h12.4L432 54l4.9 46.8h18.2l-9.2-68.1h-23.8zm83.3 0L501.8 48c-.9 3.9-1.8 7.9-2.6 12l-2 10.6c-1.9-10.6-4.5-23.2-7.8-37.9h-23.2l-8.7 68.1h17.4l4.7-46.9 11.9 46.9h12.4L515.2 54l4.9 46.8h18.2l-9.2-68.1h-23.7zM562 73.9h16.3V59.8H562V47.3h18.8V32.8h-37.2v68.1h37.3V86.4H562V73.9zm70.7-10.8c1.9-3.1 2.9-6.3 2.9-9.6 0-6.4-2.5-11.5-7.5-15.2s-11.9-5.6-20.5-5.6h-21.4v68.1h18.4v-31h.3l14.9 31h19.4l-14.7-30.7c3.5-1.6 6.3-3.9 8.2-7zM604.5 62V45.8c4.4.1 7.5.8 9.4 2.2 1.9 1.4 2.8 3.6 2.8 6.8 0 4.7-4.1 7.1-12.2 7.2zm41.9-21.3c-6.7 6.6-10 15-10 25.2 0 10.9 3.3 19.8 9.9 26.5 6.6 6.7 15.2 10.1 25.9 10.1 3.1 0 6.6-.5 10.4-1.6V84.7c-3.5 1-6.5 1.5-9.1 1.5-5.3 0-9.5-1.8-12.7-5.3-3.2-3.6-4.8-8.4-4.8-14.5 0-5.7 1.6-10.4 4.7-14 3.2-3.7 7.1-5.5 11.9-5.5 3.1 0 6.4.5 10 1.5V32.2c-3.3-.9-7-1.3-10.9-1.3-10.1-.1-18.6 3.2-25.3 9.8zm59.7 45.5V73.8h16.3V59.7h-16.3V47.2H725V32.7h-37.2v68.1h37.3V86.3h-19v-.1z"/></svg>
