<svg xmlns="http://www.w3.org/2000/svg" width="56" height="56" viewBox="0 0 24 24"><path d="M2.597 7.81l4.911 13.454A10.295 10.295 0 0 1 2.597 7.81zm16.352 3.67c0-1.272-.457-2.153-.849-2.839-.521-.849-1.011-1.566-1.011-2.415 0-.978.747-1.88 1.862-1.819A10.257 10.257 0 0 0 12 1.706c-3.596 0-6.76 1.845-8.601 4.64.625.02 1.489.032 3.406-.118.555-.034.62.782.066.847 0 0-.558.065-1.178.098l3.749 11.15 2.253-6.756-1.604-4.394a19.328 19.328 0 0 1-1.08-.098c-.555-.033-.49-.881.065-.848 2.212.17 3.271.171 5.455 0 .555-.033.621.783.066.848 0 0-.559.065-1.178.098l3.72 11.065 1.027-3.431c.444-1.423.783-2.446.783-3.327zm-6.768 1.42l-3.089 8.975a10.299 10.299 0 0 0 6.326-.164c-.086-.139-3.181-8.657-3.237-8.811zm8.852-5.839c.224 1.651-.099 3.208-.713 4.746l-3.145 9.091A10.287 10.287 0 0 0 22.294 12c0-1.79-.457-3.473-1.261-4.939zM24 12c0 6.617-5.384 12-12 12S0 18.617 0 12 5.383 0 12 0s12 5.383 12 12zm-.55 0C23.45 5.687 18.313.55 12 .55S.55 5.687.55 12 5.687 23.45 12 23.45 23.45 18.313 23.45 12z"/></svg>